M48
; DRILL file {KiCad (6.0.7)} date Wed Oct 26 04:57:17 2022
; FORMAT={-:-/ absolute / inch / decimal}
; #@! TF.CreationDate,2022-10-26T04:57:17-04:00
; #@! TF.GenerationSoftware,Kicad,Pcbnew,(6.0.7)
; #@! TF.FileFunction,Plated,1,2,PTH
FMAT,2
INCH
; #@! TA.AperFunction,Plated,PTH,ViaDrill
T1C0.0157
; #@! TA.AperFunction,Plated,PTH,ComponentDrill
T2C0.0394
; #@! TA.AperFunction,Plated,PTH,ComponentDrill
T3C0.0400
%
G90
G05
T1
X6.125Y-3.1
X6.145Y-4.155
X6.23Y-4.13
X6.255Y-2.545
T2
X6.549Y-3.9042
X6.549Y-4.0042
T3
X4.4755Y-2.3203
X4.4755Y-2.4203
X4.5755Y-2.3203
X4.5755Y-2.4203
X4.6755Y-2.3203
X4.6755Y-2.4203
X4.7755Y-2.3203
X4.7755Y-2.4203
X4.78Y-3.325
X4.78Y-4.23
X4.8755Y-2.3203
X4.8755Y-2.4203
X4.88Y-3.325
X4.88Y-4.23
X4.9755Y-2.3203
X4.9755Y-2.4203
X5.0755Y-2.3203
X5.0755Y-2.4203
X5.1755Y-2.3203
X5.1755Y-2.4203
X5.2755Y-2.3203
X5.2755Y-2.4203
X5.28Y-2.725
X5.28Y-3.325
X5.28Y-3.63
X5.28Y-4.23
X5.3755Y-2.3203
X5.3755Y-2.4203
X5.38Y-2.725
X5.38Y-3.325
X5.38Y-3.63
X5.38Y-4.23
X5.4755Y-2.3203
X5.4755Y-2.4203
X5.5755Y-2.3203
X5.5755Y-2.4203
X5.6755Y-2.3203
X5.6755Y-2.4203
X5.7755Y-2.3203
X5.7755Y-2.4203
X5.78Y-2.725
X5.78Y-3.63
X5.8755Y-2.3203
X5.8755Y-2.4203
X5.88Y-2.725
X5.88Y-3.63
X5.9755Y-2.3203
X5.9755Y-2.4203
X6.0755Y-2.3203
X6.0755Y-2.4203
X6.08Y-3.325
X6.08Y-4.23
X6.1755Y-2.3203
X6.1755Y-2.4203
X6.18Y-2.725
X6.18Y-3.325
X6.18Y-3.63
X6.18Y-4.23
X6.2755Y-2.3203
X6.2755Y-2.4203
X6.28Y-2.725
X6.28Y-3.325
X6.28Y-3.63
X6.28Y-4.23
X6.3755Y-2.3203
X6.3755Y-2.4203
T0
M30
