%TF.GenerationSoftware,KiCad,Pcbnew,(6.0.7)*%
%TF.CreationDate,2022-10-26T04:57:19-04:00*%
%TF.ProjectId,RPi_Hat,5250695f-4861-4742-9e6b-696361645f70,rev?*%
%TF.SameCoordinates,Original*%
%TF.FileFunction,Copper,L2,Bot*%
%TF.FilePolarity,Positive*%
%FSLAX46Y46*%
G04 Gerber Fmt 4.6, Leading zero omitted, Abs format (unit mm)*
G04 Created by KiCad (PCBNEW (6.0.7)) date 2022-10-26 04:57:19*
%MOMM*%
%LPD*%
G01*
G04 APERTURE LIST*
%TA.AperFunction,Profile*%
%ADD10C,0.200000*%
%TD*%
%TA.AperFunction,ComponentPad*%
%ADD11C,1.879600*%
%TD*%
%TA.AperFunction,ComponentPad*%
%ADD12O,1.727200X1.727200*%
%TD*%
%TA.AperFunction,ComponentPad*%
%ADD13R,1.727200X1.727200*%
%TD*%
%TA.AperFunction,ComponentPad*%
%ADD14O,1.700000X1.700000*%
%TD*%
%TA.AperFunction,ComponentPad*%
%ADD15R,1.700000X1.700000*%
%TD*%
%TA.AperFunction,ViaPad*%
%ADD16C,0.600000*%
%TD*%
%TA.AperFunction,Conductor*%
%ADD17C,0.200000*%
%TD*%
G04 APERTURE END LIST*
D10*
X105307000Y-109705000D02*
G75*
G03*
X108307000Y-112705000I3000000J0D01*
G01*
X167307000Y-112705000D02*
G75*
G03*
X170307000Y-109705000I0J3000000D01*
G01*
X105307000Y-75205000D02*
G75*
G03*
X106307000Y-76205000I1000000J0D01*
G01*
X110307000Y-77205000D02*
G75*
G03*
X109307000Y-76205000I-1000000J0D01*
G01*
X109307000Y-93205000D02*
G75*
G03*
X110307000Y-92205000I0J1000000D01*
G01*
X106307000Y-93205000D02*
G75*
G03*
X105307000Y-94205000I0J-1000000D01*
G01*
X108307000Y-56705000D02*
G75*
G03*
X105307000Y-59705000I0J-3000000D01*
G01*
X108307000Y-56705000D02*
X167307000Y-56705000D01*
X170307000Y-59705000D02*
G75*
G03*
X167307000Y-56705000I-3000000J0D01*
G01*
X105307000Y-59705000D02*
X105307000Y-75205000D01*
X105307000Y-94205000D02*
X105307000Y-109705000D01*
X170307000Y-59705000D02*
X170307000Y-109705000D01*
X106307000Y-93205000D02*
X109307000Y-93205000D01*
X110307000Y-77205000D02*
X110307000Y-92205000D01*
X106307000Y-76205000D02*
X109307000Y-76205000D01*
X108307000Y-112705000D02*
X167307000Y-112705000D01*
D11*
%TO.P,JP1,2*%
%TO.N,Vin*%
X159512000Y-92202000D03*
%TO.P,JP1,1*%
%TO.N,GND*%
X156972000Y-92202000D03*
%TD*%
%TO.P,JP6,1*%
%TO.N,N/C*%
X146812000Y-92202000D03*
%TO.P,JP6,2*%
%TO.N,MS2*%
X149352000Y-92202000D03*
%TD*%
%TO.P,JP5,1*%
%TO.N,MS1*%
X136652000Y-107442000D03*
%TO.P,JP5,2*%
%TO.N,N/C*%
X134112000Y-107442000D03*
%TD*%
%TO.P,JP7,2*%
%TO.N,N/C*%
X136652000Y-92202000D03*
%TO.P,JP7,1*%
X134112000Y-92202000D03*
%TD*%
%TO.P,JP4,1*%
%TO.N,5v*%
X123952000Y-107442000D03*
%TO.P,JP4,2*%
%TO.N,GND*%
X121412000Y-107442000D03*
%TD*%
%TO.P,JP2,1*%
%TO.N,GND*%
X154432000Y-107442000D03*
%TO.P,JP2,2*%
%TO.N,STEP2*%
X156972000Y-107442000D03*
%TO.P,JP2,3*%
%TO.N,DIR2*%
X159512000Y-107442000D03*
%TD*%
%TO.P,JP1,1*%
%TO.N,GND*%
X156972000Y-69215000D03*
%TO.P,JP1,2*%
%TO.N,Vin*%
X159512000Y-69215000D03*
%TD*%
%TO.P,JP6,1*%
%TO.N,N/C*%
X146812000Y-69215000D03*
%TO.P,JP6,2*%
%TO.N,MS2*%
X149352000Y-69215000D03*
%TD*%
%TO.P,JP5,2*%
%TO.N,N/C*%
X134112000Y-84455000D03*
%TO.P,JP5,1*%
%TO.N,MS1*%
X136652000Y-84455000D03*
%TD*%
%TO.P,JP7,1*%
%TO.N,N/C*%
X134112000Y-69215000D03*
%TO.P,JP7,2*%
X136652000Y-69215000D03*
%TD*%
%TO.P,JP4,2*%
%TO.N,GND*%
X121412000Y-84455000D03*
%TO.P,JP4,1*%
%TO.N,5v*%
X123952000Y-84455000D03*
%TD*%
%TO.P,JP2,3*%
%TO.N,DIR1*%
X159512000Y-84455000D03*
%TO.P,JP2,2*%
%TO.N,STEP1*%
X156972000Y-84455000D03*
%TO.P,JP2,1*%
%TO.N,GND*%
X154432000Y-84455000D03*
%TD*%
D12*
%TO.P,J19,40,BCM21_SCLK_PCM_DO*%
%TO.N,unconnected-(J19-Pad40)*%
X161937000Y-58935000D03*
%TO.P,J19,39,GND*%
%TO.N,unconnected-(J19-Pad39)*%
X161937000Y-61475000D03*
%TO.P,J19,38,BCM20_MOSI_PCM_DI*%
%TO.N,DIR2*%
X159397000Y-58935000D03*
%TO.P,J19,37,BCM26*%
%TO.N,unconnected-(J19-Pad37)*%
X159397000Y-61475000D03*
%TO.P,J19,36,BCM16*%
%TO.N,STEP2*%
X156857000Y-58935000D03*
%TO.P,J19,35,BCM19_MISO_PCM_FS*%
%TO.N,STEP1*%
X156857000Y-61475000D03*
%TO.P,J19,34,GND*%
%TO.N,unconnected-(J19-Pad34)*%
X154317000Y-58935000D03*
%TO.P,J19,33,BCM13_PWM1*%
%TO.N,DIR1*%
X154317000Y-61475000D03*
%TO.P,J19,32,BCM12_PWM0*%
%TO.N,unconnected-(J19-Pad32)*%
X151777000Y-58935000D03*
%TO.P,J19,31,BCM6*%
%TO.N,unconnected-(J19-Pad31)*%
X151777000Y-61475000D03*
%TO.P,J19,30,GND*%
%TO.N,unconnected-(J19-Pad30)*%
X149237000Y-58935000D03*
%TO.P,J19,29,BCM5*%
%TO.N,unconnected-(J19-Pad29)*%
X149237000Y-61475000D03*
%TO.P,J19,28,BCM1_ID_SC*%
%TO.N,unconnected-(J19-Pad28)*%
X146697000Y-58935000D03*
%TO.P,J19,27,BCM0_ID_SD*%
%TO.N,unconnected-(J19-Pad27)*%
X146697000Y-61475000D03*
%TO.P,J19,26,BCM7_CE1*%
%TO.N,unconnected-(J19-Pad26)*%
X144157000Y-58935000D03*
%TO.P,J19,25,GND*%
%TO.N,unconnected-(J19-Pad25)*%
X144157000Y-61475000D03*
%TO.P,J19,24,BCM8_CE0*%
%TO.N,unconnected-(J19-Pad24)*%
X141617000Y-58935000D03*
%TO.P,J19,23,BCM11_SCLK*%
%TO.N,unconnected-(J19-Pad23)*%
X141617000Y-61475000D03*
%TO.P,J19,22,BCM25*%
%TO.N,unconnected-(J19-Pad22)*%
X139077000Y-58935000D03*
%TO.P,J19,21,BCM9_MISO*%
%TO.N,unconnected-(J19-Pad21)*%
X139077000Y-61475000D03*
%TO.P,J19,20,GND*%
%TO.N,unconnected-(J19-Pad20)*%
X136537000Y-58935000D03*
%TO.P,J19,19,BCM10_MOSI*%
%TO.N,unconnected-(J19-Pad19)*%
X136537000Y-61475000D03*
%TO.P,J19,18,BCM24*%
%TO.N,MS2*%
X133997000Y-58935000D03*
%TO.P,J19,17,3.3V*%
%TO.N,unconnected-(J19-Pad17)*%
X133997000Y-61475000D03*
%TO.P,J19,16,BCM23*%
%TO.N,unconnected-(J19-Pad16)*%
X131457000Y-58935000D03*
%TO.P,J19,15,BCM22*%
%TO.N,unconnected-(J19-Pad15)*%
X131457000Y-61475000D03*
%TO.P,J19,14,GND*%
%TO.N,unconnected-(J19-Pad14)*%
X128917000Y-58935000D03*
%TO.P,J19,13,BCM27*%
%TO.N,unconnected-(J19-Pad13)*%
X128917000Y-61475000D03*
%TO.P,J19,12,BCM18_PCM_C*%
%TO.N,unconnected-(J19-Pad12)*%
X126377000Y-58935000D03*
%TO.P,J19,11,BCM17*%
%TO.N,MS1*%
X126377000Y-61475000D03*
%TO.P,J19,10,BCM15_RXD*%
%TO.N,unconnected-(J19-Pad10)*%
X123837000Y-58935000D03*
%TO.P,J19,9,GND*%
%TO.N,unconnected-(J19-Pad9)*%
X123837000Y-61475000D03*
%TO.P,J19,8,BCM14_TXD*%
%TO.N,unconnected-(J19-Pad8)*%
X121297000Y-58935000D03*
%TO.P,J19,7,BCM4_GPCLK0*%
%TO.N,unconnected-(J19-Pad7)*%
X121297000Y-61475000D03*
%TO.P,J19,6,GND*%
%TO.N,GND*%
X118757000Y-58935000D03*
%TO.P,J19,5,BCM3_SCL*%
%TO.N,unconnected-(J19-Pad5)*%
X118757000Y-61475000D03*
%TO.P,J19,4,5V*%
%TO.N,5v*%
X116217000Y-58935000D03*
%TO.P,J19,3,BCM2_SDA*%
%TO.N,unconnected-(J19-Pad3)*%
X116217000Y-61475000D03*
%TO.P,J19,2,5V*%
%TO.N,unconnected-(J19-Pad2)*%
X113677000Y-58935000D03*
D13*
%TO.P,J19,1,3.3V*%
%TO.N,N/C*%
X113677000Y-61475000D03*
%TD*%
D14*
%TO.P,J12,2,Pin_2*%
%TO.N,Vin*%
X166345000Y-99167000D03*
D15*
%TO.P,J12,1,Pin_1*%
%TO.N,GND*%
X166345000Y-101707000D03*
%TD*%
D16*
%TO.N,DIR2*%
X158877000Y-64643000D03*
X158242000Y-104902000D03*
%TO.N,STEP2*%
X156083000Y-105537000D03*
X155575000Y-78740000D03*
%TD*%
D17*
%TO.N,DIR2*%
X158211800Y-65308200D02*
X158877000Y-64643000D01*
X158242000Y-104902000D02*
X158211800Y-104871800D01*
X158211800Y-104871800D02*
X158211800Y-65308200D01*
%TO.N,STEP2*%
X155671800Y-105125800D02*
X156083000Y-105537000D01*
X155575000Y-78740000D02*
X155671800Y-78836800D01*
X155671800Y-78836800D02*
X155671800Y-105125800D01*
%TD*%
M02*
