%TF.GenerationSoftware,KiCad,Pcbnew,(6.0.7)*%
%TF.CreationDate,2022-10-26T04:57:19-04:00*%
%TF.ProjectId,RPi_Hat,5250695f-4861-4742-9e6b-696361645f70,rev?*%
%TF.SameCoordinates,Original*%
%TF.FileFunction,Legend,Top*%
%TF.FilePolarity,Positive*%
%FSLAX46Y46*%
G04 Gerber Fmt 4.6, Leading zero omitted, Abs format (unit mm)*
G04 Created by KiCad (PCBNEW (6.0.7)) date 2022-10-26 04:57:19*
%MOMM*%
%LPD*%
G01*
G04 APERTURE LIST*
%ADD10C,0.254000*%
%ADD11C,0.150000*%
%ADD12C,0.146304*%
%ADD13C,0.182880*%
%ADD14C,0.203200*%
%TA.AperFunction,Profile*%
%ADD15C,0.200000*%
%TD*%
%ADD16C,0.114300*%
%ADD17C,0.120000*%
%ADD18O,1.727200X1.727200*%
%ADD19R,1.727200X1.727200*%
G04 APERTURE END LIST*
D10*
X113792000Y-66675000D02*
X113792000Y-86995000D01*
X113792000Y-89662000D02*
X113792000Y-109982000D01*
X162052000Y-89662000D02*
X113792000Y-89662000D01*
D11*
X163330000Y-102488904D02*
X163282380Y-102584142D01*
X163282380Y-102727000D01*
X163330000Y-102869857D01*
X163425238Y-102965095D01*
X163520476Y-103012714D01*
X163710952Y-103060333D01*
X163853809Y-103060333D01*
X164044285Y-103012714D01*
X164139523Y-102965095D01*
X164234761Y-102869857D01*
X164282380Y-102727000D01*
X164282380Y-102631761D01*
X164234761Y-102488904D01*
X164187142Y-102441285D01*
X163853809Y-102441285D01*
X163853809Y-102631761D01*
X164282380Y-102012714D02*
X163282380Y-102012714D01*
X164282380Y-101441285D01*
X163282380Y-101441285D01*
X164282380Y-100965095D02*
X163282380Y-100965095D01*
X163282380Y-100727000D01*
X163330000Y-100584142D01*
X163425238Y-100488904D01*
X163520476Y-100441285D01*
X163710952Y-100393666D01*
X163853809Y-100393666D01*
X164044285Y-100441285D01*
X164139523Y-100488904D01*
X164234761Y-100584142D01*
X164282380Y-100727000D01*
X164282380Y-100965095D01*
X163449047Y-99004428D02*
X164210952Y-99004428D01*
X163830000Y-99385380D02*
X163830000Y-98623476D01*
X168616380Y-102218904D02*
X168616380Y-102409380D01*
X168664000Y-102504619D01*
X168711619Y-102552238D01*
X168854476Y-102647476D01*
X169044952Y-102695095D01*
X169425904Y-102695095D01*
X169521142Y-102647476D01*
X169568761Y-102599857D01*
X169616380Y-102504619D01*
X169616380Y-102314142D01*
X169568761Y-102218904D01*
X169521142Y-102171285D01*
X169425904Y-102123666D01*
X169187809Y-102123666D01*
X169092571Y-102171285D01*
X169044952Y-102218904D01*
X168997333Y-102314142D01*
X168997333Y-102504619D01*
X169044952Y-102599857D01*
X169092571Y-102647476D01*
X169187809Y-102695095D01*
X169235428Y-101695095D02*
X169235428Y-100933190D01*
X168616380Y-100552238D02*
X168616380Y-99933190D01*
X168997333Y-100266523D01*
X168997333Y-100123666D01*
X169044952Y-100028428D01*
X169092571Y-99980809D01*
X169187809Y-99933190D01*
X169425904Y-99933190D01*
X169521142Y-99980809D01*
X169568761Y-100028428D01*
X169616380Y-100123666D01*
X169616380Y-100409380D01*
X169568761Y-100504619D01*
X169521142Y-100552238D01*
X168616380Y-99314142D02*
X168616380Y-99218904D01*
X168664000Y-99123666D01*
X168711619Y-99076047D01*
X168806857Y-99028428D01*
X168997333Y-98980809D01*
X169235428Y-98980809D01*
X169425904Y-99028428D01*
X169521142Y-99076047D01*
X169568761Y-99123666D01*
X169616380Y-99218904D01*
X169616380Y-99314142D01*
X169568761Y-99409380D01*
X169521142Y-99457000D01*
X169425904Y-99504619D01*
X169235428Y-99552238D01*
X168997333Y-99552238D01*
X168806857Y-99504619D01*
X168711619Y-99457000D01*
X168664000Y-99409380D01*
X168616380Y-99314142D01*
X168949714Y-98647476D02*
X169616380Y-98409380D01*
X168949714Y-98171285D01*
X138183809Y-111339333D02*
X137707619Y-111339333D01*
X138279047Y-111053619D02*
X137945714Y-112053619D01*
X137612380Y-111053619D01*
X136802857Y-111053619D02*
X137279047Y-111053619D01*
X137279047Y-112053619D01*
X136612380Y-112053619D02*
X136040952Y-112053619D01*
X136326666Y-111053619D02*
X136326666Y-112053619D01*
X135445619Y-65571666D02*
X135921809Y-65571666D01*
X135350380Y-65857380D02*
X135683714Y-64857380D01*
X136017047Y-65857380D01*
X136255142Y-64857380D02*
X136921809Y-64857380D01*
X136255142Y-65857380D01*
X136921809Y-65857380D01*
X137302761Y-65857380D02*
X137302761Y-64857380D01*
X165458857Y-95004285D02*
X165458857Y-94204285D01*
X166658857Y-95004285D01*
X166658857Y-94204285D01*
X165516000Y-93118571D02*
X165458857Y-93232857D01*
X165458857Y-93404285D01*
X165516000Y-93575714D01*
X165630285Y-93690000D01*
X165744571Y-93747142D01*
X165973142Y-93804285D01*
X166144571Y-93804285D01*
X166373142Y-93747142D01*
X166487428Y-93690000D01*
X166601714Y-93575714D01*
X166658857Y-93404285D01*
X166658857Y-93290000D01*
X166601714Y-93118571D01*
X166544571Y-93061428D01*
X166144571Y-93061428D01*
X166144571Y-93290000D01*
X166316000Y-92604285D02*
X166316000Y-92032857D01*
X166658857Y-92718571D02*
X165458857Y-92318571D01*
X166658857Y-91918571D01*
X166030285Y-91118571D02*
X166030285Y-91518571D01*
X166658857Y-91518571D02*
X165458857Y-91518571D01*
X165458857Y-90947142D01*
X166601714Y-89632857D02*
X166658857Y-89461428D01*
X166658857Y-89175714D01*
X166601714Y-89061428D01*
X166544571Y-89004285D01*
X166430285Y-88947142D01*
X166316000Y-88947142D01*
X166201714Y-89004285D01*
X166144571Y-89061428D01*
X166087428Y-89175714D01*
X166030285Y-89404285D01*
X165973142Y-89518571D01*
X165916000Y-89575714D01*
X165801714Y-89632857D01*
X165687428Y-89632857D01*
X165573142Y-89575714D01*
X165516000Y-89518571D01*
X165458857Y-89404285D01*
X165458857Y-89118571D01*
X165516000Y-88947142D01*
X165858857Y-88604285D02*
X165858857Y-88147142D01*
X165458857Y-88432857D02*
X166487428Y-88432857D01*
X166601714Y-88375714D01*
X166658857Y-88261428D01*
X166658857Y-88147142D01*
X166658857Y-87232857D02*
X166030285Y-87232857D01*
X165916000Y-87290000D01*
X165858857Y-87404285D01*
X165858857Y-87632857D01*
X165916000Y-87747142D01*
X166601714Y-87232857D02*
X166658857Y-87347142D01*
X166658857Y-87632857D01*
X166601714Y-87747142D01*
X166487428Y-87804285D01*
X166373142Y-87804285D01*
X166258857Y-87747142D01*
X166201714Y-87632857D01*
X166201714Y-87347142D01*
X166144571Y-87232857D01*
X166658857Y-86661428D02*
X165858857Y-86661428D01*
X166087428Y-86661428D02*
X165973142Y-86604285D01*
X165916000Y-86547142D01*
X165858857Y-86432857D01*
X165858857Y-86318571D01*
X165458857Y-86090000D02*
X165458857Y-85404285D01*
X166658857Y-85747142D02*
X165458857Y-85747142D01*
X166658857Y-85004285D02*
X165858857Y-85004285D01*
X166087428Y-85004285D02*
X165973142Y-84947142D01*
X165916000Y-84890000D01*
X165858857Y-84775714D01*
X165858857Y-84661428D01*
X166658857Y-83747142D02*
X166030285Y-83747142D01*
X165916000Y-83804285D01*
X165858857Y-83918571D01*
X165858857Y-84147142D01*
X165916000Y-84261428D01*
X166601714Y-83747142D02*
X166658857Y-83861428D01*
X166658857Y-84147142D01*
X166601714Y-84261428D01*
X166487428Y-84318571D01*
X166373142Y-84318571D01*
X166258857Y-84261428D01*
X166201714Y-84147142D01*
X166201714Y-83861428D01*
X166144571Y-83747142D01*
X166601714Y-82661428D02*
X166658857Y-82775714D01*
X166658857Y-83004285D01*
X166601714Y-83118571D01*
X166544571Y-83175714D01*
X166430285Y-83232857D01*
X166087428Y-83232857D01*
X165973142Y-83175714D01*
X165916000Y-83118571D01*
X165858857Y-83004285D01*
X165858857Y-82775714D01*
X165916000Y-82661428D01*
X166658857Y-82147142D02*
X165458857Y-82147142D01*
X166201714Y-82032857D02*
X166658857Y-81690000D01*
X165858857Y-81690000D02*
X166316000Y-82147142D01*
X166601714Y-80718571D02*
X166658857Y-80832857D01*
X166658857Y-81061428D01*
X166601714Y-81175714D01*
X166487428Y-81232857D01*
X166030285Y-81232857D01*
X165916000Y-81175714D01*
X165858857Y-81061428D01*
X165858857Y-80832857D01*
X165916000Y-80718571D01*
X166030285Y-80661428D01*
X166144571Y-80661428D01*
X166258857Y-81232857D01*
X166658857Y-80147142D02*
X165858857Y-80147142D01*
X166087428Y-80147142D02*
X165973142Y-80090000D01*
X165916000Y-80032857D01*
X165858857Y-79918571D01*
X165858857Y-79804285D01*
X165858857Y-78604285D02*
X166658857Y-78318571D01*
X165858857Y-78032857D01*
X165458857Y-77347142D02*
X165458857Y-77232857D01*
X165516000Y-77118571D01*
X165573142Y-77061428D01*
X165687428Y-77004285D01*
X165916000Y-76947142D01*
X166201714Y-76947142D01*
X166430285Y-77004285D01*
X166544571Y-77061428D01*
X166601714Y-77118571D01*
X166658857Y-77232857D01*
X166658857Y-77347142D01*
X166601714Y-77461428D01*
X166544571Y-77518571D01*
X166430285Y-77575714D01*
X166201714Y-77632857D01*
X165916000Y-77632857D01*
X165687428Y-77575714D01*
X165573142Y-77518571D01*
X165516000Y-77461428D01*
X165458857Y-77347142D01*
X166544571Y-76432857D02*
X166601714Y-76375714D01*
X166658857Y-76432857D01*
X166601714Y-76490000D01*
X166544571Y-76432857D01*
X166658857Y-76432857D01*
X166658857Y-75232857D02*
X166658857Y-75918571D01*
X166658857Y-75575714D02*
X165458857Y-75575714D01*
X165630285Y-75690000D01*
X165744571Y-75804285D01*
X165801714Y-75918571D01*
D12*
X156051049Y-109537524D02*
X156146262Y-109569262D01*
X156304952Y-109569262D01*
X156368428Y-109537524D01*
X156400166Y-109505786D01*
X156431904Y-109442310D01*
X156431904Y-109378834D01*
X156400166Y-109315358D01*
X156368428Y-109283620D01*
X156304952Y-109251883D01*
X156178000Y-109220145D01*
X156114525Y-109188407D01*
X156082787Y-109156669D01*
X156051049Y-109093193D01*
X156051049Y-109029717D01*
X156082787Y-108966241D01*
X156114525Y-108934504D01*
X156178000Y-108902766D01*
X156336690Y-108902766D01*
X156431904Y-108934504D01*
X156622331Y-108902766D02*
X157003186Y-108902766D01*
X156812758Y-109569262D02*
X156812758Y-108902766D01*
X157225351Y-109220145D02*
X157447517Y-109220145D01*
X157542730Y-109569262D02*
X157225351Y-109569262D01*
X157225351Y-108902766D01*
X157542730Y-108902766D01*
X157828371Y-109569262D02*
X157828371Y-108902766D01*
X158082275Y-108902766D01*
X158145750Y-108934504D01*
X158177488Y-108966241D01*
X158209226Y-109029717D01*
X158209226Y-109124931D01*
X158177488Y-109188407D01*
X158145750Y-109220145D01*
X158082275Y-109251883D01*
X157828371Y-109251883D01*
X156463787Y-95091262D02*
X156463787Y-94424766D01*
X156717690Y-94424766D01*
X156781166Y-94456504D01*
X156812904Y-94488241D01*
X156844641Y-94551717D01*
X156844641Y-94646931D01*
X156812904Y-94710407D01*
X156781166Y-94742145D01*
X156717690Y-94773883D01*
X156463787Y-94773883D01*
X157066807Y-94424766D02*
X157225496Y-95091262D01*
X157352448Y-94615193D01*
X157479400Y-95091262D01*
X157638089Y-94424766D01*
X158272847Y-95091262D02*
X158050682Y-94773883D01*
X157891992Y-95091262D02*
X157891992Y-94424766D01*
X158145896Y-94424766D01*
X158209371Y-94456504D01*
X158241109Y-94488241D01*
X158272847Y-94551717D01*
X158272847Y-94646931D01*
X158241109Y-94710407D01*
X158209371Y-94742145D01*
X158145896Y-94773883D01*
X157891992Y-94773883D01*
X159066295Y-95091262D02*
X159066295Y-94424766D01*
X159383674Y-95091262D02*
X159383674Y-94424766D01*
X159764529Y-95091262D01*
X159764529Y-94424766D01*
X153637904Y-108934504D02*
X153574428Y-108902766D01*
X153479214Y-108902766D01*
X153384000Y-108934504D01*
X153320525Y-108997979D01*
X153288787Y-109061455D01*
X153257049Y-109188407D01*
X153257049Y-109283620D01*
X153288787Y-109410572D01*
X153320525Y-109474048D01*
X153384000Y-109537524D01*
X153479214Y-109569262D01*
X153542690Y-109569262D01*
X153637904Y-109537524D01*
X153669641Y-109505786D01*
X153669641Y-109283620D01*
X153542690Y-109283620D01*
X153955283Y-109569262D02*
X153955283Y-108902766D01*
X154336137Y-109569262D01*
X154336137Y-108902766D01*
X154653517Y-109569262D02*
X154653517Y-108902766D01*
X154812206Y-108902766D01*
X154907420Y-108934504D01*
X154970896Y-108997979D01*
X155002633Y-109061455D01*
X155034371Y-109188407D01*
X155034371Y-109283620D01*
X155002633Y-109410572D01*
X154970896Y-109474048D01*
X154907420Y-109537524D01*
X154812206Y-109569262D01*
X154653517Y-109569262D01*
X159511787Y-109569262D02*
X159511787Y-108902766D01*
X159670476Y-108902766D01*
X159765690Y-108934504D01*
X159829166Y-108997979D01*
X159860904Y-109061455D01*
X159892641Y-109188407D01*
X159892641Y-109283620D01*
X159860904Y-109410572D01*
X159829166Y-109474048D01*
X159765690Y-109537524D01*
X159670476Y-109569262D01*
X159511787Y-109569262D01*
X160178283Y-109569262D02*
X160178283Y-108902766D01*
X160876517Y-109569262D02*
X160654351Y-109251883D01*
X160495662Y-109569262D02*
X160495662Y-108902766D01*
X160749565Y-108902766D01*
X160813041Y-108934504D01*
X160844779Y-108966241D01*
X160876517Y-109029717D01*
X160876517Y-109124931D01*
X160844779Y-109188407D01*
X160813041Y-109220145D01*
X160749565Y-109251883D01*
X160495662Y-109251883D01*
X123062787Y-109188358D02*
X123570593Y-109188358D01*
X123316690Y-109442262D02*
X123316690Y-108934455D01*
X124205351Y-108775766D02*
X123887972Y-108775766D01*
X123856234Y-109093145D01*
X123887972Y-109061407D01*
X123951448Y-109029669D01*
X124110137Y-109029669D01*
X124173613Y-109061407D01*
X124205351Y-109093145D01*
X124237089Y-109156620D01*
X124237089Y-109315310D01*
X124205351Y-109378786D01*
X124173613Y-109410524D01*
X124110137Y-109442262D01*
X123951448Y-109442262D01*
X123887972Y-109410524D01*
X123856234Y-109378786D01*
X124427517Y-108775766D02*
X124649682Y-109442262D01*
X124871847Y-108775766D01*
X127983952Y-90551145D02*
X128079166Y-90582883D01*
X128110904Y-90614620D01*
X128142641Y-90678096D01*
X128142641Y-90773310D01*
X128110904Y-90836786D01*
X128079166Y-90868524D01*
X128015690Y-90900262D01*
X127761787Y-90900262D01*
X127761787Y-90233766D01*
X127983952Y-90233766D01*
X128047428Y-90265504D01*
X128079166Y-90297241D01*
X128110904Y-90360717D01*
X128110904Y-90424193D01*
X128079166Y-90487669D01*
X128047428Y-90519407D01*
X127983952Y-90551145D01*
X127761787Y-90551145D01*
D13*
X121983233Y-94956327D02*
X121983233Y-94123207D01*
X122260940Y-94718293D01*
X122538647Y-94123207D01*
X122538647Y-94956327D01*
X123094060Y-94123207D02*
X123252750Y-94123207D01*
X123332094Y-94162880D01*
X123411439Y-94242224D01*
X123451112Y-94400914D01*
X123451112Y-94678620D01*
X123411439Y-94837310D01*
X123332094Y-94916655D01*
X123252750Y-94956327D01*
X123094060Y-94956327D01*
X123014715Y-94916655D01*
X122935371Y-94837310D01*
X122895698Y-94678620D01*
X122895698Y-94400914D01*
X122935371Y-94242224D01*
X123014715Y-94162880D01*
X123094060Y-94123207D01*
X123689146Y-94123207D02*
X124165214Y-94123207D01*
X123927180Y-94956327D02*
X123927180Y-94123207D01*
X124601611Y-94123207D02*
X124760300Y-94123207D01*
X124839645Y-94162880D01*
X124918990Y-94242224D01*
X124958662Y-94400914D01*
X124958662Y-94678620D01*
X124918990Y-94837310D01*
X124839645Y-94916655D01*
X124760300Y-94956327D01*
X124601611Y-94956327D01*
X124522266Y-94916655D01*
X124442921Y-94837310D01*
X124403249Y-94678620D01*
X124403249Y-94400914D01*
X124442921Y-94242224D01*
X124522266Y-94162880D01*
X124601611Y-94123207D01*
X125791782Y-94956327D02*
X125514075Y-94559603D01*
X125315713Y-94956327D02*
X125315713Y-94123207D01*
X125633092Y-94123207D01*
X125712437Y-94162880D01*
X125752110Y-94202552D01*
X125791782Y-94281897D01*
X125791782Y-94400914D01*
X125752110Y-94480259D01*
X125712437Y-94519931D01*
X125633092Y-94559603D01*
X125315713Y-94559603D01*
D12*
X120998904Y-108807504D02*
X120935428Y-108775766D01*
X120840214Y-108775766D01*
X120745000Y-108807504D01*
X120681525Y-108870979D01*
X120649787Y-108934455D01*
X120618049Y-109061407D01*
X120618049Y-109156620D01*
X120649787Y-109283572D01*
X120681525Y-109347048D01*
X120745000Y-109410524D01*
X120840214Y-109442262D01*
X120903690Y-109442262D01*
X120998904Y-109410524D01*
X121030641Y-109378786D01*
X121030641Y-109156620D01*
X120903690Y-109156620D01*
X121316283Y-109442262D02*
X121316283Y-108775766D01*
X121697137Y-109442262D01*
X121697137Y-108775766D01*
X122014517Y-109442262D02*
X122014517Y-108775766D01*
X122173206Y-108775766D01*
X122268420Y-108807504D01*
X122331896Y-108870979D01*
X122363633Y-108934455D01*
X122395371Y-109061407D01*
X122395371Y-109156620D01*
X122363633Y-109283572D01*
X122331896Y-109347048D01*
X122268420Y-109410524D01*
X122173206Y-109442262D01*
X122014517Y-109442262D01*
X136270641Y-90900262D02*
X136048476Y-90582883D01*
X135889787Y-90900262D02*
X135889787Y-90233766D01*
X136143690Y-90233766D01*
X136207166Y-90265504D01*
X136238904Y-90297241D01*
X136270641Y-90360717D01*
X136270641Y-90455931D01*
X136238904Y-90519407D01*
X136207166Y-90551145D01*
X136143690Y-90582883D01*
X135889787Y-90582883D01*
X136524545Y-90868524D02*
X136619758Y-90900262D01*
X136778448Y-90900262D01*
X136841924Y-90868524D01*
X136873662Y-90836786D01*
X136905400Y-90773310D01*
X136905400Y-90709834D01*
X136873662Y-90646358D01*
X136841924Y-90614620D01*
X136778448Y-90582883D01*
X136651496Y-90551145D01*
X136588021Y-90519407D01*
X136556283Y-90487669D01*
X136524545Y-90424193D01*
X136524545Y-90360717D01*
X136556283Y-90297241D01*
X136588021Y-90265504D01*
X136651496Y-90233766D01*
X136810186Y-90233766D01*
X136905400Y-90265504D01*
X137095827Y-90233766D02*
X137476682Y-90233766D01*
X137286254Y-90900262D02*
X137286254Y-90233766D01*
X135889787Y-109442262D02*
X135889787Y-108775766D01*
X136111952Y-109251834D01*
X136334117Y-108775766D01*
X136334117Y-109442262D01*
X136619758Y-109410524D02*
X136714972Y-109442262D01*
X136873662Y-109442262D01*
X136937137Y-109410524D01*
X136968875Y-109378786D01*
X137000613Y-109315310D01*
X137000613Y-109251834D01*
X136968875Y-109188358D01*
X136937137Y-109156620D01*
X136873662Y-109124883D01*
X136746710Y-109093145D01*
X136683234Y-109061407D01*
X136651496Y-109029669D01*
X136619758Y-108966193D01*
X136619758Y-108902717D01*
X136651496Y-108839241D01*
X136683234Y-108807504D01*
X136746710Y-108775766D01*
X136905400Y-108775766D01*
X137000613Y-108807504D01*
X137635371Y-109442262D02*
X137254517Y-109442262D01*
X137444944Y-109442262D02*
X137444944Y-108775766D01*
X137381468Y-108870979D01*
X137317992Y-108934455D01*
X137254517Y-108966193D01*
X148589787Y-90900262D02*
X148589787Y-90233766D01*
X148811952Y-90709834D01*
X149034117Y-90233766D01*
X149034117Y-90900262D01*
X149319758Y-90868524D02*
X149414972Y-90900262D01*
X149573662Y-90900262D01*
X149637137Y-90868524D01*
X149668875Y-90836786D01*
X149700613Y-90773310D01*
X149700613Y-90709834D01*
X149668875Y-90646358D01*
X149637137Y-90614620D01*
X149573662Y-90582883D01*
X149446710Y-90551145D01*
X149383234Y-90519407D01*
X149351496Y-90487669D01*
X149319758Y-90424193D01*
X149319758Y-90360717D01*
X149351496Y-90297241D01*
X149383234Y-90265504D01*
X149446710Y-90233766D01*
X149605400Y-90233766D01*
X149700613Y-90265504D01*
X149954517Y-90297241D02*
X149986254Y-90265504D01*
X150049730Y-90233766D01*
X150208420Y-90233766D01*
X150271896Y-90265504D01*
X150303633Y-90297241D01*
X150335371Y-90360717D01*
X150335371Y-90424193D01*
X150303633Y-90519407D01*
X149922779Y-90900262D01*
X150335371Y-90900262D01*
X143763787Y-90551145D02*
X143985952Y-90551145D01*
X144081166Y-90900262D02*
X143763787Y-90900262D01*
X143763787Y-90233766D01*
X144081166Y-90233766D01*
X144366807Y-90900262D02*
X144366807Y-90233766D01*
X144747662Y-90900262D01*
X144747662Y-90233766D01*
X145033303Y-90709834D02*
X145350682Y-90709834D01*
X144969827Y-90900262D02*
X145191992Y-90233766D01*
X145414158Y-90900262D01*
X145858488Y-90551145D02*
X145953702Y-90582883D01*
X145985440Y-90614620D01*
X146017178Y-90678096D01*
X146017178Y-90773310D01*
X145985440Y-90836786D01*
X145953702Y-90868524D01*
X145890226Y-90900262D01*
X145636323Y-90900262D01*
X145636323Y-90233766D01*
X145858488Y-90233766D01*
X145921964Y-90265504D01*
X145953702Y-90297241D01*
X145985440Y-90360717D01*
X145985440Y-90424193D01*
X145953702Y-90487669D01*
X145921964Y-90519407D01*
X145858488Y-90551145D01*
X145636323Y-90551145D01*
X146620198Y-90900262D02*
X146302819Y-90900262D01*
X146302819Y-90233766D01*
X146842363Y-90551145D02*
X147064529Y-90551145D01*
X147159742Y-90900262D02*
X146842363Y-90900262D01*
X146842363Y-90233766D01*
X147159742Y-90233766D01*
X122650049Y-90709834D02*
X122967428Y-90709834D01*
X122586573Y-90900262D02*
X122808738Y-90233766D01*
X123030904Y-90900262D01*
X133318049Y-109410524D02*
X133413262Y-109442262D01*
X133571952Y-109442262D01*
X133635428Y-109410524D01*
X133667166Y-109378786D01*
X133698904Y-109315310D01*
X133698904Y-109251834D01*
X133667166Y-109188358D01*
X133635428Y-109156620D01*
X133571952Y-109124883D01*
X133445000Y-109093145D01*
X133381525Y-109061407D01*
X133349787Y-109029669D01*
X133318049Y-108966193D01*
X133318049Y-108902717D01*
X133349787Y-108839241D01*
X133381525Y-108807504D01*
X133445000Y-108775766D01*
X133603690Y-108775766D01*
X133698904Y-108807504D01*
X134301924Y-109442262D02*
X133984545Y-109442262D01*
X133984545Y-108775766D01*
X134524089Y-109442262D02*
X134524089Y-108775766D01*
X134777992Y-108775766D01*
X134841468Y-108807504D01*
X134873206Y-108839241D01*
X134904944Y-108902717D01*
X134904944Y-108997931D01*
X134873206Y-109061407D01*
X134841468Y-109093145D01*
X134777992Y-109124883D01*
X134524089Y-109124883D01*
X133349787Y-90900262D02*
X133349787Y-90233766D01*
X133603690Y-90233766D01*
X133667166Y-90265504D01*
X133698904Y-90297241D01*
X133730641Y-90360717D01*
X133730641Y-90455931D01*
X133698904Y-90519407D01*
X133667166Y-90551145D01*
X133603690Y-90582883D01*
X133349787Y-90582883D01*
X134238448Y-90551145D02*
X134016283Y-90551145D01*
X134016283Y-90900262D02*
X134016283Y-90233766D01*
X134333662Y-90233766D01*
X134587565Y-90900262D02*
X134587565Y-90233766D01*
X134746254Y-90233766D01*
X134841468Y-90265504D01*
X134904944Y-90328979D01*
X134936682Y-90392455D01*
X134968420Y-90519407D01*
X134968420Y-90614620D01*
X134936682Y-90741572D01*
X134904944Y-90805048D01*
X134841468Y-90868524D01*
X134746254Y-90900262D01*
X134587565Y-90900262D01*
X156558904Y-90265504D02*
X156495428Y-90233766D01*
X156400214Y-90233766D01*
X156305000Y-90265504D01*
X156241525Y-90328979D01*
X156209787Y-90392455D01*
X156178049Y-90519407D01*
X156178049Y-90614620D01*
X156209787Y-90741572D01*
X156241525Y-90805048D01*
X156305000Y-90868524D01*
X156400214Y-90900262D01*
X156463690Y-90900262D01*
X156558904Y-90868524D01*
X156590641Y-90836786D01*
X156590641Y-90614620D01*
X156463690Y-90614620D01*
X156876283Y-90900262D02*
X156876283Y-90233766D01*
X157257137Y-90900262D01*
X157257137Y-90233766D01*
X157574517Y-90900262D02*
X157574517Y-90233766D01*
X157733206Y-90233766D01*
X157828420Y-90265504D01*
X157891896Y-90328979D01*
X157923633Y-90392455D01*
X157955371Y-90519407D01*
X157955371Y-90614620D01*
X157923633Y-90741572D01*
X157891896Y-90805048D01*
X157828420Y-90868524D01*
X157733206Y-90900262D01*
X157574517Y-90900262D01*
X159257787Y-90900262D02*
X159257787Y-90233766D01*
X159479952Y-90709834D01*
X159702117Y-90233766D01*
X159702117Y-90900262D01*
X160019496Y-90646358D02*
X160527303Y-90646358D01*
X160273400Y-90900262D02*
X160273400Y-90392455D01*
D14*
X129032000Y-90424000D02*
X128397000Y-90424000D01*
X123952000Y-90424000D02*
X123317000Y-90424000D01*
X126492000Y-90424000D02*
X126492000Y-91059000D01*
D10*
X121412000Y-93599000D02*
X129032000Y-93599000D01*
X121412000Y-93218000D02*
X121412000Y-93599000D01*
X129032000Y-93599000D02*
X129032000Y-93218000D01*
D14*
X159512000Y-93345000D02*
X159512000Y-93980000D01*
X159512000Y-93980000D02*
X156972000Y-93980000D01*
D10*
X113792000Y-109982000D02*
X162052000Y-109982000D01*
D14*
X121412000Y-90424000D02*
X121412000Y-91059000D01*
X129032000Y-90424000D02*
X129032000Y-91059000D01*
X156972000Y-93345000D02*
X156972000Y-93980000D01*
X123952000Y-90424000D02*
X123952000Y-91059000D01*
X127127000Y-90424000D02*
X126492000Y-90424000D01*
D10*
X162052000Y-109982000D02*
X162052000Y-89662000D01*
D14*
X121412000Y-90424000D02*
X122047000Y-90424000D01*
D12*
X156051049Y-86550524D02*
X156146262Y-86582262D01*
X156304952Y-86582262D01*
X156368428Y-86550524D01*
X156400166Y-86518786D01*
X156431904Y-86455310D01*
X156431904Y-86391834D01*
X156400166Y-86328358D01*
X156368428Y-86296620D01*
X156304952Y-86264883D01*
X156178000Y-86233145D01*
X156114525Y-86201407D01*
X156082787Y-86169669D01*
X156051049Y-86106193D01*
X156051049Y-86042717D01*
X156082787Y-85979241D01*
X156114525Y-85947504D01*
X156178000Y-85915766D01*
X156336690Y-85915766D01*
X156431904Y-85947504D01*
X156622331Y-85915766D02*
X157003186Y-85915766D01*
X156812758Y-86582262D02*
X156812758Y-85915766D01*
X157225351Y-86233145D02*
X157447517Y-86233145D01*
X157542730Y-86582262D02*
X157225351Y-86582262D01*
X157225351Y-85915766D01*
X157542730Y-85915766D01*
X157828371Y-86582262D02*
X157828371Y-85915766D01*
X158082275Y-85915766D01*
X158145750Y-85947504D01*
X158177488Y-85979241D01*
X158209226Y-86042717D01*
X158209226Y-86137931D01*
X158177488Y-86201407D01*
X158145750Y-86233145D01*
X158082275Y-86264883D01*
X157828371Y-86264883D01*
X156463787Y-72104262D02*
X156463787Y-71437766D01*
X156717690Y-71437766D01*
X156781166Y-71469504D01*
X156812904Y-71501241D01*
X156844641Y-71564717D01*
X156844641Y-71659931D01*
X156812904Y-71723407D01*
X156781166Y-71755145D01*
X156717690Y-71786883D01*
X156463787Y-71786883D01*
X157066807Y-71437766D02*
X157225496Y-72104262D01*
X157352448Y-71628193D01*
X157479400Y-72104262D01*
X157638089Y-71437766D01*
X158272847Y-72104262D02*
X158050682Y-71786883D01*
X157891992Y-72104262D02*
X157891992Y-71437766D01*
X158145896Y-71437766D01*
X158209371Y-71469504D01*
X158241109Y-71501241D01*
X158272847Y-71564717D01*
X158272847Y-71659931D01*
X158241109Y-71723407D01*
X158209371Y-71755145D01*
X158145896Y-71786883D01*
X157891992Y-71786883D01*
X159066295Y-72104262D02*
X159066295Y-71437766D01*
X159383674Y-72104262D02*
X159383674Y-71437766D01*
X159764529Y-72104262D01*
X159764529Y-71437766D01*
X153637904Y-85947504D02*
X153574428Y-85915766D01*
X153479214Y-85915766D01*
X153384000Y-85947504D01*
X153320525Y-86010979D01*
X153288787Y-86074455D01*
X153257049Y-86201407D01*
X153257049Y-86296620D01*
X153288787Y-86423572D01*
X153320525Y-86487048D01*
X153384000Y-86550524D01*
X153479214Y-86582262D01*
X153542690Y-86582262D01*
X153637904Y-86550524D01*
X153669641Y-86518786D01*
X153669641Y-86296620D01*
X153542690Y-86296620D01*
X153955283Y-86582262D02*
X153955283Y-85915766D01*
X154336137Y-86582262D01*
X154336137Y-85915766D01*
X154653517Y-86582262D02*
X154653517Y-85915766D01*
X154812206Y-85915766D01*
X154907420Y-85947504D01*
X154970896Y-86010979D01*
X155002633Y-86074455D01*
X155034371Y-86201407D01*
X155034371Y-86296620D01*
X155002633Y-86423572D01*
X154970896Y-86487048D01*
X154907420Y-86550524D01*
X154812206Y-86582262D01*
X154653517Y-86582262D01*
X159511787Y-86582262D02*
X159511787Y-85915766D01*
X159670476Y-85915766D01*
X159765690Y-85947504D01*
X159829166Y-86010979D01*
X159860904Y-86074455D01*
X159892641Y-86201407D01*
X159892641Y-86296620D01*
X159860904Y-86423572D01*
X159829166Y-86487048D01*
X159765690Y-86550524D01*
X159670476Y-86582262D01*
X159511787Y-86582262D01*
X160178283Y-86582262D02*
X160178283Y-85915766D01*
X160876517Y-86582262D02*
X160654351Y-86264883D01*
X160495662Y-86582262D02*
X160495662Y-85915766D01*
X160749565Y-85915766D01*
X160813041Y-85947504D01*
X160844779Y-85979241D01*
X160876517Y-86042717D01*
X160876517Y-86137931D01*
X160844779Y-86201407D01*
X160813041Y-86233145D01*
X160749565Y-86264883D01*
X160495662Y-86264883D01*
X123062787Y-86201358D02*
X123570593Y-86201358D01*
X123316690Y-86455262D02*
X123316690Y-85947455D01*
X124205351Y-85788766D02*
X123887972Y-85788766D01*
X123856234Y-86106145D01*
X123887972Y-86074407D01*
X123951448Y-86042669D01*
X124110137Y-86042669D01*
X124173613Y-86074407D01*
X124205351Y-86106145D01*
X124237089Y-86169620D01*
X124237089Y-86328310D01*
X124205351Y-86391786D01*
X124173613Y-86423524D01*
X124110137Y-86455262D01*
X123951448Y-86455262D01*
X123887972Y-86423524D01*
X123856234Y-86391786D01*
X124427517Y-85788766D02*
X124649682Y-86455262D01*
X124871847Y-85788766D01*
X127983952Y-67564145D02*
X128079166Y-67595883D01*
X128110904Y-67627620D01*
X128142641Y-67691096D01*
X128142641Y-67786310D01*
X128110904Y-67849786D01*
X128079166Y-67881524D01*
X128015690Y-67913262D01*
X127761787Y-67913262D01*
X127761787Y-67246766D01*
X127983952Y-67246766D01*
X128047428Y-67278504D01*
X128079166Y-67310241D01*
X128110904Y-67373717D01*
X128110904Y-67437193D01*
X128079166Y-67500669D01*
X128047428Y-67532407D01*
X127983952Y-67564145D01*
X127761787Y-67564145D01*
D13*
X121983233Y-71969327D02*
X121983233Y-71136207D01*
X122260940Y-71731293D01*
X122538647Y-71136207D01*
X122538647Y-71969327D01*
X123094060Y-71136207D02*
X123252750Y-71136207D01*
X123332094Y-71175880D01*
X123411439Y-71255224D01*
X123451112Y-71413914D01*
X123451112Y-71691620D01*
X123411439Y-71850310D01*
X123332094Y-71929655D01*
X123252750Y-71969327D01*
X123094060Y-71969327D01*
X123014715Y-71929655D01*
X122935371Y-71850310D01*
X122895698Y-71691620D01*
X122895698Y-71413914D01*
X122935371Y-71255224D01*
X123014715Y-71175880D01*
X123094060Y-71136207D01*
X123689146Y-71136207D02*
X124165214Y-71136207D01*
X123927180Y-71969327D02*
X123927180Y-71136207D01*
X124601611Y-71136207D02*
X124760300Y-71136207D01*
X124839645Y-71175880D01*
X124918990Y-71255224D01*
X124958662Y-71413914D01*
X124958662Y-71691620D01*
X124918990Y-71850310D01*
X124839645Y-71929655D01*
X124760300Y-71969327D01*
X124601611Y-71969327D01*
X124522266Y-71929655D01*
X124442921Y-71850310D01*
X124403249Y-71691620D01*
X124403249Y-71413914D01*
X124442921Y-71255224D01*
X124522266Y-71175880D01*
X124601611Y-71136207D01*
X125791782Y-71969327D02*
X125514075Y-71572603D01*
X125315713Y-71969327D02*
X125315713Y-71136207D01*
X125633092Y-71136207D01*
X125712437Y-71175880D01*
X125752110Y-71215552D01*
X125791782Y-71294897D01*
X125791782Y-71413914D01*
X125752110Y-71493259D01*
X125712437Y-71532931D01*
X125633092Y-71572603D01*
X125315713Y-71572603D01*
D12*
X120998904Y-85820504D02*
X120935428Y-85788766D01*
X120840214Y-85788766D01*
X120745000Y-85820504D01*
X120681525Y-85883979D01*
X120649787Y-85947455D01*
X120618049Y-86074407D01*
X120618049Y-86169620D01*
X120649787Y-86296572D01*
X120681525Y-86360048D01*
X120745000Y-86423524D01*
X120840214Y-86455262D01*
X120903690Y-86455262D01*
X120998904Y-86423524D01*
X121030641Y-86391786D01*
X121030641Y-86169620D01*
X120903690Y-86169620D01*
X121316283Y-86455262D02*
X121316283Y-85788766D01*
X121697137Y-86455262D01*
X121697137Y-85788766D01*
X122014517Y-86455262D02*
X122014517Y-85788766D01*
X122173206Y-85788766D01*
X122268420Y-85820504D01*
X122331896Y-85883979D01*
X122363633Y-85947455D01*
X122395371Y-86074407D01*
X122395371Y-86169620D01*
X122363633Y-86296572D01*
X122331896Y-86360048D01*
X122268420Y-86423524D01*
X122173206Y-86455262D01*
X122014517Y-86455262D01*
X136270641Y-67913262D02*
X136048476Y-67595883D01*
X135889787Y-67913262D02*
X135889787Y-67246766D01*
X136143690Y-67246766D01*
X136207166Y-67278504D01*
X136238904Y-67310241D01*
X136270641Y-67373717D01*
X136270641Y-67468931D01*
X136238904Y-67532407D01*
X136207166Y-67564145D01*
X136143690Y-67595883D01*
X135889787Y-67595883D01*
X136524545Y-67881524D02*
X136619758Y-67913262D01*
X136778448Y-67913262D01*
X136841924Y-67881524D01*
X136873662Y-67849786D01*
X136905400Y-67786310D01*
X136905400Y-67722834D01*
X136873662Y-67659358D01*
X136841924Y-67627620D01*
X136778448Y-67595883D01*
X136651496Y-67564145D01*
X136588021Y-67532407D01*
X136556283Y-67500669D01*
X136524545Y-67437193D01*
X136524545Y-67373717D01*
X136556283Y-67310241D01*
X136588021Y-67278504D01*
X136651496Y-67246766D01*
X136810186Y-67246766D01*
X136905400Y-67278504D01*
X137095827Y-67246766D02*
X137476682Y-67246766D01*
X137286254Y-67913262D02*
X137286254Y-67246766D01*
X135889787Y-86455262D02*
X135889787Y-85788766D01*
X136111952Y-86264834D01*
X136334117Y-85788766D01*
X136334117Y-86455262D01*
X136619758Y-86423524D02*
X136714972Y-86455262D01*
X136873662Y-86455262D01*
X136937137Y-86423524D01*
X136968875Y-86391786D01*
X137000613Y-86328310D01*
X137000613Y-86264834D01*
X136968875Y-86201358D01*
X136937137Y-86169620D01*
X136873662Y-86137883D01*
X136746710Y-86106145D01*
X136683234Y-86074407D01*
X136651496Y-86042669D01*
X136619758Y-85979193D01*
X136619758Y-85915717D01*
X136651496Y-85852241D01*
X136683234Y-85820504D01*
X136746710Y-85788766D01*
X136905400Y-85788766D01*
X137000613Y-85820504D01*
X137635371Y-86455262D02*
X137254517Y-86455262D01*
X137444944Y-86455262D02*
X137444944Y-85788766D01*
X137381468Y-85883979D01*
X137317992Y-85947455D01*
X137254517Y-85979193D01*
X148589787Y-67913262D02*
X148589787Y-67246766D01*
X148811952Y-67722834D01*
X149034117Y-67246766D01*
X149034117Y-67913262D01*
X149319758Y-67881524D02*
X149414972Y-67913262D01*
X149573662Y-67913262D01*
X149637137Y-67881524D01*
X149668875Y-67849786D01*
X149700613Y-67786310D01*
X149700613Y-67722834D01*
X149668875Y-67659358D01*
X149637137Y-67627620D01*
X149573662Y-67595883D01*
X149446710Y-67564145D01*
X149383234Y-67532407D01*
X149351496Y-67500669D01*
X149319758Y-67437193D01*
X149319758Y-67373717D01*
X149351496Y-67310241D01*
X149383234Y-67278504D01*
X149446710Y-67246766D01*
X149605400Y-67246766D01*
X149700613Y-67278504D01*
X149954517Y-67310241D02*
X149986254Y-67278504D01*
X150049730Y-67246766D01*
X150208420Y-67246766D01*
X150271896Y-67278504D01*
X150303633Y-67310241D01*
X150335371Y-67373717D01*
X150335371Y-67437193D01*
X150303633Y-67532407D01*
X149922779Y-67913262D01*
X150335371Y-67913262D01*
X143763787Y-67564145D02*
X143985952Y-67564145D01*
X144081166Y-67913262D02*
X143763787Y-67913262D01*
X143763787Y-67246766D01*
X144081166Y-67246766D01*
X144366807Y-67913262D02*
X144366807Y-67246766D01*
X144747662Y-67913262D01*
X144747662Y-67246766D01*
X145033303Y-67722834D02*
X145350682Y-67722834D01*
X144969827Y-67913262D02*
X145191992Y-67246766D01*
X145414158Y-67913262D01*
X145858488Y-67564145D02*
X145953702Y-67595883D01*
X145985440Y-67627620D01*
X146017178Y-67691096D01*
X146017178Y-67786310D01*
X145985440Y-67849786D01*
X145953702Y-67881524D01*
X145890226Y-67913262D01*
X145636323Y-67913262D01*
X145636323Y-67246766D01*
X145858488Y-67246766D01*
X145921964Y-67278504D01*
X145953702Y-67310241D01*
X145985440Y-67373717D01*
X145985440Y-67437193D01*
X145953702Y-67500669D01*
X145921964Y-67532407D01*
X145858488Y-67564145D01*
X145636323Y-67564145D01*
X146620198Y-67913262D02*
X146302819Y-67913262D01*
X146302819Y-67246766D01*
X146842363Y-67564145D02*
X147064529Y-67564145D01*
X147159742Y-67913262D02*
X146842363Y-67913262D01*
X146842363Y-67246766D01*
X147159742Y-67246766D01*
X122650049Y-67722834D02*
X122967428Y-67722834D01*
X122586573Y-67913262D02*
X122808738Y-67246766D01*
X123030904Y-67913262D01*
X133318049Y-86423524D02*
X133413262Y-86455262D01*
X133571952Y-86455262D01*
X133635428Y-86423524D01*
X133667166Y-86391786D01*
X133698904Y-86328310D01*
X133698904Y-86264834D01*
X133667166Y-86201358D01*
X133635428Y-86169620D01*
X133571952Y-86137883D01*
X133445000Y-86106145D01*
X133381525Y-86074407D01*
X133349787Y-86042669D01*
X133318049Y-85979193D01*
X133318049Y-85915717D01*
X133349787Y-85852241D01*
X133381525Y-85820504D01*
X133445000Y-85788766D01*
X133603690Y-85788766D01*
X133698904Y-85820504D01*
X134301924Y-86455262D02*
X133984545Y-86455262D01*
X133984545Y-85788766D01*
X134524089Y-86455262D02*
X134524089Y-85788766D01*
X134777992Y-85788766D01*
X134841468Y-85820504D01*
X134873206Y-85852241D01*
X134904944Y-85915717D01*
X134904944Y-86010931D01*
X134873206Y-86074407D01*
X134841468Y-86106145D01*
X134777992Y-86137883D01*
X134524089Y-86137883D01*
X133349787Y-67913262D02*
X133349787Y-67246766D01*
X133603690Y-67246766D01*
X133667166Y-67278504D01*
X133698904Y-67310241D01*
X133730641Y-67373717D01*
X133730641Y-67468931D01*
X133698904Y-67532407D01*
X133667166Y-67564145D01*
X133603690Y-67595883D01*
X133349787Y-67595883D01*
X134238448Y-67564145D02*
X134016283Y-67564145D01*
X134016283Y-67913262D02*
X134016283Y-67246766D01*
X134333662Y-67246766D01*
X134587565Y-67913262D02*
X134587565Y-67246766D01*
X134746254Y-67246766D01*
X134841468Y-67278504D01*
X134904944Y-67341979D01*
X134936682Y-67405455D01*
X134968420Y-67532407D01*
X134968420Y-67627620D01*
X134936682Y-67754572D01*
X134904944Y-67818048D01*
X134841468Y-67881524D01*
X134746254Y-67913262D01*
X134587565Y-67913262D01*
X156558904Y-67278504D02*
X156495428Y-67246766D01*
X156400214Y-67246766D01*
X156305000Y-67278504D01*
X156241525Y-67341979D01*
X156209787Y-67405455D01*
X156178049Y-67532407D01*
X156178049Y-67627620D01*
X156209787Y-67754572D01*
X156241525Y-67818048D01*
X156305000Y-67881524D01*
X156400214Y-67913262D01*
X156463690Y-67913262D01*
X156558904Y-67881524D01*
X156590641Y-67849786D01*
X156590641Y-67627620D01*
X156463690Y-67627620D01*
X156876283Y-67913262D02*
X156876283Y-67246766D01*
X157257137Y-67913262D01*
X157257137Y-67246766D01*
X157574517Y-67913262D02*
X157574517Y-67246766D01*
X157733206Y-67246766D01*
X157828420Y-67278504D01*
X157891896Y-67341979D01*
X157923633Y-67405455D01*
X157955371Y-67532407D01*
X157955371Y-67627620D01*
X157923633Y-67754572D01*
X157891896Y-67818048D01*
X157828420Y-67881524D01*
X157733206Y-67913262D01*
X157574517Y-67913262D01*
X159257787Y-67913262D02*
X159257787Y-67246766D01*
X159479952Y-67722834D01*
X159702117Y-67246766D01*
X159702117Y-67913262D01*
X160019496Y-67659358D02*
X160527303Y-67659358D01*
X160273400Y-67913262D02*
X160273400Y-67405455D01*
D14*
X129032000Y-67437000D02*
X128397000Y-67437000D01*
D10*
X162052000Y-66675000D02*
X113792000Y-66675000D01*
D14*
X123952000Y-67437000D02*
X123317000Y-67437000D01*
X126492000Y-67437000D02*
X126492000Y-68072000D01*
D10*
X121412000Y-70612000D02*
X129032000Y-70612000D01*
X121412000Y-70231000D02*
X121412000Y-70612000D01*
X129032000Y-70612000D02*
X129032000Y-70231000D01*
D14*
X159512000Y-70358000D02*
X159512000Y-70993000D01*
X159512000Y-70993000D02*
X156972000Y-70993000D01*
D10*
X113792000Y-86995000D02*
X162052000Y-86995000D01*
D14*
X121412000Y-67437000D02*
X121412000Y-68072000D01*
X129032000Y-67437000D02*
X129032000Y-68072000D01*
X156972000Y-70358000D02*
X156972000Y-70993000D01*
X123952000Y-67437000D02*
X123952000Y-68072000D01*
X127127000Y-67437000D02*
X126492000Y-67437000D01*
D10*
X162052000Y-86995000D02*
X162052000Y-66675000D01*
D14*
X121412000Y-67437000D02*
X122047000Y-67437000D01*
D15*
X105307000Y-109705000D02*
G75*
G03*
X108307000Y-112705000I3000000J0D01*
G01*
X167307000Y-112705000D02*
G75*
G03*
X170307000Y-109705000I0J3000000D01*
G01*
X105307000Y-75205000D02*
G75*
G03*
X106307000Y-76205000I1000000J0D01*
G01*
X110307000Y-77205000D02*
G75*
G03*
X109307000Y-76205000I-1000000J0D01*
G01*
X109307000Y-93205000D02*
G75*
G03*
X110307000Y-92205000I0J1000000D01*
G01*
X106307000Y-93205000D02*
G75*
G03*
X105307000Y-94205000I0J-1000000D01*
G01*
X108307000Y-56705000D02*
G75*
G03*
X105307000Y-59705000I0J-3000000D01*
G01*
X108307000Y-56705000D02*
X167307000Y-56705000D01*
X170307000Y-59705000D02*
G75*
G03*
X167307000Y-56705000I-3000000J0D01*
G01*
X105307000Y-59705000D02*
X105307000Y-75205000D01*
X105307000Y-94205000D02*
X105307000Y-109705000D01*
X170307000Y-59705000D02*
X170307000Y-109705000D01*
X106307000Y-93205000D02*
X109307000Y-93205000D01*
X110307000Y-77205000D02*
X110307000Y-92205000D01*
X106307000Y-76205000D02*
X109307000Y-76205000D01*
X108307000Y-112705000D02*
X167307000Y-112705000D01*
D16*
%TO.C,JP1*%
X157864537Y-90609964D02*
X157864537Y-90963750D01*
X157840952Y-91034507D01*
X157793780Y-91081678D01*
X157723023Y-91105264D01*
X157675852Y-91105264D01*
X158100395Y-91105264D02*
X158100395Y-90609964D01*
X158289080Y-90609964D01*
X158336252Y-90633550D01*
X158359837Y-90657135D01*
X158383423Y-90704307D01*
X158383423Y-90775064D01*
X158359837Y-90822235D01*
X158336252Y-90845821D01*
X158289080Y-90869407D01*
X158100395Y-90869407D01*
X158855137Y-91105264D02*
X158572109Y-91105264D01*
X158713623Y-91105264D02*
X158713623Y-90609964D01*
X158666452Y-90680721D01*
X158619280Y-90727892D01*
X158572109Y-90751478D01*
X157864537Y-67622964D02*
X157864537Y-67976750D01*
X157840952Y-68047507D01*
X157793780Y-68094678D01*
X157723023Y-68118264D01*
X157675852Y-68118264D01*
X158100395Y-68118264D02*
X158100395Y-67622964D01*
X158289080Y-67622964D01*
X158336252Y-67646550D01*
X158359837Y-67670135D01*
X158383423Y-67717307D01*
X158383423Y-67788064D01*
X158359837Y-67835235D01*
X158336252Y-67858821D01*
X158289080Y-67882407D01*
X158100395Y-67882407D01*
X158855137Y-68118264D02*
X158572109Y-68118264D01*
X158713623Y-68118264D02*
X158713623Y-67622964D01*
X158666452Y-67693721D01*
X158619280Y-67740892D01*
X158572109Y-67764478D01*
%TO.C,G\u002A\u002A\u002A*%
G36*
X133892110Y-96623284D02*
G01*
X134430972Y-97002110D01*
X135146892Y-97578275D01*
X135188968Y-97613943D01*
X137464552Y-99513011D01*
X139562095Y-101193631D01*
X141434459Y-102620367D01*
X143034506Y-103757781D01*
X144315098Y-104570438D01*
X144777342Y-104822134D01*
X146299748Y-105310480D01*
X147946346Y-105294813D01*
X149729988Y-104772350D01*
X151663528Y-103740305D01*
X152543204Y-103139909D01*
X153258943Y-102647549D01*
X153781868Y-102335781D01*
X153980304Y-102271489D01*
X153882559Y-102519151D01*
X153528469Y-103064003D01*
X153075361Y-103681108D01*
X151937365Y-105392641D01*
X151172464Y-107045050D01*
X150821503Y-108544177D01*
X150802980Y-108919675D01*
X150848006Y-109633427D01*
X151009205Y-110350558D01*
X151321051Y-111123926D01*
X151818017Y-112006391D01*
X152534578Y-113050812D01*
X153505205Y-114310048D01*
X154764373Y-115836957D01*
X156346555Y-117684399D01*
X157036823Y-118478226D01*
X158292298Y-119931038D01*
X159191245Y-121003258D01*
X159744956Y-121710234D01*
X159964722Y-122067314D01*
X159861835Y-122089845D01*
X159514702Y-121846170D01*
X159111806Y-121522350D01*
X158406144Y-120946854D01*
X157511311Y-120212540D01*
X156880128Y-119692483D01*
X155113788Y-118260151D01*
X153411230Y-116927155D01*
X151845746Y-115747858D01*
X150490625Y-114776625D01*
X149419158Y-114067822D01*
X148880551Y-113758648D01*
X147414848Y-113258620D01*
X145849057Y-113219683D01*
X144148893Y-113649421D01*
X142280072Y-114555421D01*
X140734915Y-115560733D01*
X140052553Y-116026041D01*
X139587056Y-116304470D01*
X139451405Y-116341996D01*
X139602366Y-116073332D01*
X139993531Y-115512857D01*
X140414809Y-114947548D01*
X141684884Y-113048059D01*
X142458274Y-111314151D01*
X142742041Y-109715706D01*
X142543249Y-108222604D01*
X142193647Y-107361586D01*
X141721636Y-106591745D01*
X140940237Y-105495101D01*
X139905657Y-104142851D01*
X138674100Y-102606190D01*
X137301770Y-100956314D01*
X135844872Y-99264419D01*
X135426848Y-98789928D01*
X134660135Y-97901843D01*
X134064701Y-97169005D01*
X133709593Y-96679247D01*
X133644112Y-96522222D01*
X133892110Y-96623284D01*
G37*
G36*
X132625671Y-68810904D02*
G01*
X133234017Y-69258664D01*
X134090669Y-69927394D01*
X135112980Y-70753656D01*
X135400899Y-70990742D01*
X137614953Y-72797805D01*
X139480527Y-74264581D01*
X141043527Y-75420268D01*
X142349855Y-76294068D01*
X143445418Y-76915180D01*
X144376118Y-77312803D01*
X145187861Y-77516139D01*
X145726147Y-77558641D01*
X146788635Y-77395126D01*
X148110645Y-76935507D01*
X149546986Y-76241828D01*
X150952471Y-75376132D01*
X151134961Y-75247291D01*
X151858621Y-74763575D01*
X152398459Y-74469886D01*
X152615308Y-74425641D01*
X152535878Y-74690495D01*
X152180203Y-75217947D01*
X151845754Y-75632602D01*
X150583048Y-77399317D01*
X149790805Y-79167170D01*
X149480764Y-80887409D01*
X149664666Y-82511279D01*
X149985831Y-83356390D01*
X150391009Y-84018736D01*
X151112012Y-85019181D01*
X152100101Y-86296883D01*
X153306535Y-87791004D01*
X154682573Y-89440702D01*
X156179476Y-91185139D01*
X157082788Y-92215142D01*
X157782495Y-93026500D01*
X158318640Y-93686269D01*
X158608267Y-94090721D01*
X158636511Y-94157852D01*
X158438401Y-94053368D01*
X157885951Y-93653603D01*
X157041983Y-93006838D01*
X155969317Y-92161356D01*
X154730774Y-91165441D01*
X154515080Y-90990210D01*
X152291932Y-89206571D01*
X150408816Y-87771349D01*
X148806473Y-86668779D01*
X147425644Y-85883101D01*
X146207070Y-85398551D01*
X145091491Y-85199368D01*
X144019648Y-85269788D01*
X142932282Y-85594049D01*
X141770133Y-86156390D01*
X140473942Y-86941046D01*
X140131013Y-87164183D01*
X139267337Y-87723301D01*
X138591778Y-88145346D01*
X138218071Y-88359783D01*
X138181730Y-88373086D01*
X138274444Y-88171952D01*
X138617351Y-87638002D01*
X139142685Y-86875410D01*
X139302404Y-86650279D01*
X140262163Y-85209626D01*
X140885913Y-84011347D01*
X141227788Y-82923851D01*
X141341918Y-81815546D01*
X141342894Y-81689997D01*
X141299903Y-81002446D01*
X141148832Y-80310541D01*
X140856533Y-79564094D01*
X140389859Y-78712912D01*
X139715663Y-77706805D01*
X138800799Y-76495581D01*
X137612117Y-75029051D01*
X136116472Y-73257023D01*
X134647747Y-71552341D01*
X133767415Y-70520092D01*
X133052169Y-69649437D01*
X132558677Y-69011965D01*
X132343611Y-68679263D01*
X132348274Y-68647554D01*
X132625671Y-68810904D01*
G37*
G36*
X140696037Y-62854410D02*
G01*
X141296158Y-63254717D01*
X142081810Y-63822336D01*
X142210775Y-63918830D01*
X143198708Y-64620529D01*
X143918250Y-64994443D01*
X144502569Y-65074463D01*
X145084834Y-64894480D01*
X145396085Y-64729469D01*
X146068113Y-64399234D01*
X146354318Y-64383816D01*
X146228463Y-64677805D01*
X146068462Y-64868062D01*
X145630243Y-65614775D01*
X145629621Y-66451218D01*
X146079498Y-67435587D01*
X146870044Y-68484189D01*
X147469405Y-69209831D01*
X147872883Y-69745786D01*
X148006471Y-69992574D01*
X147996689Y-69998618D01*
X147713879Y-69849325D01*
X147118401Y-69454493D01*
X146329285Y-68893696D01*
X146177757Y-68782660D01*
X145159304Y-68074451D01*
X144422209Y-67696136D01*
X143844727Y-67617650D01*
X143305116Y-67808927D01*
X143006821Y-67999583D01*
X142449367Y-68296793D01*
X142242240Y-68192688D01*
X142409133Y-67716503D01*
X142567048Y-67457009D01*
X142862646Y-66777189D01*
X142814541Y-66071194D01*
X142392017Y-65245849D01*
X141564360Y-64207975D01*
X141455994Y-64086535D01*
X140867389Y-63404102D01*
X140488675Y-62909823D01*
X140396135Y-62703900D01*
X140402578Y-62702873D01*
X140696037Y-62854410D01*
G37*
G36*
X126035165Y-103116667D02*
G01*
X126620226Y-103521501D01*
X127412961Y-104101911D01*
X127697149Y-104315639D01*
X128559630Y-104940394D01*
X129280954Y-105411764D01*
X129738101Y-105650976D01*
X129805608Y-105665693D01*
X130231269Y-105533136D01*
X130876195Y-105206357D01*
X131033838Y-105113073D01*
X131573380Y-104817256D01*
X131834288Y-104741122D01*
X131835806Y-104776317D01*
X131649105Y-105155269D01*
X131369610Y-105714330D01*
X131138603Y-106501396D01*
X131279719Y-107311589D01*
X131825048Y-108244495D01*
X132419717Y-108973237D01*
X133088779Y-109774700D01*
X133438739Y-110286126D01*
X133454217Y-110474657D01*
X133119833Y-110307433D01*
X133005994Y-110225725D01*
X132503056Y-109849944D01*
X131776131Y-109303025D01*
X131344175Y-108976809D01*
X130421157Y-108366664D01*
X129671847Y-108137855D01*
X128914951Y-108264249D01*
X128305382Y-108538738D01*
X127454283Y-108978859D01*
X127913482Y-108278032D01*
X128282525Y-107520984D01*
X128317218Y-106786233D01*
X127990367Y-105964768D01*
X127274772Y-104947576D01*
X126998231Y-104609480D01*
X126376800Y-103845923D01*
X125940305Y-103270795D01*
X125761410Y-102981253D01*
X125767964Y-102964575D01*
X126035165Y-103116667D01*
G37*
G36*
X104336117Y-68088217D02*
G01*
X104894380Y-68482016D01*
X105673775Y-69089242D01*
X106226211Y-69542162D01*
X108243495Y-71200223D01*
X110124943Y-72697007D01*
X111814139Y-73990030D01*
X113254665Y-75036809D01*
X114390106Y-75794862D01*
X114982141Y-76135537D01*
X116552879Y-76691043D01*
X118169689Y-76762418D01*
X119871826Y-76342738D01*
X121698545Y-75425076D01*
X122667436Y-74779808D01*
X123640707Y-74091305D01*
X124233003Y-73698996D01*
X124498446Y-73578529D01*
X124491160Y-73705555D01*
X124265269Y-74055723D01*
X124259949Y-74063328D01*
X123275378Y-75493002D01*
X122558204Y-76598359D01*
X122046887Y-77483872D01*
X121679886Y-78254013D01*
X121467699Y-78803518D01*
X121228538Y-79652704D01*
X121154286Y-80472535D01*
X121273309Y-81319352D01*
X121613976Y-82249493D01*
X122204653Y-83319298D01*
X123073708Y-84585105D01*
X124249508Y-86103254D01*
X125760420Y-87930085D01*
X126503591Y-88805102D01*
X127412573Y-89866974D01*
X128196871Y-90778467D01*
X128789589Y-91462193D01*
X129123829Y-91840765D01*
X129168801Y-91888194D01*
X129609914Y-92341367D01*
X130049589Y-92861583D01*
X130370051Y-93299324D01*
X130453524Y-93505069D01*
X130444021Y-93507128D01*
X130188322Y-93344872D01*
X129577087Y-92891009D01*
X128674069Y-92194898D01*
X127543020Y-91305901D01*
X126247692Y-90273375D01*
X125735749Y-89861785D01*
X124292263Y-88718188D01*
X122886984Y-87640489D01*
X121609717Y-86694896D01*
X120550267Y-85947613D01*
X119798439Y-85464848D01*
X119688049Y-85403274D01*
X118218866Y-84801923D01*
X116764684Y-84607480D01*
X115254050Y-84832460D01*
X113615507Y-85489378D01*
X111777601Y-86590751D01*
X111393034Y-86856159D01*
X110677169Y-87335680D01*
X110173974Y-87627578D01*
X109998213Y-87670833D01*
X110152228Y-87380175D01*
X110544446Y-86825168D01*
X110821923Y-86465092D01*
X111407754Y-85631678D01*
X112047501Y-84582400D01*
X112439777Y-83859186D01*
X113063487Y-82267704D01*
X113213515Y-80813000D01*
X112893133Y-79377738D01*
X112584188Y-78682830D01*
X112094339Y-77882442D01*
X111274725Y-76743482D01*
X110167813Y-75319174D01*
X108816067Y-73662742D01*
X107261953Y-71827411D01*
X105568630Y-69889735D01*
X104875069Y-69081739D01*
X104362372Y-68434121D01*
X104105250Y-68043743D01*
X104093436Y-67977154D01*
X104336117Y-68088217D01*
G37*
G36*
X115505932Y-57994526D02*
G01*
X116045700Y-58372472D01*
X116763611Y-58946963D01*
X116808066Y-58984414D01*
X118260909Y-60181778D01*
X119408873Y-61033341D01*
X120336504Y-61568009D01*
X121128350Y-61814689D01*
X121868958Y-61802289D01*
X122642875Y-61559715D01*
X123343574Y-61218948D01*
X124609851Y-60545662D01*
X123924245Y-61715561D01*
X123497580Y-62521655D01*
X123275208Y-63224370D01*
X123285794Y-63908483D01*
X123558003Y-64658770D01*
X124120500Y-65560009D01*
X125001952Y-66696975D01*
X126016882Y-67904469D01*
X126624210Y-68640150D01*
X127034894Y-69187641D01*
X127176485Y-69448873D01*
X127164677Y-69458192D01*
X126889722Y-69301661D01*
X126288405Y-68878623D01*
X125457369Y-68258909D01*
X124745312Y-67710058D01*
X123466881Y-66736700D01*
X122501855Y-66081432D01*
X121756808Y-65706610D01*
X121138313Y-65574587D01*
X120552945Y-65647719D01*
X120060603Y-65822399D01*
X119280937Y-66207783D01*
X118654813Y-66615811D01*
X118587358Y-66673143D01*
X118227198Y-66960263D01*
X118112493Y-66866445D01*
X118104596Y-66678785D01*
X118255221Y-66200106D01*
X118376730Y-66079345D01*
X118860213Y-65530700D01*
X119213253Y-64692229D01*
X119346560Y-63812964D01*
X119311502Y-63472299D01*
X119065792Y-62940608D01*
X118538433Y-62129073D01*
X117812137Y-61156972D01*
X117136479Y-60335722D01*
X116354712Y-59404595D01*
X115738087Y-58629510D01*
X115352546Y-58096215D01*
X115258161Y-57893280D01*
X115505932Y-57994526D01*
G37*
G36*
X107390747Y-96377836D02*
G01*
X107953269Y-96767961D01*
X108747616Y-97364663D01*
X109366952Y-97849788D01*
X110753355Y-98911610D01*
X111846661Y-99622493D01*
X112743996Y-100005379D01*
X113542486Y-100083209D01*
X114339256Y-99878925D01*
X115231432Y-99415468D01*
X115443589Y-99285117D01*
X116430454Y-98667764D01*
X115630962Y-100217947D01*
X115197169Y-101116814D01*
X115007218Y-101725413D01*
X115024433Y-102215394D01*
X115131240Y-102556583D01*
X115424564Y-103085472D01*
X115964434Y-103874022D01*
X116640341Y-104776220D01*
X117341778Y-105646050D01*
X117958236Y-106337498D01*
X118098569Y-106477341D01*
X118555489Y-106970589D01*
X118920659Y-107454697D01*
X119085558Y-107776292D01*
X119054550Y-107828405D01*
X118760327Y-107669062D01*
X118159867Y-107243856D01*
X117362830Y-106632018D01*
X117024482Y-106361620D01*
X115532668Y-105200786D01*
X114371501Y-104401759D01*
X113496629Y-103937200D01*
X112863700Y-103779771D01*
X112835447Y-103779478D01*
X112289278Y-103910906D01*
X111517693Y-104241826D01*
X111119036Y-104454000D01*
X110422456Y-104839982D01*
X109942521Y-105083117D01*
X109825784Y-105126277D01*
X109890625Y-104928522D01*
X110189054Y-104427477D01*
X110393791Y-104117807D01*
X110901387Y-103236339D01*
X111113366Y-102434294D01*
X111006239Y-101616234D01*
X110556519Y-100686718D01*
X109740717Y-99550307D01*
X109068517Y-98732719D01*
X108284969Y-97790014D01*
X107661374Y-97007144D01*
X107263394Y-96468854D01*
X107153745Y-96261525D01*
X107390747Y-96377836D01*
G37*
G36*
X167904550Y-72607161D02*
G01*
X167887762Y-72584949D01*
X167876756Y-72570420D01*
X167856290Y-72542623D01*
X167851150Y-72535353D01*
X167882903Y-72535353D01*
X167913294Y-72575277D01*
X167926177Y-72591887D01*
X167936893Y-72605115D01*
X167944083Y-72613322D01*
X167946305Y-72615200D01*
X167950942Y-72612505D01*
X167962194Y-72605025D01*
X167978737Y-72593670D01*
X167999245Y-72579347D01*
X168019360Y-72565123D01*
X168040267Y-72550523D01*
X168064941Y-72533716D01*
X168092054Y-72515563D01*
X168120278Y-72496925D01*
X168148284Y-72478663D01*
X168174743Y-72461639D01*
X168198328Y-72446714D01*
X168217709Y-72434748D01*
X168231558Y-72426603D01*
X168238292Y-72423217D01*
X168237738Y-72418919D01*
X168232637Y-72408794D01*
X168224311Y-72394825D01*
X168214083Y-72378997D01*
X168203276Y-72363295D01*
X168193212Y-72349702D01*
X168185214Y-72340203D01*
X168180684Y-72336778D01*
X168173760Y-72339474D01*
X168160000Y-72346980D01*
X168140584Y-72358521D01*
X168116692Y-72373324D01*
X168089505Y-72390611D01*
X168060203Y-72409609D01*
X168029967Y-72429542D01*
X167999978Y-72449634D01*
X167971415Y-72469112D01*
X167945459Y-72487199D01*
X167923291Y-72503121D01*
X167906090Y-72516103D01*
X167899640Y-72521318D01*
X167882903Y-72535353D01*
X167851150Y-72535353D01*
X167833100Y-72509826D01*
X167809511Y-72475396D01*
X167787850Y-72442697D01*
X167779417Y-72429549D01*
X167746756Y-72379040D01*
X167718262Y-72337270D01*
X167693880Y-72304168D01*
X167673557Y-72279661D01*
X167657236Y-72263677D01*
X167648817Y-72257861D01*
X167640355Y-72255930D01*
X167623536Y-72254277D01*
X167599773Y-72252989D01*
X167570479Y-72252153D01*
X167552331Y-72251916D01*
X167520972Y-72251543D01*
X167498530Y-72250952D01*
X167484150Y-72250075D01*
X167476979Y-72248840D01*
X167476164Y-72247179D01*
X167478498Y-72245896D01*
X167484706Y-72242965D01*
X167486154Y-72240169D01*
X167481737Y-72236261D01*
X167470352Y-72229992D01*
X167459576Y-72224507D01*
X167440501Y-72214103D01*
X167415197Y-72199187D01*
X167385420Y-72180882D01*
X167352925Y-72160311D01*
X167319468Y-72138595D01*
X167286804Y-72116856D01*
X167256687Y-72096218D01*
X167236368Y-72081803D01*
X167202905Y-72056851D01*
X167165706Y-72027831D01*
X167126195Y-71995960D01*
X167085797Y-71962450D01*
X167045936Y-71928518D01*
X167008037Y-71895378D01*
X166973523Y-71864244D01*
X166943820Y-71836331D01*
X166920351Y-71812854D01*
X166917723Y-71810074D01*
X166885862Y-71775490D01*
X166854784Y-71740630D01*
X166826077Y-71707331D01*
X166801325Y-71677430D01*
X166783927Y-71655188D01*
X166768528Y-71634738D01*
X166758129Y-71621190D01*
X166751861Y-71613634D01*
X166748855Y-71611159D01*
X166748241Y-71612856D01*
X166749150Y-71617815D01*
X166749426Y-71619064D01*
X166751781Y-71627846D01*
X166756436Y-71643847D01*
X166762749Y-71664971D01*
X166770079Y-71689120D01*
X166777785Y-71714196D01*
X166785226Y-71738100D01*
X166791760Y-71758736D01*
X166796748Y-71774004D01*
X166797045Y-71774884D01*
X166799694Y-71786315D01*
X166800333Y-71800684D01*
X166798952Y-71820456D01*
X166796836Y-71838397D01*
X166793829Y-71872802D01*
X166794537Y-71904692D01*
X166799335Y-71937050D01*
X166808598Y-71972858D01*
X166817057Y-71999000D01*
X166830594Y-72043151D01*
X166843740Y-72094834D01*
X166855981Y-72151813D01*
X166866803Y-72211851D01*
X166868753Y-72224040D01*
X166874876Y-72263835D01*
X166879640Y-72296918D01*
X166883370Y-72326201D01*
X166886392Y-72354598D01*
X166889031Y-72385022D01*
X166891611Y-72420386D01*
X166893042Y-72441763D01*
X166895534Y-72475221D01*
X166898139Y-72501894D01*
X166900750Y-72520922D01*
X166903261Y-72531448D01*
X166904383Y-72533219D01*
X166906275Y-72539215D01*
X166907689Y-72553577D01*
X166908642Y-72574911D01*
X166909150Y-72601823D01*
X166909228Y-72632921D01*
X166908894Y-72666811D01*
X166908164Y-72702100D01*
X166907054Y-72737394D01*
X166905580Y-72771301D01*
X166903759Y-72802427D01*
X166901606Y-72829379D01*
X166900829Y-72837090D01*
X166897542Y-72865721D01*
X166894390Y-72887090D01*
X166890778Y-72903677D01*
X166886111Y-72917963D01*
X166879797Y-72932430D01*
X166876245Y-72939687D01*
X166865118Y-72959586D01*
X166852408Y-72978794D01*
X166840822Y-72993225D01*
X166840584Y-72993474D01*
X166829638Y-73006236D01*
X166823455Y-73018270D01*
X166820120Y-73033940D01*
X166819141Y-73042330D01*
X166818127Y-73056328D01*
X166818650Y-73068803D01*
X166821216Y-73082341D01*
X166826335Y-73099526D01*
X166834514Y-73122942D01*
X166835525Y-73125740D01*
X166844172Y-73149031D01*
X166852599Y-73170683D01*
X166859737Y-73188006D01*
X166863878Y-73197093D01*
X166868965Y-73208630D01*
X166876169Y-73226895D01*
X166884517Y-73249347D01*
X166892760Y-73272636D01*
X166900815Y-73295008D01*
X166908280Y-73313956D01*
X166914357Y-73327573D01*
X166918250Y-73333955D01*
X166918435Y-73334091D01*
X166921927Y-73339834D01*
X166927037Y-73352608D01*
X166933145Y-73370314D01*
X166939630Y-73390856D01*
X166945872Y-73412138D01*
X166951251Y-73432063D01*
X166955145Y-73448535D01*
X166956935Y-73459457D01*
X166956511Y-73462753D01*
X166956154Y-73468096D01*
X166957802Y-73481095D01*
X166961157Y-73499909D01*
X166965921Y-73522699D01*
X166966991Y-73527457D01*
X166979777Y-73586031D01*
X166989678Y-73637018D01*
X166996934Y-73682090D01*
X167001784Y-73722920D01*
X167004464Y-73761180D01*
X167005220Y-73795561D01*
X167005397Y-73823921D01*
X167006032Y-73844055D01*
X167007284Y-73857503D01*
X167009309Y-73865806D01*
X167012265Y-73870504D01*
X167012929Y-73871104D01*
X167019563Y-73879073D01*
X167027830Y-73892208D01*
X167032142Y-73900202D01*
X167039885Y-73914150D01*
X167051330Y-73933153D01*
X167064642Y-73954211D01*
X167072681Y-73966464D01*
X167091757Y-73996113D01*
X167112036Y-74029417D01*
X167132445Y-74064451D01*
X167151911Y-74099290D01*
X167169362Y-74132009D01*
X167183725Y-74160682D01*
X167193929Y-74183384D01*
X167194936Y-74185906D01*
X167205973Y-74218872D01*
X167213885Y-74252482D01*
X167218549Y-74284985D01*
X167219843Y-74314628D01*
X167217644Y-74339659D01*
X167211829Y-74358326D01*
X167207481Y-74364776D01*
X167192196Y-74377081D01*
X167170038Y-74388934D01*
X167143855Y-74398896D01*
X167134687Y-74401557D01*
X167112314Y-74406447D01*
X167094071Y-74407092D01*
X167075198Y-74403312D01*
X167061404Y-74398778D01*
X167009300Y-74375192D01*
X166959474Y-74342736D01*
X166912646Y-74302185D01*
X166869535Y-74254314D01*
X166830862Y-74199899D01*
X166797346Y-74139716D01*
X166776155Y-74091584D01*
X166759988Y-74048735D01*
X166748087Y-74012557D01*
X166740042Y-73981141D01*
X166735439Y-73952581D01*
X166733866Y-73924970D01*
X166734669Y-73899801D01*
X166737784Y-73853088D01*
X166709788Y-73806975D01*
X166697790Y-73786334D01*
X166683972Y-73761138D01*
X166669170Y-73733068D01*
X166654217Y-73703805D01*
X166639951Y-73675026D01*
X166627205Y-73648413D01*
X166616815Y-73625645D01*
X166609617Y-73608402D01*
X166606764Y-73599833D01*
X166634204Y-73599833D01*
X166660233Y-73655920D01*
X166673724Y-73683857D01*
X166689422Y-73714622D01*
X166705057Y-73743840D01*
X166714652Y-73760862D01*
X166731838Y-73790491D01*
X166744705Y-73813121D01*
X166753823Y-73830217D01*
X166759760Y-73843243D01*
X166763085Y-73853662D01*
X166764368Y-73862937D01*
X166764177Y-73872532D01*
X166763080Y-73883911D01*
X166762950Y-73885129D01*
X166760768Y-73913095D01*
X166760829Y-73938590D01*
X166763522Y-73963606D01*
X166769237Y-73990138D01*
X166778362Y-74020181D01*
X166791288Y-74055729D01*
X166801164Y-74080866D01*
X166833883Y-74150188D01*
X166874096Y-74213699D01*
X166921376Y-74270741D01*
X166928755Y-74278397D01*
X166961985Y-74309951D01*
X166993124Y-74334316D01*
X167024452Y-74353040D01*
X167058250Y-74367674D01*
X167062320Y-74369137D01*
X167086962Y-74376627D01*
X167107253Y-74379179D01*
X167126896Y-74376627D01*
X167149598Y-74368800D01*
X167159057Y-74364736D01*
X167176395Y-74355466D01*
X167186638Y-74344741D01*
X167192113Y-74329372D01*
X167194052Y-74316828D01*
X167193994Y-74296709D01*
X167190388Y-74270464D01*
X167183824Y-74240820D01*
X167174892Y-74210502D01*
X167165738Y-74185906D01*
X167157733Y-74168669D01*
X167145603Y-74145034D01*
X167130408Y-74116884D01*
X167113211Y-74086103D01*
X167095071Y-74054574D01*
X167077052Y-74024179D01*
X167060213Y-73996803D01*
X167051475Y-73983155D01*
X167037891Y-73961877D01*
X167025157Y-73941116D01*
X167014963Y-73923668D01*
X167010160Y-73914757D01*
X167001754Y-73899895D01*
X166993194Y-73887633D01*
X166989963Y-73884032D01*
X166984552Y-73875006D01*
X166981024Y-73859501D01*
X166979293Y-73836641D01*
X166979272Y-73805544D01*
X166980048Y-73782521D01*
X166979539Y-73758921D01*
X166976477Y-73727002D01*
X166971024Y-73687830D01*
X166963340Y-73642473D01*
X166953585Y-73591998D01*
X166945953Y-73555763D01*
X166930735Y-73485718D01*
X166903244Y-73503349D01*
X166871069Y-73521667D01*
X166832107Y-73540202D01*
X166789254Y-73557840D01*
X166745403Y-73573470D01*
X166703448Y-73585979D01*
X166667038Y-73594124D01*
X166634204Y-73599833D01*
X166606764Y-73599833D01*
X166606699Y-73599639D01*
X166602191Y-73585738D01*
X166595325Y-73569443D01*
X166593382Y-73565440D01*
X166589108Y-73556375D01*
X166584292Y-73544858D01*
X166578498Y-73529688D01*
X166571290Y-73509663D01*
X166565715Y-73493611D01*
X166594833Y-73493611D01*
X166596621Y-73500990D01*
X166601364Y-73514686D01*
X166608128Y-73532053D01*
X166609946Y-73536467D01*
X166616885Y-73552794D01*
X166622974Y-73563827D01*
X166630036Y-73570093D01*
X166639893Y-73572115D01*
X166654368Y-73570421D01*
X166675284Y-73565535D01*
X166693969Y-73560696D01*
X166730291Y-73549990D01*
X166768688Y-73536456D01*
X166807108Y-73521004D01*
X166843501Y-73504542D01*
X166875813Y-73487979D01*
X166901995Y-73472223D01*
X166914600Y-73462971D01*
X166929019Y-73451136D01*
X166917495Y-73410577D01*
X166912178Y-73392133D01*
X166907870Y-73377698D01*
X166905251Y-73369525D01*
X166904829Y-73368515D01*
X166900438Y-73370040D01*
X166890213Y-73375531D01*
X166879278Y-73382030D01*
X166841266Y-73403189D01*
X166797064Y-73424138D01*
X166749637Y-73443716D01*
X166701952Y-73460759D01*
X166656974Y-73474107D01*
X166626632Y-73481025D01*
X166607556Y-73485622D01*
X166596878Y-73490467D01*
X166594833Y-73493611D01*
X166565715Y-73493611D01*
X166562231Y-73483581D01*
X166550887Y-73450240D01*
X166541487Y-73422338D01*
X166527878Y-73381832D01*
X166500477Y-73427749D01*
X166443900Y-73515145D01*
X166381839Y-73597253D01*
X166315103Y-73673236D01*
X166244499Y-73742258D01*
X166170835Y-73803485D01*
X166094920Y-73856081D01*
X166073992Y-73868781D01*
X166043267Y-73886314D01*
X166015598Y-73900666D01*
X165987945Y-73913204D01*
X165957265Y-73925296D01*
X165920519Y-73938310D01*
X165915741Y-73939936D01*
X165870957Y-73953828D01*
X165828589Y-73963931D01*
X165785198Y-73970859D01*
X165737341Y-73975229D01*
X165710548Y-73976652D01*
X165630441Y-73975319D01*
X165551310Y-73964556D01*
X165481648Y-73946514D01*
X165600623Y-73946514D01*
X165625050Y-73949720D01*
X165645755Y-73951197D01*
X165673428Y-73951430D01*
X165705363Y-73950547D01*
X165738856Y-73948675D01*
X165771201Y-73945940D01*
X165799690Y-73942471D01*
X165808259Y-73941105D01*
X165863190Y-73928511D01*
X165921921Y-73909411D01*
X165982010Y-73884817D01*
X166041017Y-73855744D01*
X166096502Y-73823203D01*
X166103835Y-73818438D01*
X166167971Y-73771778D01*
X166231903Y-73716753D01*
X166294419Y-73654719D01*
X166354308Y-73587031D01*
X166410357Y-73515042D01*
X166461355Y-73440108D01*
X166498937Y-73376723D01*
X166516836Y-73344343D01*
X166496302Y-73258248D01*
X166489614Y-73230818D01*
X166483530Y-73207011D01*
X166478457Y-73188324D01*
X166474798Y-73176251D01*
X166473009Y-73172270D01*
X166469144Y-73176038D01*
X166461143Y-73186017D01*
X166450438Y-73200384D01*
X166445194Y-73207690D01*
X166429042Y-73229074D01*
X166406856Y-73256399D01*
X166379519Y-73288706D01*
X166347914Y-73325034D01*
X166312923Y-73364423D01*
X166275429Y-73405912D01*
X166236313Y-73448541D01*
X166196459Y-73491350D01*
X166156749Y-73533377D01*
X166118066Y-73573664D01*
X166081292Y-73611248D01*
X166047310Y-73645171D01*
X166017002Y-73674471D01*
X166011594Y-73679565D01*
X165943832Y-73740668D01*
X165879702Y-73793435D01*
X165818549Y-73838312D01*
X165759720Y-73875744D01*
X165702559Y-73906175D01*
X165646412Y-73930051D01*
X165639707Y-73932498D01*
X165600623Y-73946514D01*
X165481648Y-73946514D01*
X165474227Y-73944592D01*
X165400268Y-73915656D01*
X165381493Y-73906596D01*
X165336874Y-73881527D01*
X165289758Y-73850346D01*
X165242983Y-73815124D01*
X165199392Y-73777932D01*
X165180435Y-73759990D01*
X165114465Y-73688399D01*
X165054447Y-73609388D01*
X165000607Y-73523454D01*
X164953172Y-73431094D01*
X164912365Y-73332806D01*
X164878414Y-73229086D01*
X164851544Y-73120433D01*
X164831981Y-73007341D01*
X164829247Y-72986502D01*
X164823564Y-72939741D01*
X164819203Y-72900354D01*
X164816003Y-72866054D01*
X164813805Y-72834557D01*
X164812448Y-72803577D01*
X164811772Y-72770831D01*
X164811616Y-72734896D01*
X164815230Y-72620315D01*
X164825587Y-72504127D01*
X164839433Y-72408389D01*
X164869309Y-72408389D01*
X164870471Y-72439280D01*
X164870516Y-72439639D01*
X164881528Y-72488850D01*
X164902229Y-72538054D01*
X164932536Y-72587103D01*
X164972368Y-72635846D01*
X164984478Y-72648661D01*
X165043002Y-72702415D01*
X165110089Y-72752276D01*
X165185262Y-72798057D01*
X165268044Y-72839570D01*
X165357958Y-72876629D01*
X165454525Y-72909047D01*
X165557269Y-72936635D01*
X165665713Y-72959207D01*
X165779378Y-72976575D01*
X165837572Y-72983205D01*
X165858580Y-72984618D01*
X165887389Y-72985539D01*
X165922045Y-72985994D01*
X165960592Y-72986010D01*
X166001074Y-72985612D01*
X166041535Y-72984827D01*
X166080021Y-72983682D01*
X166114576Y-72982203D01*
X166143243Y-72980417D01*
X166160019Y-72978854D01*
X166191299Y-72974781D01*
X166225648Y-72969579D01*
X166258579Y-72963963D01*
X166282158Y-72959387D01*
X166307608Y-72953638D01*
X166334721Y-72946857D01*
X166361747Y-72939559D01*
X166386940Y-72932256D01*
X166408552Y-72925463D01*
X166424835Y-72919695D01*
X166434042Y-72915464D01*
X166435340Y-72914338D01*
X166435425Y-72908290D01*
X166433873Y-72894939D01*
X166430982Y-72876562D01*
X166428784Y-72864363D01*
X166424609Y-72840561D01*
X166419872Y-72810989D01*
X166415182Y-72779579D01*
X166411486Y-72752826D01*
X166407965Y-72726657D01*
X166405202Y-72708740D01*
X166402756Y-72697628D01*
X166400188Y-72691875D01*
X166397059Y-72690036D01*
X166392928Y-72690664D01*
X166392618Y-72690755D01*
X166383807Y-72693002D01*
X166367850Y-72696746D01*
X166347155Y-72701431D01*
X166328021Y-72705656D01*
X166228586Y-72723035D01*
X166124188Y-72733180D01*
X166016222Y-72736279D01*
X165906083Y-72732518D01*
X165795166Y-72722084D01*
X165684865Y-72705164D01*
X165576574Y-72681944D01*
X165471689Y-72652612D01*
X165371604Y-72617354D01*
X165277714Y-72576357D01*
X165246887Y-72560850D01*
X165174486Y-72520165D01*
X165111235Y-72478319D01*
X165056534Y-72434821D01*
X165009784Y-72389179D01*
X164970386Y-72340903D01*
X164959331Y-72324965D01*
X164945809Y-72302440D01*
X164933422Y-72277811D01*
X164923268Y-72253674D01*
X164916446Y-72232621D01*
X164914054Y-72218026D01*
X164912970Y-72211226D01*
X164910100Y-72213784D01*
X164905535Y-72225470D01*
X164899368Y-72246054D01*
X164892781Y-72270987D01*
X164880400Y-72324732D01*
X164872597Y-72370369D01*
X164869309Y-72408389D01*
X164839433Y-72408389D01*
X164842343Y-72388272D01*
X164865154Y-72274692D01*
X164893678Y-72165328D01*
X164927569Y-72062120D01*
X164933572Y-72046033D01*
X164980795Y-71931944D01*
X165032771Y-71826061D01*
X165089821Y-71727878D01*
X165152269Y-71636892D01*
X165220438Y-71552598D01*
X165294651Y-71474492D01*
X165307116Y-71462527D01*
X165325946Y-71444906D01*
X165343930Y-71428477D01*
X165358966Y-71415136D01*
X165368559Y-71407086D01*
X165385658Y-71393675D01*
X165363673Y-71401371D01*
X165324059Y-71413762D01*
X165280074Y-71424998D01*
X165233892Y-71434721D01*
X165187685Y-71442572D01*
X165143627Y-71448191D01*
X165103889Y-71451219D01*
X165070645Y-71451298D01*
X165064172Y-71450864D01*
X165030418Y-71448034D01*
X165033463Y-71468557D01*
X165034195Y-71487531D01*
X165032230Y-71514623D01*
X165027785Y-71548627D01*
X165021079Y-71588333D01*
X165012330Y-71632535D01*
X165001756Y-71680025D01*
X164989575Y-71729595D01*
X164979476Y-71767556D01*
X164949460Y-71864725D01*
X164912163Y-71964179D01*
X164867268Y-72066660D01*
X164814459Y-72172913D01*
X164779151Y-72238231D01*
X164768227Y-72259236D01*
X164755462Y-72285882D01*
X164742483Y-72314672D01*
X164731434Y-72340828D01*
X164710135Y-72389156D01*
X164686222Y-72434775D01*
X164658721Y-72479050D01*
X164626658Y-72523344D01*
X164589060Y-72569022D01*
X164544954Y-72617446D01*
X164504041Y-72659368D01*
X164464096Y-72698470D01*
X164427937Y-72731871D01*
X164393243Y-72761498D01*
X164357693Y-72789278D01*
X164318968Y-72817137D01*
X164291294Y-72835999D01*
X164232667Y-72875293D01*
X164225146Y-72910392D01*
X164215930Y-72942557D01*
X164202307Y-72970284D01*
X164182624Y-72996312D01*
X164159264Y-73019730D01*
X164136815Y-73038853D01*
X164110490Y-73059007D01*
X164082754Y-73078495D01*
X164056077Y-73095620D01*
X164032924Y-73108683D01*
X164023567Y-73113107D01*
X163995941Y-73123281D01*
X163965913Y-73131589D01*
X163936475Y-73137410D01*
X163910619Y-73140124D01*
X163895332Y-73139740D01*
X163873757Y-73139118D01*
X163851430Y-73141331D01*
X163845591Y-73142522D01*
X163816049Y-73145085D01*
X163783555Y-73140227D01*
X163750386Y-73128783D01*
X163718819Y-73111587D01*
X163691132Y-73089473D01*
X163685711Y-73083949D01*
X163666546Y-73058336D01*
X163657125Y-73032675D01*
X163657250Y-73022062D01*
X163683042Y-73022062D01*
X163683738Y-73032862D01*
X163686806Y-73041882D01*
X163693719Y-73051586D01*
X163705951Y-73064437D01*
X163711827Y-73070199D01*
X163738846Y-73092177D01*
X163767994Y-73107009D01*
X163800423Y-73114888D01*
X163837289Y-73116005D01*
X163879744Y-73110552D01*
X163911596Y-73103394D01*
X163933101Y-73097291D01*
X163954446Y-73090247D01*
X163970027Y-73084195D01*
X163991704Y-73073018D01*
X164018018Y-73057049D01*
X164046383Y-73038082D01*
X164074218Y-73017907D01*
X164098938Y-72998319D01*
X164103939Y-72993830D01*
X164145273Y-72993830D01*
X164160890Y-72979469D01*
X164173228Y-72965461D01*
X164184328Y-72948646D01*
X164186432Y-72944608D01*
X164193249Y-72927060D01*
X164198990Y-72906441D01*
X164200687Y-72897900D01*
X164203845Y-72881138D01*
X164207151Y-72867134D01*
X164208776Y-72861920D01*
X164210187Y-72856602D01*
X164207347Y-72856751D01*
X164198803Y-72862719D01*
X164195730Y-72865065D01*
X164184138Y-72876018D01*
X164179359Y-72887273D01*
X164178816Y-72894379D01*
X164176535Y-72925434D01*
X164170519Y-72952550D01*
X164161367Y-72973329D01*
X164157949Y-72978156D01*
X164145273Y-72993830D01*
X164103939Y-72993830D01*
X164116597Y-72982469D01*
X164131707Y-72966871D01*
X164140986Y-72954914D01*
X164146098Y-72943969D01*
X164148649Y-72931825D01*
X164149907Y-72913469D01*
X164149248Y-72895513D01*
X164148764Y-72891837D01*
X164147969Y-72880859D01*
X164150334Y-72871371D01*
X164157045Y-72861902D01*
X164169283Y-72850984D01*
X164185897Y-72838852D01*
X164235110Y-72838852D01*
X164235348Y-72839915D01*
X164243075Y-72835530D01*
X164258419Y-72825618D01*
X164281505Y-72810100D01*
X164293737Y-72801758D01*
X164350052Y-72760398D01*
X164407466Y-72713000D01*
X164464178Y-72661329D01*
X164518385Y-72607154D01*
X164568284Y-72552242D01*
X164612075Y-72498361D01*
X164634445Y-72467583D01*
X164651787Y-72440504D01*
X164669646Y-72409198D01*
X164686464Y-72376682D01*
X164700682Y-72345972D01*
X164710741Y-72320085D01*
X164710894Y-72319624D01*
X164716180Y-72306345D01*
X164725100Y-72286876D01*
X164736527Y-72263562D01*
X164749336Y-72238747D01*
X164753106Y-72231684D01*
X164798140Y-72145778D01*
X164837427Y-72065903D01*
X164871537Y-71990633D01*
X164901039Y-71918543D01*
X164926502Y-71848210D01*
X164948495Y-71778207D01*
X164967589Y-71707110D01*
X164974820Y-71676841D01*
X164982604Y-71642496D01*
X164987928Y-71617566D01*
X164990792Y-71602008D01*
X164991198Y-71595783D01*
X164989147Y-71598847D01*
X164984641Y-71611161D01*
X164977681Y-71632682D01*
X164975994Y-71638089D01*
X164954504Y-71701612D01*
X164927535Y-71771763D01*
X164895588Y-71847443D01*
X164859162Y-71927550D01*
X164818759Y-72010986D01*
X164774878Y-72096650D01*
X164728020Y-72183442D01*
X164727560Y-72184272D01*
X164705469Y-72224693D01*
X164687783Y-72258514D01*
X164673758Y-72287436D01*
X164662649Y-72313163D01*
X164653712Y-72337396D01*
X164646202Y-72361840D01*
X164640627Y-72383070D01*
X164634297Y-72407587D01*
X164627930Y-72428815D01*
X164620766Y-72447911D01*
X164612043Y-72466031D01*
X164601001Y-72484333D01*
X164586880Y-72503972D01*
X164568920Y-72526106D01*
X164546359Y-72551890D01*
X164518436Y-72582482D01*
X164487983Y-72615200D01*
X164452945Y-72652481D01*
X164423821Y-72683031D01*
X164400032Y-72707422D01*
X164380998Y-72726226D01*
X164366141Y-72740014D01*
X164354881Y-72749357D01*
X164346639Y-72754827D01*
X164346229Y-72755044D01*
X164338538Y-72759982D01*
X164325182Y-72769441D01*
X164308107Y-72781951D01*
X164289259Y-72796045D01*
X164270584Y-72810256D01*
X164254028Y-72823116D01*
X164241536Y-72833157D01*
X164235110Y-72838852D01*
X164185897Y-72838852D01*
X164188233Y-72837146D01*
X164198468Y-72830117D01*
X164218629Y-72815923D01*
X164242131Y-72798651D01*
X164264759Y-72781414D01*
X164270801Y-72776673D01*
X164308935Y-72746481D01*
X164280572Y-72728007D01*
X164248940Y-72703610D01*
X164220587Y-72674447D01*
X164196905Y-72642461D01*
X164179288Y-72609592D01*
X164169128Y-72577782D01*
X164168045Y-72571217D01*
X164165739Y-72559010D01*
X164163156Y-72552218D01*
X164162405Y-72551718D01*
X164158421Y-72555415D01*
X164150088Y-72565363D01*
X164138769Y-72579883D01*
X164130071Y-72591500D01*
X164100581Y-72632240D01*
X164077128Y-72666363D01*
X164059276Y-72694573D01*
X164046588Y-72717574D01*
X164038629Y-72736068D01*
X164036798Y-72741902D01*
X164029702Y-72766076D01*
X164023511Y-72782863D01*
X164017124Y-72794441D01*
X164009440Y-72802987D01*
X164003552Y-72807711D01*
X163995028Y-72812814D01*
X163979020Y-72821309D01*
X163956921Y-72832499D01*
X163930121Y-72845688D01*
X163900012Y-72860181D01*
X163874688Y-72872147D01*
X163842370Y-72887544D01*
X163811763Y-72902593D01*
X163784380Y-72916514D01*
X163761735Y-72928527D01*
X163745343Y-72937850D01*
X163738110Y-72942572D01*
X163712322Y-72965111D01*
X163694230Y-72987993D01*
X163684538Y-73010200D01*
X163683042Y-73022062D01*
X163657250Y-73022062D01*
X163657431Y-73006620D01*
X163667447Y-72979827D01*
X163679729Y-72961099D01*
X163689636Y-72949139D01*
X163700870Y-72937989D01*
X163714496Y-72926993D01*
X163731574Y-72915496D01*
X163753169Y-72902840D01*
X163780343Y-72888372D01*
X163814159Y-72871435D01*
X163855679Y-72851373D01*
X163864088Y-72847363D01*
X163903992Y-72828180D01*
X163935818Y-72812382D01*
X163960429Y-72799413D01*
X163978687Y-72788720D01*
X163991457Y-72779746D01*
X163999601Y-72771935D01*
X164003982Y-72764734D01*
X164005463Y-72757586D01*
X164005489Y-72756393D01*
X164008760Y-72737969D01*
X164018153Y-72713860D01*
X164033038Y-72685446D01*
X164050842Y-72656988D01*
X164069833Y-72629216D01*
X164089456Y-72601492D01*
X164108648Y-72575227D01*
X164126349Y-72551830D01*
X164140694Y-72533725D01*
X164191583Y-72533725D01*
X164192191Y-72555458D01*
X164198835Y-72582077D01*
X164201066Y-72588780D01*
X164217182Y-72625474D01*
X164239275Y-72657060D01*
X164252858Y-72671706D01*
X164265105Y-72682621D01*
X164280936Y-72694935D01*
X164298103Y-72707116D01*
X164314355Y-72717635D01*
X164327446Y-72724960D01*
X164334934Y-72727568D01*
X164341208Y-72724529D01*
X164352125Y-72716607D01*
X164363835Y-72706804D01*
X164387253Y-72686040D01*
X164347630Y-72660003D01*
X164325130Y-72643712D01*
X164304422Y-72626032D01*
X164288815Y-72609807D01*
X164287924Y-72608705D01*
X164271874Y-72585683D01*
X164256552Y-72558722D01*
X164243506Y-72530985D01*
X164234287Y-72505640D01*
X164231230Y-72492860D01*
X164227537Y-72471226D01*
X164209338Y-72495060D01*
X164197226Y-72514413D01*
X164191583Y-72533725D01*
X164140694Y-72533725D01*
X164141496Y-72532713D01*
X164153029Y-72519287D01*
X164158496Y-72513936D01*
X164169058Y-72503322D01*
X164178014Y-72491577D01*
X164187012Y-72479241D01*
X164200562Y-72462532D01*
X164216401Y-72444078D01*
X164232261Y-72426503D01*
X164245876Y-72412433D01*
X164248411Y-72410007D01*
X164256971Y-72402122D01*
X164270946Y-72389400D01*
X164288478Y-72373525D01*
X164307710Y-72356183D01*
X164309855Y-72354253D01*
X164343599Y-72323452D01*
X164369861Y-72298456D01*
X164388853Y-72279046D01*
X164400788Y-72265002D01*
X164405877Y-72256106D01*
X164406104Y-72254594D01*
X164404577Y-72246600D01*
X164400533Y-72232231D01*
X164394778Y-72214300D01*
X164393447Y-72210403D01*
X164385116Y-72183593D01*
X164379929Y-72159093D01*
X164377911Y-72134791D01*
X164379087Y-72108574D01*
X164383481Y-72078331D01*
X164391118Y-72041950D01*
X164395638Y-72022936D01*
X164413450Y-71955279D01*
X164434255Y-71885480D01*
X164456929Y-71817033D01*
X164480352Y-71753431D01*
X164489682Y-71730120D01*
X164504161Y-71696491D01*
X164521691Y-71658335D01*
X164541361Y-71617429D01*
X164562261Y-71575547D01*
X164583479Y-71534466D01*
X164604105Y-71495960D01*
X164623228Y-71461805D01*
X164639938Y-71433778D01*
X164648450Y-71420605D01*
X164663596Y-71398199D01*
X164678867Y-71375635D01*
X164692248Y-71355891D01*
X164700015Y-71344451D01*
X164712026Y-71323333D01*
X164724027Y-71296140D01*
X164733725Y-71268725D01*
X164746440Y-71230698D01*
X164758759Y-71200370D01*
X164771769Y-71175782D01*
X164786558Y-71154976D01*
X164804215Y-71135995D01*
X164811007Y-71129661D01*
X164870856Y-71081705D01*
X164937337Y-71039950D01*
X164962422Y-71026733D01*
X164983475Y-71015803D01*
X164996341Y-71008127D01*
X165001823Y-71003138D01*
X165000728Y-71000266D01*
X165000223Y-71000049D01*
X164989305Y-70998435D01*
X164971199Y-70998447D01*
X164948310Y-70999861D01*
X164923044Y-71002451D01*
X164897807Y-71005992D01*
X164875004Y-71010260D01*
X164864790Y-71012723D01*
X164777838Y-71034744D01*
X164696874Y-71052483D01*
X164619304Y-71066324D01*
X164542530Y-71076653D01*
X164463957Y-71083853D01*
X164380990Y-71088310D01*
X164347478Y-71089372D01*
X164253456Y-71090042D01*
X164167008Y-71086945D01*
X164147170Y-71085618D01*
X164115972Y-71083515D01*
X164085840Y-71081826D01*
X164059046Y-71080654D01*
X164037864Y-71080101D01*
X164026330Y-71080180D01*
X163982667Y-71077873D01*
X163939984Y-71067178D01*
X163897202Y-71047715D01*
X163854477Y-71020023D01*
X163835839Y-71007219D01*
X163821700Y-71000041D01*
X163809538Y-70997316D01*
X163805360Y-70997197D01*
X163788539Y-70999448D01*
X163766194Y-71005981D01*
X163737650Y-71017058D01*
X163702232Y-71032939D01*
X163661057Y-71052987D01*
X163545677Y-71105317D01*
X163425595Y-71149124D01*
X163301021Y-71184333D01*
X163281079Y-71189073D01*
X163254014Y-71195139D01*
X163233136Y-71199062D01*
X163215175Y-71201145D01*
X163196857Y-71201693D01*
X163174912Y-71201013D01*
X163160971Y-71200275D01*
X163103280Y-71197014D01*
X163042623Y-71250041D01*
X163016598Y-71273105D01*
X162987938Y-71299013D01*
X162959761Y-71324920D01*
X162935185Y-71347978D01*
X162930399Y-71352550D01*
X162898050Y-71382061D01*
X162869767Y-71404218D01*
X162844154Y-71419770D01*
X162819816Y-71429468D01*
X162795359Y-71434061D01*
X162777608Y-71434643D01*
X162758384Y-71433682D01*
X162745241Y-71431057D01*
X162734503Y-71425693D01*
X162726289Y-71419603D01*
X162713763Y-71407003D01*
X162700850Y-71390064D01*
X162693900Y-71378771D01*
X162686738Y-71364421D01*
X162682171Y-71351056D01*
X162679472Y-71335437D01*
X162677913Y-71314325D01*
X162677536Y-71305871D01*
X162677758Y-71293042D01*
X162701878Y-71293042D01*
X162705041Y-71328845D01*
X162714855Y-71360202D01*
X162731175Y-71385746D01*
X162735098Y-71389928D01*
X162749507Y-71402576D01*
X162761315Y-71407522D01*
X162773325Y-71405205D01*
X162785789Y-71397851D01*
X162794081Y-71391140D01*
X162800933Y-71385045D01*
X162849318Y-71385045D01*
X162854542Y-71382272D01*
X162864858Y-71374385D01*
X162879725Y-71361740D01*
X162898603Y-71344697D01*
X162915957Y-71328394D01*
X162939130Y-71306588D01*
X162964400Y-71283298D01*
X162988778Y-71261253D01*
X163009276Y-71243181D01*
X163010032Y-71242528D01*
X163030568Y-71224472D01*
X163043565Y-71212171D01*
X163049210Y-71205394D01*
X163047686Y-71203910D01*
X163039180Y-71207488D01*
X163037346Y-71208430D01*
X163025561Y-71216185D01*
X163008315Y-71229663D01*
X162986996Y-71247618D01*
X162962993Y-71268804D01*
X162937693Y-71291974D01*
X162912483Y-71315881D01*
X162888752Y-71339279D01*
X162869597Y-71359093D01*
X162856305Y-71373813D01*
X162849725Y-71382345D01*
X162849318Y-71385045D01*
X162800933Y-71385045D01*
X162807926Y-71378824D01*
X162825938Y-71362181D01*
X162846735Y-71342491D01*
X162868934Y-71321032D01*
X162869597Y-71320384D01*
X162894213Y-71296605D01*
X162919763Y-71272408D01*
X162944183Y-71249714D01*
X162965414Y-71230442D01*
X162978860Y-71218656D01*
X163003581Y-71198673D01*
X163024776Y-71184907D01*
X163045262Y-71176419D01*
X163067857Y-71172270D01*
X163095379Y-71171520D01*
X163117509Y-71172424D01*
X163132956Y-71173140D01*
X163147059Y-71173269D01*
X163160928Y-71172554D01*
X163175669Y-71170737D01*
X163192393Y-71167561D01*
X163212205Y-71162768D01*
X163236215Y-71156099D01*
X163265531Y-71147298D01*
X163301260Y-71136107D01*
X163344511Y-71122268D01*
X163373867Y-71112801D01*
X163374469Y-71108439D01*
X163368424Y-71098865D01*
X163361654Y-71090868D01*
X163330056Y-71049445D01*
X163306374Y-71004093D01*
X163291197Y-70956264D01*
X163285114Y-70907414D01*
X163285024Y-70901665D01*
X163309101Y-70901665D01*
X163311569Y-70923855D01*
X163323822Y-70973020D01*
X163342206Y-71016279D01*
X163367972Y-71056195D01*
X163387989Y-71080151D01*
X163399149Y-71091485D01*
X163408877Y-71097550D01*
X163419714Y-71098577D01*
X163434198Y-71094801D01*
X163454870Y-71086456D01*
X163455165Y-71086329D01*
X163461578Y-71083578D01*
X163521819Y-71083578D01*
X163524262Y-71086021D01*
X163526705Y-71083578D01*
X163524262Y-71081136D01*
X163521819Y-71083578D01*
X163461578Y-71083578D01*
X163474862Y-71077879D01*
X163533219Y-71077879D01*
X163533889Y-71080783D01*
X163536476Y-71081136D01*
X163540497Y-71079348D01*
X163539733Y-71077879D01*
X163533935Y-71077294D01*
X163533219Y-71077879D01*
X163474862Y-71077879D01*
X163478895Y-71076149D01*
X163476779Y-71073807D01*
X163546247Y-71073807D01*
X163548690Y-71076250D01*
X163551132Y-71073807D01*
X163548690Y-71071365D01*
X163546247Y-71073807D01*
X163476779Y-71073807D01*
X163471840Y-71068340D01*
X163562648Y-71068340D01*
X163564245Y-71068330D01*
X163574150Y-71064335D01*
X163592209Y-71056357D01*
X163618269Y-71044399D01*
X163618385Y-71044345D01*
X163638091Y-71034965D01*
X163653825Y-71027054D01*
X163663896Y-71021491D01*
X163666710Y-71019205D01*
X163661891Y-71020525D01*
X163650038Y-71025443D01*
X163632865Y-71033206D01*
X163612087Y-71043061D01*
X163609229Y-71044448D01*
X163584987Y-71056401D01*
X163569511Y-71064365D01*
X163562648Y-71068340D01*
X163471840Y-71068340D01*
X163460866Y-71056193D01*
X163427342Y-71012500D01*
X163402140Y-70965247D01*
X163385715Y-70915543D01*
X163378523Y-70864497D01*
X163378243Y-70855179D01*
X163378105Y-70846712D01*
X163404373Y-70846712D01*
X163406422Y-70883454D01*
X163415152Y-70922105D01*
X163429953Y-70960747D01*
X163450211Y-70997465D01*
X163475314Y-71030343D01*
X163480715Y-71036136D01*
X163505645Y-71061978D01*
X163554038Y-71039498D01*
X163597383Y-71019432D01*
X163606680Y-71015181D01*
X163673271Y-71015181D01*
X163675714Y-71017623D01*
X163678157Y-71015181D01*
X163675714Y-71012738D01*
X163673271Y-71015181D01*
X163606680Y-71015181D01*
X163632963Y-71003164D01*
X163661833Y-70990279D01*
X163685046Y-70980365D01*
X163703655Y-70973011D01*
X163718714Y-70967802D01*
X163731276Y-70964326D01*
X163742395Y-70962171D01*
X163753125Y-70960923D01*
X163755000Y-70960771D01*
X163783109Y-70960843D01*
X163809689Y-70966152D01*
X163836929Y-70977462D01*
X163867013Y-70995537D01*
X163879608Y-71004310D01*
X163903393Y-71019754D01*
X163928405Y-71033319D01*
X163950390Y-71042698D01*
X163950449Y-71042719D01*
X163959555Y-71045721D01*
X163968215Y-71048137D01*
X163977576Y-71050029D01*
X163988784Y-71051462D01*
X164002986Y-71052498D01*
X164021329Y-71053200D01*
X164044959Y-71053631D01*
X164075023Y-71053853D01*
X164112667Y-71053931D01*
X164154498Y-71053929D01*
X164210139Y-71053742D01*
X164257467Y-71053201D01*
X164297937Y-71052258D01*
X164333003Y-71050862D01*
X164364118Y-71048963D01*
X164392737Y-71046511D01*
X164403662Y-71045381D01*
X164486465Y-71035347D01*
X164565955Y-71023626D01*
X164640040Y-71010558D01*
X164706630Y-70996483D01*
X164711452Y-70995352D01*
X164753251Y-70985565D01*
X164787114Y-70977917D01*
X164814575Y-70972143D01*
X164837167Y-70967981D01*
X164856427Y-70965168D01*
X164873887Y-70963439D01*
X164891083Y-70962531D01*
X164904431Y-70962235D01*
X164928411Y-70962677D01*
X164952055Y-70964380D01*
X164971366Y-70967015D01*
X164976445Y-70968118D01*
X164997926Y-70971280D01*
X165018389Y-70968851D01*
X165025556Y-70965950D01*
X165083107Y-70965950D01*
X165083698Y-70968579D01*
X165090174Y-70966560D01*
X165097690Y-70961839D01*
X165104012Y-70955687D01*
X165104658Y-70952402D01*
X165099519Y-70953280D01*
X165090510Y-70958841D01*
X165090009Y-70959222D01*
X165083107Y-70965950D01*
X165025556Y-70965950D01*
X165039812Y-70960179D01*
X165064175Y-70944611D01*
X165076820Y-70935029D01*
X165092494Y-70923444D01*
X165106054Y-70914732D01*
X165115134Y-70910378D01*
X165116543Y-70910141D01*
X165125051Y-70914570D01*
X165129638Y-70927544D01*
X165130153Y-70948591D01*
X165129949Y-70951448D01*
X165128100Y-70964709D01*
X165123711Y-70974173D01*
X165114629Y-70983198D01*
X165104818Y-70990694D01*
X165090040Y-71000091D01*
X165076451Y-71006324D01*
X165069421Y-71007852D01*
X165056945Y-71011385D01*
X165048659Y-71017508D01*
X165040894Y-71023826D01*
X165035909Y-71024685D01*
X165029706Y-71025625D01*
X165016817Y-71030687D01*
X164998943Y-71038985D01*
X164977787Y-71049631D01*
X164955053Y-71061739D01*
X164932442Y-71074422D01*
X164911658Y-71086793D01*
X164894404Y-71097966D01*
X164892095Y-71099577D01*
X164860612Y-71123255D01*
X164832724Y-71147047D01*
X164809932Y-71169548D01*
X164793737Y-71189349D01*
X164789908Y-71195375D01*
X164782835Y-71210294D01*
X164775182Y-71230504D01*
X164768544Y-71251770D01*
X164768238Y-71252895D01*
X164757226Y-71288785D01*
X164744190Y-71320549D01*
X164727514Y-71351497D01*
X164705580Y-71384936D01*
X164699649Y-71393289D01*
X164677901Y-71424421D01*
X164658089Y-71454815D01*
X164638987Y-71486562D01*
X164619369Y-71521753D01*
X164598010Y-71562479D01*
X164582317Y-71593499D01*
X164541454Y-71678999D01*
X164506461Y-71761024D01*
X164476126Y-71842829D01*
X164449237Y-71927674D01*
X164425486Y-72015235D01*
X164416353Y-72051956D01*
X164409682Y-72081076D01*
X164405426Y-72104436D01*
X164403536Y-72123880D01*
X164403964Y-72141248D01*
X164406660Y-72158383D01*
X164411577Y-72177126D01*
X164418666Y-72199320D01*
X164420497Y-72204803D01*
X164427009Y-72225261D01*
X164432082Y-72243132D01*
X164434995Y-72255787D01*
X164435418Y-72259434D01*
X164431949Y-72266557D01*
X164422227Y-72279132D01*
X164407279Y-72296097D01*
X164388130Y-72316386D01*
X164365806Y-72338935D01*
X164341335Y-72362678D01*
X164315741Y-72386552D01*
X164294653Y-72405466D01*
X164274179Y-72424904D01*
X164261339Y-72441723D01*
X164255419Y-72458375D01*
X164255703Y-72477316D01*
X164261475Y-72501000D01*
X164264275Y-72509715D01*
X164283482Y-72552524D01*
X164310801Y-72591679D01*
X164344761Y-72625437D01*
X164383893Y-72652058D01*
X164384913Y-72652610D01*
X164401203Y-72661384D01*
X164438403Y-72624856D01*
X164468820Y-72594236D01*
X164498195Y-72563255D01*
X164525479Y-72533126D01*
X164549623Y-72505062D01*
X164569579Y-72480275D01*
X164584296Y-72459979D01*
X164591628Y-72447720D01*
X164600504Y-72427086D01*
X164608084Y-72404455D01*
X164611296Y-72391537D01*
X164616191Y-72368882D01*
X164621921Y-72347308D01*
X164629028Y-72325570D01*
X164638054Y-72302422D01*
X164649542Y-72276619D01*
X164664035Y-72246917D01*
X164682074Y-72212070D01*
X164704203Y-72170832D01*
X164720330Y-72141301D01*
X164775310Y-72037846D01*
X164824863Y-71937899D01*
X164868692Y-71842140D01*
X164906499Y-71751248D01*
X164937988Y-71665902D01*
X164962859Y-71586791D01*
X164965068Y-71579462D01*
X164992371Y-71579462D01*
X164994159Y-71583484D01*
X164995628Y-71582719D01*
X164996213Y-71576921D01*
X164995628Y-71576205D01*
X164992724Y-71576876D01*
X164992371Y-71579462D01*
X164965068Y-71579462D01*
X164970270Y-71562198D01*
X164978488Y-71537388D01*
X164986193Y-71516266D01*
X164989304Y-71508622D01*
X164995934Y-71491618D01*
X165000544Y-71476771D01*
X165002026Y-71468437D01*
X165001005Y-71461028D01*
X164995800Y-71460249D01*
X164989610Y-71462330D01*
X164969448Y-71466740D01*
X164949473Y-71463588D01*
X164929703Y-71454202D01*
X164907703Y-71441309D01*
X164924388Y-71432422D01*
X164937434Y-71427384D01*
X164954802Y-71424493D01*
X164978969Y-71423371D01*
X164983731Y-71423329D01*
X165046899Y-71419642D01*
X165115484Y-71409394D01*
X165173390Y-71396254D01*
X165275733Y-71396254D01*
X165278176Y-71398697D01*
X165280619Y-71396254D01*
X165278176Y-71393811D01*
X165275733Y-71396254D01*
X165173390Y-71396254D01*
X165188003Y-71392938D01*
X165207745Y-71387064D01*
X165305454Y-71387064D01*
X165305594Y-71389213D01*
X165314181Y-71387915D01*
X165330580Y-71383333D01*
X165354159Y-71375632D01*
X165367035Y-71371160D01*
X165392664Y-71361449D01*
X165409404Y-71353553D01*
X165416973Y-71347610D01*
X165417414Y-71346210D01*
X165414290Y-71341255D01*
X165411307Y-71341582D01*
X165374699Y-71356949D01*
X165346516Y-71368859D01*
X165326148Y-71377574D01*
X165312983Y-71383358D01*
X165306412Y-71386473D01*
X165305454Y-71387064D01*
X165207745Y-71387064D01*
X165262972Y-71370632D01*
X165338906Y-71342828D01*
X165364601Y-71332220D01*
X165387281Y-71322650D01*
X165406595Y-71314633D01*
X165420841Y-71308864D01*
X165428317Y-71306040D01*
X165428983Y-71305871D01*
X165431811Y-71310055D01*
X165436741Y-71320922D01*
X165441638Y-71333317D01*
X165447154Y-71348703D01*
X165449209Y-71357687D01*
X165447924Y-71362956D01*
X165443425Y-71367197D01*
X165443210Y-71367361D01*
X165434769Y-71372707D01*
X165430850Y-71374114D01*
X165427835Y-71378344D01*
X165427185Y-71383734D01*
X165423411Y-71391699D01*
X165412945Y-71403845D01*
X165397075Y-71418712D01*
X165394208Y-71421171D01*
X165314083Y-71494067D01*
X165241028Y-71570661D01*
X165176154Y-71649758D01*
X165152580Y-71682059D01*
X165107609Y-71750725D01*
X165063784Y-71826937D01*
X165022255Y-71908469D01*
X164984174Y-71993095D01*
X164958505Y-72057422D01*
X164928449Y-72137210D01*
X164933639Y-72174523D01*
X164938649Y-72206044D01*
X164944324Y-72231072D01*
X164951594Y-72252884D01*
X164961388Y-72274756D01*
X164963012Y-72278006D01*
X164992523Y-72326394D01*
X165031076Y-72373209D01*
X165078027Y-72418168D01*
X165132733Y-72460986D01*
X165194549Y-72501377D01*
X165262832Y-72539059D01*
X165336939Y-72573745D01*
X165416225Y-72605153D01*
X165500046Y-72632997D01*
X165587760Y-72656992D01*
X165678721Y-72676856D01*
X165772287Y-72692302D01*
X165867813Y-72703047D01*
X165935283Y-72707608D01*
X166047700Y-72709558D01*
X166155651Y-72704250D01*
X166258367Y-72691749D01*
X166351446Y-72673011D01*
X166375149Y-72667522D01*
X166395723Y-72663322D01*
X166411163Y-72660781D01*
X166419462Y-72660268D01*
X166419983Y-72660394D01*
X166423550Y-72666082D01*
X166427369Y-72680685D01*
X166431502Y-72704497D01*
X166435424Y-72733106D01*
X166439832Y-72765461D01*
X166445223Y-72801203D01*
X166450903Y-72835916D01*
X166456021Y-72864363D01*
X166460455Y-72887664D01*
X166464125Y-72907390D01*
X166466680Y-72921614D01*
X166467767Y-72928408D01*
X166467782Y-72928635D01*
X166463358Y-72932107D01*
X166451143Y-72937574D01*
X166432780Y-72944481D01*
X166409910Y-72952275D01*
X166384175Y-72960403D01*
X166357219Y-72968312D01*
X166330682Y-72975447D01*
X166323685Y-72977198D01*
X166270486Y-72989047D01*
X166217457Y-72998215D01*
X166162526Y-73004920D01*
X166103618Y-73009378D01*
X166038658Y-73011806D01*
X165986581Y-73012420D01*
X165858036Y-73008963D01*
X165734632Y-72997685D01*
X165615434Y-72978420D01*
X165499510Y-72950999D01*
X165385923Y-72915255D01*
X165331917Y-72895076D01*
X165246337Y-72858342D01*
X165167740Y-72818219D01*
X165096520Y-72775018D01*
X165033071Y-72729047D01*
X164977787Y-72680616D01*
X164931063Y-72630034D01*
X164893292Y-72577611D01*
X164868110Y-72530938D01*
X164851896Y-72495504D01*
X164847629Y-72529703D01*
X164846656Y-72542518D01*
X164845788Y-72563740D01*
X164845050Y-72592006D01*
X164844465Y-72625951D01*
X164844057Y-72664212D01*
X164843851Y-72705425D01*
X164843859Y-72744667D01*
X164844023Y-72792304D01*
X164844276Y-72831574D01*
X164844691Y-72863882D01*
X164845341Y-72890633D01*
X164846297Y-72913231D01*
X164847632Y-72933080D01*
X164849420Y-72951586D01*
X164851732Y-72970152D01*
X164854642Y-72990183D01*
X164857492Y-73008487D01*
X164876252Y-73110656D01*
X164899209Y-73205404D01*
X164926875Y-73294360D01*
X164959765Y-73379152D01*
X164998390Y-73461410D01*
X165002906Y-73470172D01*
X165053360Y-73558285D01*
X165108860Y-73638266D01*
X165169311Y-73710006D01*
X165234617Y-73773393D01*
X165304684Y-73828318D01*
X165319153Y-73838206D01*
X165353544Y-73860227D01*
X165385108Y-73878101D01*
X165417271Y-73893530D01*
X165453460Y-73908212D01*
X165479265Y-73917629D01*
X165501497Y-73925217D01*
X165519079Y-73929956D01*
X165534548Y-73931789D01*
X165550441Y-73930660D01*
X165569294Y-73926510D01*
X165593644Y-73919284D01*
X165607951Y-73914730D01*
X165649139Y-73899971D01*
X165690484Y-73881917D01*
X165732416Y-73860202D01*
X165775365Y-73834462D01*
X165819762Y-73804331D01*
X165866035Y-73769444D01*
X165914617Y-73729434D01*
X165965937Y-73683938D01*
X166020425Y-73632590D01*
X166078511Y-73575024D01*
X166140626Y-73510875D01*
X166207200Y-73439778D01*
X166278663Y-73361367D01*
X166338610Y-73294292D01*
X166361960Y-73267284D01*
X166387048Y-73237116D01*
X166411447Y-73206776D01*
X166432732Y-73179255D01*
X166440718Y-73168489D01*
X166456067Y-73147705D01*
X166469497Y-73130056D01*
X166479934Y-73116912D01*
X166486304Y-73109644D01*
X166487641Y-73108641D01*
X166490203Y-73113031D01*
X166493621Y-73124494D01*
X166496874Y-73139176D01*
X166500076Y-73154558D01*
X166505038Y-73176990D01*
X166511206Y-73204028D01*
X166518026Y-73233227D01*
X166521938Y-73249674D01*
X166528338Y-73277009D01*
X166533830Y-73301643D01*
X166538027Y-73321739D01*
X166540541Y-73335466D01*
X166541092Y-73340301D01*
X166542984Y-73350980D01*
X166545549Y-73355606D01*
X166548831Y-73362095D01*
X166553919Y-73375628D01*
X166559960Y-73393849D01*
X166563142Y-73404217D01*
X166570664Y-73428603D01*
X166576961Y-73444919D01*
X166583495Y-73454489D01*
X166591731Y-73458634D01*
X166603132Y-73458680D01*
X166619161Y-73455949D01*
X166620139Y-73455758D01*
X166648577Y-73448938D01*
X166681655Y-73438976D01*
X166717445Y-73426649D01*
X166754020Y-73412735D01*
X166789454Y-73398011D01*
X166821817Y-73383252D01*
X166849184Y-73369236D01*
X166869626Y-73356741D01*
X166874173Y-73353363D01*
X166887250Y-73343002D01*
X166868712Y-73288112D01*
X166858852Y-73260106D01*
X166847448Y-73229531D01*
X166836233Y-73200966D01*
X166830365Y-73186810D01*
X166820205Y-73161798D01*
X166810086Y-73134863D01*
X166801677Y-73110520D01*
X166799184Y-73102580D01*
X166793295Y-73085025D01*
X166787693Y-73071790D01*
X166783362Y-73065109D01*
X166782487Y-73064717D01*
X166775505Y-73065843D01*
X166761732Y-73068871D01*
X166743824Y-73073209D01*
X166738957Y-73074442D01*
X166706229Y-73081284D01*
X166678611Y-73083955D01*
X166657305Y-73082433D01*
X166643515Y-73076697D01*
X166642852Y-73076128D01*
X166635978Y-73068529D01*
X166633917Y-73064247D01*
X166637868Y-73060632D01*
X166646759Y-73054236D01*
X166698941Y-73054236D01*
X166706235Y-73054566D01*
X166721224Y-73051946D01*
X166743129Y-73046478D01*
X166751963Y-73044004D01*
X166771121Y-73038187D01*
X166782852Y-73033419D01*
X166789228Y-73028460D01*
X166792322Y-73022069D01*
X166792971Y-73019459D01*
X166798150Y-73006659D01*
X166807030Y-72992760D01*
X166808822Y-72990535D01*
X166821675Y-72975260D01*
X166809629Y-72981698D01*
X166800294Y-72987089D01*
X166785606Y-72996011D01*
X166767613Y-73007171D01*
X166748365Y-73019275D01*
X166729909Y-73031029D01*
X166714294Y-73041141D01*
X166703569Y-73048315D01*
X166700117Y-73050854D01*
X166698941Y-73054236D01*
X166646759Y-73054236D01*
X166648908Y-73052690D01*
X166665822Y-73041241D01*
X166687391Y-73027103D01*
X166712399Y-73011095D01*
X166720636Y-73005896D01*
X166747482Y-72988753D01*
X166772196Y-72972498D01*
X166793309Y-72958135D01*
X166809354Y-72946665D01*
X166818862Y-72939092D01*
X166819922Y-72938058D01*
X166831326Y-72922185D01*
X166841014Y-72900120D01*
X166849149Y-72871150D01*
X166855895Y-72834563D01*
X166861414Y-72789645D01*
X166865714Y-72737951D01*
X166868438Y-72700732D01*
X166870934Y-72672227D01*
X166873338Y-72651387D01*
X166875788Y-72637161D01*
X166878420Y-72628499D01*
X166880432Y-72625199D01*
X166885446Y-72614569D01*
X166887750Y-72599344D01*
X166887300Y-72583454D01*
X166884053Y-72570825D01*
X166881076Y-72566708D01*
X166876864Y-72558142D01*
X166873557Y-72540109D01*
X166871198Y-72513590D01*
X166867674Y-72459529D01*
X166864398Y-72413623D01*
X166861210Y-72374266D01*
X166857950Y-72339851D01*
X166854460Y-72308772D01*
X166850581Y-72279421D01*
X166846152Y-72250191D01*
X166843516Y-72234127D01*
X166831346Y-72166464D01*
X166818931Y-72107369D01*
X166805992Y-72055639D01*
X166792251Y-72010071D01*
X166790380Y-72004506D01*
X166775655Y-71952813D01*
X166768367Y-71905364D01*
X166768284Y-71860345D01*
X166770001Y-71844184D01*
X166772546Y-71822178D01*
X166772989Y-71805392D01*
X166771078Y-71789452D01*
X166766562Y-71769982D01*
X166765520Y-71766015D01*
X166749529Y-71710941D01*
X166731520Y-71658107D01*
X166712198Y-71609250D01*
X166692264Y-71566108D01*
X166672423Y-71530419D01*
X166666511Y-71521303D01*
X166659729Y-71510320D01*
X166657286Y-71504233D01*
X166658813Y-71503949D01*
X166688278Y-71522384D01*
X166712397Y-71539090D01*
X166733152Y-71555887D01*
X166752528Y-71574597D01*
X166772508Y-71597041D01*
X166795075Y-71625039D01*
X166805810Y-71638904D01*
X166867957Y-71714390D01*
X166938676Y-71790533D01*
X167016898Y-71866387D01*
X167101557Y-71941007D01*
X167191585Y-72013450D01*
X167285913Y-72082771D01*
X167375485Y-72142918D01*
X167414536Y-72167585D01*
X167446869Y-72186920D01*
X167473669Y-72201335D01*
X167496121Y-72211242D01*
X167515409Y-72217056D01*
X167532719Y-72219189D01*
X167549236Y-72218054D01*
X167566143Y-72214065D01*
X167573127Y-72211815D01*
X167587559Y-72207453D01*
X167597233Y-72206795D01*
X167606435Y-72209842D01*
X167610397Y-72211815D01*
X167624621Y-72217252D01*
X167637656Y-72219470D01*
X167646972Y-72220704D01*
X167650146Y-72223134D01*
X167653845Y-72227885D01*
X167663100Y-72235474D01*
X167667600Y-72238663D01*
X167680642Y-72249821D01*
X167697370Y-72267507D01*
X167716334Y-72289937D01*
X167736085Y-72315326D01*
X167755174Y-72341889D01*
X167771034Y-72366037D01*
X167782959Y-72385020D01*
X167798191Y-72409004D01*
X167814699Y-72434803D01*
X167829275Y-72457411D01*
X167864719Y-72512144D01*
X167934829Y-72462001D01*
X167969472Y-72437684D01*
X168006771Y-72412297D01*
X168044648Y-72387201D01*
X168081023Y-72363752D01*
X168113815Y-72343311D01*
X168140946Y-72327236D01*
X168142295Y-72326470D01*
X168154373Y-72318706D01*
X168161862Y-72312108D01*
X168163059Y-72309795D01*
X168160028Y-72303610D01*
X168151396Y-72290951D01*
X168137910Y-72272770D01*
X168120321Y-72250019D01*
X168099375Y-72223650D01*
X168075822Y-72194615D01*
X168050410Y-72163865D01*
X168023889Y-72132353D01*
X168018972Y-72126577D01*
X167973453Y-72075656D01*
X167928561Y-72030724D01*
X167889505Y-71995697D01*
X167865754Y-71974902D01*
X167837284Y-71949200D01*
X167806272Y-71920602D01*
X167774897Y-71891124D01*
X167745336Y-71862778D01*
X167738053Y-71855682D01*
X167709836Y-71828369D01*
X167679724Y-71799714D01*
X167649764Y-71771630D01*
X167622002Y-71746032D01*
X167598486Y-71724834D01*
X167592453Y-71719522D01*
X167561712Y-71693497D01*
X167524887Y-71663693D01*
X167484062Y-71631691D01*
X167441322Y-71599073D01*
X167398751Y-71567423D01*
X167358433Y-71538324D01*
X167322452Y-71513357D01*
X167310202Y-71505186D01*
X167270457Y-71479862D01*
X167228801Y-71454800D01*
X167186348Y-71430554D01*
X167144213Y-71407681D01*
X167103508Y-71386734D01*
X167065346Y-71368268D01*
X167030841Y-71352839D01*
X167001107Y-71341001D01*
X166977256Y-71333309D01*
X166960402Y-71330319D01*
X166959313Y-71330299D01*
X166939323Y-71327779D01*
X166923996Y-71320948D01*
X166915575Y-71310899D01*
X166914937Y-71308698D01*
X166914207Y-71300901D01*
X166913379Y-71284956D01*
X166912513Y-71262485D01*
X166911669Y-71235108D01*
X166910909Y-71204447D01*
X166910728Y-71195946D01*
X166908481Y-71134608D01*
X166904157Y-71079876D01*
X166897355Y-71028732D01*
X166887673Y-70978155D01*
X166874709Y-70925125D01*
X166874621Y-70924798D01*
X166868309Y-70900279D01*
X166862201Y-70875071D01*
X166857319Y-70853443D01*
X166856041Y-70847263D01*
X166851303Y-70828666D01*
X166845332Y-70812202D01*
X166840598Y-70803293D01*
X166834285Y-70792720D01*
X166825885Y-70776265D01*
X166816997Y-70757098D01*
X166815107Y-70752768D01*
X166805785Y-70728317D01*
X166801739Y-70708812D01*
X166801949Y-70704946D01*
X166829036Y-70704946D01*
X166830607Y-70716960D01*
X166833783Y-70729208D01*
X166837729Y-70738722D01*
X166841612Y-70742533D01*
X166842790Y-70741982D01*
X166844659Y-70736414D01*
X166847703Y-70723405D01*
X166851438Y-70705144D01*
X166853968Y-70691696D01*
X166857516Y-70671402D01*
X166860087Y-70655094D01*
X166861362Y-70644886D01*
X166861343Y-70642520D01*
X166856374Y-70643061D01*
X166847117Y-70646064D01*
X166837995Y-70651550D01*
X166834536Y-70660890D01*
X166834225Y-70667867D01*
X166832951Y-70683178D01*
X166829905Y-70696134D01*
X166829036Y-70704946D01*
X166801949Y-70704946D01*
X166802699Y-70691154D01*
X166808164Y-70672845D01*
X166807829Y-70669233D01*
X166802323Y-70667086D01*
X166790021Y-70666075D01*
X166773679Y-70665863D01*
X166736514Y-70665863D01*
X166736514Y-70651881D01*
X166737030Y-70644267D01*
X166740056Y-70639772D01*
X166747812Y-70637172D01*
X166762518Y-70635242D01*
X166767616Y-70634713D01*
X166798101Y-70630767D01*
X166821980Y-70625130D01*
X166827645Y-70622676D01*
X166888653Y-70622676D01*
X166889809Y-70626158D01*
X166898107Y-70623913D01*
X166908516Y-70618930D01*
X166918122Y-70612449D01*
X166932628Y-70600842D01*
X166949963Y-70585831D01*
X166965785Y-70571296D01*
X166981139Y-70556988D01*
X166994259Y-70545617D01*
X167006870Y-70536177D01*
X167020697Y-70527661D01*
X167037464Y-70519065D01*
X167058895Y-70509382D01*
X167086715Y-70497605D01*
X167105374Y-70489868D01*
X167161119Y-70464480D01*
X167221482Y-70432766D01*
X167284733Y-70395827D01*
X167349143Y-70354762D01*
X167412981Y-70310675D01*
X167474517Y-70264666D01*
X167529878Y-70219661D01*
X167556648Y-70196428D01*
X167585162Y-70170868D01*
X167613862Y-70144451D01*
X167641189Y-70118646D01*
X167665585Y-70094923D01*
X167685491Y-70074753D01*
X167698200Y-70060942D01*
X167722397Y-70033011D01*
X167687476Y-70049586D01*
X167665914Y-70060945D01*
X167642179Y-70075756D01*
X167615308Y-70094728D01*
X167584337Y-70118570D01*
X167548302Y-70147994D01*
X167510875Y-70179723D01*
X167428910Y-70248026D01*
X167347939Y-70311366D01*
X167268762Y-70369194D01*
X167192179Y-70420961D01*
X167118991Y-70466119D01*
X167049997Y-70504118D01*
X167007662Y-70524773D01*
X166975976Y-70540612D01*
X166950780Y-70556501D01*
X166929033Y-70574647D01*
X166907718Y-70597223D01*
X166894627Y-70613140D01*
X166888653Y-70622676D01*
X166827645Y-70622676D01*
X166842060Y-70616431D01*
X166861147Y-70603298D01*
X166882047Y-70584361D01*
X166892852Y-70573518D01*
X166909010Y-70557294D01*
X166922716Y-70544625D01*
X166936043Y-70534084D01*
X166951059Y-70524241D01*
X166969836Y-70513667D01*
X166994445Y-70500932D01*
X167007662Y-70494272D01*
X167087338Y-70451919D01*
X167165941Y-70405237D01*
X167244687Y-70353389D01*
X167324796Y-70295538D01*
X167407484Y-70230845D01*
X167486556Y-70164844D01*
X167527476Y-70130167D01*
X167562378Y-70101551D01*
X167592262Y-70078259D01*
X167618127Y-70059551D01*
X167640971Y-70044688D01*
X167661795Y-70032932D01*
X167671504Y-70028111D01*
X167697245Y-70013407D01*
X167720597Y-69995489D01*
X167739378Y-69976322D01*
X167751406Y-69957872D01*
X167752597Y-69955015D01*
X167758419Y-69938947D01*
X167760349Y-69930098D01*
X167758095Y-69926606D01*
X167751371Y-69926609D01*
X167748256Y-69927039D01*
X167731130Y-69926565D01*
X167712218Y-69921777D01*
X167696277Y-69914080D01*
X167691595Y-69910303D01*
X167685391Y-69898036D01*
X167685339Y-69890606D01*
X167706297Y-69890606D01*
X167720953Y-69896999D01*
X167738202Y-69900967D01*
X167759819Y-69899044D01*
X167772891Y-69895879D01*
X167778497Y-69890389D01*
X167783331Y-69879873D01*
X167785950Y-69868650D01*
X167784909Y-69861043D01*
X167784640Y-69860735D01*
X167778345Y-69860280D01*
X167766077Y-69862974D01*
X167750743Y-69867887D01*
X167735247Y-69874090D01*
X167722635Y-69880568D01*
X167706297Y-69890606D01*
X167685339Y-69890606D01*
X167685285Y-69883019D01*
X167691122Y-69870009D01*
X167692994Y-69868061D01*
X167712760Y-69855053D01*
X167741532Y-69843387D01*
X167778609Y-69833301D01*
X167818665Y-69825743D01*
X167866223Y-69817910D01*
X167904130Y-69810887D01*
X167932349Y-69804679D01*
X167939829Y-69802729D01*
X167943866Y-69800401D01*
X167942914Y-69795727D01*
X167936193Y-69786992D01*
X167929113Y-69779138D01*
X167903429Y-69744559D01*
X167883588Y-69704001D01*
X167869915Y-69659479D01*
X167862736Y-69613010D01*
X167862457Y-69577213D01*
X167888369Y-69577213D01*
X167890224Y-69621482D01*
X167899059Y-69665437D01*
X167914510Y-69707139D01*
X167936211Y-69744650D01*
X167959073Y-69771572D01*
X167973059Y-69784059D01*
X167984709Y-69792233D01*
X167991953Y-69794649D01*
X167992101Y-69794612D01*
X168000448Y-69792215D01*
X168014863Y-69788095D01*
X168029872Y-69783815D01*
X168060315Y-69775142D01*
X168041142Y-69754342D01*
X168016280Y-69720984D01*
X167996740Y-69681722D01*
X167982838Y-69638543D01*
X167974893Y-69593436D01*
X167974264Y-69576496D01*
X167999704Y-69576496D01*
X168004473Y-69614700D01*
X168014256Y-69652233D01*
X168029000Y-69687618D01*
X168048656Y-69719378D01*
X168063498Y-69736818D01*
X168078138Y-69751042D01*
X168088356Y-69758540D01*
X168095688Y-69760331D01*
X168098043Y-69759725D01*
X168107065Y-69756312D01*
X168122001Y-69750903D01*
X168127354Y-69749008D01*
X168203809Y-69749008D01*
X168204480Y-69751912D01*
X168207066Y-69752265D01*
X168211088Y-69750477D01*
X168210323Y-69749008D01*
X168204525Y-69748423D01*
X168203809Y-69749008D01*
X168127354Y-69749008D01*
X168138668Y-69745003D01*
X168141110Y-69744122D01*
X168218466Y-69744122D01*
X168219136Y-69747027D01*
X168221723Y-69747379D01*
X168225744Y-69745592D01*
X168224980Y-69744122D01*
X168219182Y-69743537D01*
X168218466Y-69744122D01*
X168141110Y-69744122D01*
X168152393Y-69740051D01*
X168231494Y-69740051D01*
X168233937Y-69742494D01*
X168236380Y-69740051D01*
X168233937Y-69737608D01*
X168231494Y-69740051D01*
X168152393Y-69740051D01*
X168152651Y-69739958D01*
X168167811Y-69734351D01*
X168242894Y-69734351D01*
X168243564Y-69737255D01*
X168246151Y-69737608D01*
X168250172Y-69735820D01*
X168249408Y-69734351D01*
X168243610Y-69733766D01*
X168242894Y-69734351D01*
X168167811Y-69734351D01*
X168173914Y-69732094D01*
X168174946Y-69731708D01*
X168256897Y-69731708D01*
X168258365Y-69732573D01*
X168266393Y-69730140D01*
X168270578Y-69727837D01*
X168274489Y-69723966D01*
X168273021Y-69723101D01*
X168264992Y-69725534D01*
X168260807Y-69727837D01*
X168256897Y-69731708D01*
X168174946Y-69731708D01*
X168200620Y-69722102D01*
X168207004Y-69719694D01*
X168281978Y-69719694D01*
X168282649Y-69722599D01*
X168285235Y-69722951D01*
X168289256Y-69721164D01*
X168288492Y-69719694D01*
X168282694Y-69719110D01*
X168281978Y-69719694D01*
X168207004Y-69719694D01*
X168230929Y-69710669D01*
X168263004Y-69698486D01*
X168275464Y-69693730D01*
X168349852Y-69665293D01*
X168411757Y-69665293D01*
X168414917Y-69664603D01*
X168423135Y-69660412D01*
X168425395Y-69659200D01*
X168440668Y-69649218D01*
X168457533Y-69635607D01*
X168466718Y-69626952D01*
X168477798Y-69614965D01*
X168482031Y-69608260D01*
X168480013Y-69605781D01*
X168478696Y-69605698D01*
X168471493Y-69608986D01*
X168459601Y-69617799D01*
X168445041Y-69630559D01*
X168437373Y-69637947D01*
X168422512Y-69652805D01*
X168414131Y-69661640D01*
X168411757Y-69665293D01*
X168349852Y-69665293D01*
X168380503Y-69653576D01*
X168414934Y-69620321D01*
X168440942Y-69597869D01*
X168464218Y-69583810D01*
X168485971Y-69577596D01*
X168507187Y-69578634D01*
X168516631Y-69580483D01*
X168526601Y-69582143D01*
X168538660Y-69583797D01*
X168554371Y-69585628D01*
X168575297Y-69587820D01*
X168603002Y-69590557D01*
X168634552Y-69593593D01*
X168667953Y-69597031D01*
X168703547Y-69601107D01*
X168737826Y-69605395D01*
X168767284Y-69609466D01*
X168776964Y-69610944D01*
X168807311Y-69615591D01*
X168830524Y-69618483D01*
X168849089Y-69619571D01*
X168865492Y-69618805D01*
X168882221Y-69616137D01*
X168901762Y-69611517D01*
X168914200Y-69608236D01*
X168952791Y-69596237D01*
X168985067Y-69582775D01*
X169009767Y-69568441D01*
X169022412Y-69557635D01*
X169028771Y-69550031D01*
X169031618Y-69542807D01*
X169031443Y-69532677D01*
X169028737Y-69516354D01*
X169028645Y-69515861D01*
X169015571Y-69471792D01*
X168993542Y-69431050D01*
X168962884Y-69393912D01*
X168923925Y-69360650D01*
X168876991Y-69331539D01*
X168822408Y-69306853D01*
X168760504Y-69286867D01*
X168753886Y-69285128D01*
X168733747Y-69280128D01*
X168717098Y-69276698D01*
X168701395Y-69274630D01*
X168684099Y-69273715D01*
X168662664Y-69273745D01*
X168634551Y-69274511D01*
X168627510Y-69274747D01*
X168576175Y-69277516D01*
X168533031Y-69282334D01*
X168496621Y-69289696D01*
X168465491Y-69300093D01*
X168438185Y-69314017D01*
X168413246Y-69331963D01*
X168389220Y-69354422D01*
X168387832Y-69355865D01*
X168351190Y-69394150D01*
X168250775Y-69399985D01*
X168195891Y-69403682D01*
X168149141Y-69407900D01*
X168110875Y-69412594D01*
X168081440Y-69417714D01*
X168061186Y-69423214D01*
X168052835Y-69427147D01*
X168031775Y-69446534D01*
X168015984Y-69472641D01*
X168005408Y-69503988D01*
X167999999Y-69539099D01*
X167999704Y-69576496D01*
X167974264Y-69576496D01*
X167973220Y-69548386D01*
X167978137Y-69505382D01*
X167989961Y-69466411D01*
X167993847Y-69457910D01*
X167999803Y-69444564D01*
X168000831Y-69436961D01*
X167995873Y-69434545D01*
X167983874Y-69436762D01*
X167964880Y-69442692D01*
X167942338Y-69452326D01*
X167925880Y-69465352D01*
X167912669Y-69484361D01*
X167907062Y-69495485D01*
X167893860Y-69534568D01*
X167888369Y-69577213D01*
X167862457Y-69577213D01*
X167862374Y-69566608D01*
X167869156Y-69522291D01*
X167881801Y-69485488D01*
X167893202Y-69460547D01*
X167855933Y-69472301D01*
X167821938Y-69483764D01*
X167785155Y-69497436D01*
X167747604Y-69512456D01*
X167711303Y-69527962D01*
X167678270Y-69543091D01*
X167650523Y-69556982D01*
X167630154Y-69568726D01*
X167611703Y-69581176D01*
X167588336Y-69597676D01*
X167562822Y-69616235D01*
X167537926Y-69634865D01*
X167533615Y-69638156D01*
X167508545Y-69656844D01*
X167481707Y-69675990D01*
X167456087Y-69693515D01*
X167434670Y-69707336D01*
X167432018Y-69708953D01*
X167403038Y-69726878D01*
X167370297Y-69747850D01*
X167335650Y-69770616D01*
X167300949Y-69793925D01*
X167268049Y-69816524D01*
X167238803Y-69837161D01*
X167215066Y-69854583D01*
X167205527Y-69861946D01*
X167160737Y-69898785D01*
X167114047Y-69939639D01*
X167067035Y-69982969D01*
X167021284Y-70027236D01*
X166978372Y-70070902D01*
X166939880Y-70112429D01*
X166907388Y-70150277D01*
X166900072Y-70159382D01*
X166881593Y-70182647D01*
X166868057Y-70199272D01*
X166858437Y-70210351D01*
X166851704Y-70216978D01*
X166846831Y-70220247D01*
X166842789Y-70221252D01*
X166841883Y-70221278D01*
X166838251Y-70220757D01*
X166835289Y-70218205D01*
X166832495Y-70212135D01*
X166829365Y-70201064D01*
X166825396Y-70183506D01*
X166820085Y-70157975D01*
X166819542Y-70155323D01*
X166814924Y-70134750D01*
X166810419Y-70118114D01*
X166806644Y-70107522D01*
X166804785Y-70104839D01*
X166801123Y-70099297D01*
X166800026Y-70091404D01*
X166799399Y-70082407D01*
X166798256Y-70079597D01*
X166793214Y-70081321D01*
X166781521Y-70085876D01*
X166765545Y-70092336D01*
X166762835Y-70093449D01*
X166721449Y-70107805D01*
X166673873Y-70119856D01*
X166623013Y-70129173D01*
X166571774Y-70135326D01*
X166523061Y-70137885D01*
X166479779Y-70136422D01*
X166475260Y-70135974D01*
X166458690Y-70133866D01*
X166446687Y-70130776D01*
X166436203Y-70125169D01*
X166424187Y-70115511D01*
X166411478Y-70103888D01*
X166390141Y-70085551D01*
X166368454Y-70070559D01*
X166343577Y-70057236D01*
X166312669Y-70043906D01*
X166304143Y-70040561D01*
X166285368Y-70033043D01*
X166274402Y-70027387D01*
X166269882Y-70022085D01*
X166270445Y-70015629D01*
X166272717Y-70010734D01*
X166304279Y-70010734D01*
X166323753Y-70018602D01*
X166357829Y-70033522D01*
X166385159Y-70048392D01*
X166408607Y-70064933D01*
X166425824Y-70079897D01*
X166441085Y-70093830D01*
X166452194Y-70102382D01*
X166461999Y-70106989D01*
X166473345Y-70109090D01*
X166485242Y-70109922D01*
X166544404Y-70109936D01*
X166609124Y-70103825D01*
X166643171Y-70098582D01*
X166668397Y-70093725D01*
X166692816Y-70088103D01*
X166713194Y-70082508D01*
X166723783Y-70078846D01*
X166751299Y-70067366D01*
X166770784Y-70058414D01*
X166783368Y-70051119D01*
X166790182Y-70044613D01*
X166792357Y-70038025D01*
X166791023Y-70030488D01*
X166790093Y-70027871D01*
X166787075Y-70014205D01*
X166787479Y-70003458D01*
X166793228Y-69993314D01*
X166805504Y-69979283D01*
X166822665Y-69962832D01*
X166843064Y-69945428D01*
X166865057Y-69928538D01*
X166886999Y-69913629D01*
X166890933Y-69911198D01*
X166966862Y-69861030D01*
X167037510Y-69806193D01*
X167073328Y-69774591D01*
X167098579Y-69750889D01*
X167116835Y-69732974D01*
X167128560Y-69720322D01*
X167134221Y-69712412D01*
X167134283Y-69708721D01*
X167132400Y-69708295D01*
X167126406Y-69703730D01*
X167120823Y-69691319D01*
X167116187Y-69672986D01*
X167113031Y-69650655D01*
X167112032Y-69635011D01*
X167112816Y-69627434D01*
X167115128Y-69612563D01*
X167118592Y-69592691D01*
X167122015Y-69574336D01*
X167126133Y-69552556D01*
X167129458Y-69534389D01*
X167131614Y-69521933D01*
X167132244Y-69517413D01*
X167128515Y-69518287D01*
X167118542Y-69523656D01*
X167104147Y-69532498D01*
X167096824Y-69537264D01*
X167080029Y-69547870D01*
X167057084Y-69561662D01*
X167030445Y-69577200D01*
X167002565Y-69593042D01*
X166988120Y-69601072D01*
X166922415Y-69638174D01*
X166860720Y-69675025D01*
X166798782Y-69714211D01*
X166756966Y-69741769D01*
X166733724Y-69757101D01*
X166704405Y-69776150D01*
X166670831Y-69797757D01*
X166634821Y-69820766D01*
X166598196Y-69844022D01*
X166562777Y-69866367D01*
X166530382Y-69886645D01*
X166502833Y-69903700D01*
X166484908Y-69914606D01*
X166470487Y-69922898D01*
X166449583Y-69934438D01*
X166424414Y-69948024D01*
X166397199Y-69962453D01*
X166379937Y-69971470D01*
X166304279Y-70010734D01*
X166272717Y-70010734D01*
X166274236Y-70007461D01*
X166281461Y-69998166D01*
X166294538Y-69988015D01*
X166314827Y-69976033D01*
X166327171Y-69969527D01*
X166399673Y-69930733D01*
X166478513Y-69885611D01*
X166562976Y-69834594D01*
X166652343Y-69778114D01*
X166736514Y-69722875D01*
X166773618Y-69698319D01*
X166806886Y-69676808D01*
X166838586Y-69656963D01*
X166870982Y-69637402D01*
X166906340Y-69616745D01*
X166946926Y-69593613D01*
X166970253Y-69580482D01*
X167000376Y-69563345D01*
X167029695Y-69546243D01*
X167056402Y-69530262D01*
X167078691Y-69516487D01*
X167094754Y-69506005D01*
X167098045Y-69503696D01*
X167116037Y-69490982D01*
X167133631Y-69478973D01*
X167147241Y-69470113D01*
X167148080Y-69469595D01*
X167166358Y-69458387D01*
X167163494Y-69481966D01*
X167161516Y-69496513D01*
X167158382Y-69517618D01*
X167154558Y-69542204D01*
X167151322Y-69562271D01*
X167145432Y-69603524D01*
X167142620Y-69636527D01*
X167142881Y-69661036D01*
X167146207Y-69676809D01*
X167152593Y-69683600D01*
X167154579Y-69683867D01*
X167162928Y-69680906D01*
X167163886Y-69680363D01*
X167217741Y-69680363D01*
X167218088Y-69683084D01*
X167225892Y-69683597D01*
X167239169Y-69682225D01*
X167255939Y-69679286D01*
X167274218Y-69675102D01*
X167292025Y-69669993D01*
X167300864Y-69666919D01*
X167351499Y-69642761D01*
X167399379Y-69609744D01*
X167443943Y-69568530D01*
X167484632Y-69519781D01*
X167520887Y-69464158D01*
X167552148Y-69402325D01*
X167575562Y-69341878D01*
X167574273Y-69342498D01*
X167568821Y-69350053D01*
X167560167Y-69363156D01*
X167553235Y-69374066D01*
X167521440Y-69419529D01*
X167487414Y-69457492D01*
X167452833Y-69487420D01*
X167438905Y-69498654D01*
X167419779Y-69514802D01*
X167397441Y-69534153D01*
X167373873Y-69554996D01*
X167359422Y-69568001D01*
X167335467Y-69589223D01*
X167310801Y-69610212D01*
X167287610Y-69629167D01*
X167268082Y-69644283D01*
X167259269Y-69650599D01*
X167242431Y-69662242D01*
X167228474Y-69672168D01*
X167219537Y-69678845D01*
X167217741Y-69680363D01*
X167163886Y-69680363D01*
X167177474Y-69672661D01*
X167196899Y-69660088D01*
X167219882Y-69644145D01*
X167245102Y-69625787D01*
X167271240Y-69605972D01*
X167296975Y-69585655D01*
X167320986Y-69565794D01*
X167337842Y-69551080D01*
X167361938Y-69529584D01*
X167387037Y-69507510D01*
X167410752Y-69486933D01*
X167430701Y-69469931D01*
X167437793Y-69464017D01*
X167477988Y-69427029D01*
X167510812Y-69387856D01*
X167538633Y-69343573D01*
X167544598Y-69332311D01*
X167564100Y-69291034D01*
X167579003Y-69251196D01*
X167589693Y-69210773D01*
X167596559Y-69167736D01*
X167599987Y-69120058D01*
X167600367Y-69065713D01*
X167599815Y-69043622D01*
X167598661Y-69010517D01*
X167597425Y-68985156D01*
X167595847Y-68965517D01*
X167593662Y-68949575D01*
X167590608Y-68935306D01*
X167586422Y-68920687D01*
X167582148Y-68907578D01*
X167556609Y-68842511D01*
X167525375Y-68783961D01*
X167487102Y-68729696D01*
X167448443Y-68685704D01*
X167416556Y-68652438D01*
X167405949Y-68596336D01*
X167396161Y-68550644D01*
X167384779Y-68510639D01*
X167370473Y-68472240D01*
X167352785Y-68433165D01*
X167341276Y-68409960D01*
X167328368Y-68384894D01*
X167314992Y-68359664D01*
X167302077Y-68335972D01*
X167290552Y-68315516D01*
X167281348Y-68299996D01*
X167275393Y-68291111D01*
X167274578Y-68290182D01*
X167272383Y-68288247D01*
X167270458Y-68286552D01*
X167269097Y-68284562D01*
X167268591Y-68281744D01*
X167269231Y-68277562D01*
X167271310Y-68271482D01*
X167275119Y-68262970D01*
X167280951Y-68251491D01*
X167289096Y-68236511D01*
X167299847Y-68217494D01*
X167313496Y-68193907D01*
X167330334Y-68165215D01*
X167350654Y-68130883D01*
X167374747Y-68090377D01*
X167402905Y-68043162D01*
X167435420Y-67988705D01*
X167472583Y-67926469D01*
X167479253Y-67915296D01*
X167536693Y-67819961D01*
X167590621Y-67732382D01*
X167641761Y-67651512D01*
X167690834Y-67576301D01*
X167738564Y-67505700D01*
X167785674Y-67438661D01*
X167832888Y-67374134D01*
X167880927Y-67311071D01*
X167930515Y-67248423D01*
X167982375Y-67185141D01*
X167983300Y-67184029D01*
X168060734Y-67093979D01*
X168145661Y-67000646D01*
X168236910Y-66905261D01*
X168333308Y-66809052D01*
X168416217Y-66729619D01*
X168436630Y-66710609D01*
X168461605Y-66687664D01*
X168490408Y-66661434D01*
X168522307Y-66632569D01*
X168556572Y-66601718D01*
X168592470Y-66569529D01*
X168629269Y-66536653D01*
X168666237Y-66503738D01*
X168702643Y-66471434D01*
X168737754Y-66440390D01*
X168770839Y-66411255D01*
X168801165Y-66384679D01*
X168828002Y-66361310D01*
X168850617Y-66341799D01*
X168868277Y-66326794D01*
X168880252Y-66316945D01*
X168885809Y-66312900D01*
X168886036Y-66312834D01*
X168890743Y-66308787D01*
X168897580Y-66298366D01*
X168902668Y-66288690D01*
X168909590Y-66272332D01*
X168911950Y-66259217D01*
X168910543Y-66244413D01*
X168910143Y-66242207D01*
X168905858Y-66223860D01*
X168899731Y-66209145D01*
X168889924Y-66194686D01*
X168874836Y-66177365D01*
X168848815Y-66154227D01*
X168821717Y-66140437D01*
X168792699Y-66135575D01*
X168790778Y-66135558D01*
X168766728Y-66138124D01*
X168743271Y-66146389D01*
X168718770Y-66161203D01*
X168691588Y-66183415D01*
X168682622Y-66191689D01*
X168663744Y-66209146D01*
X168640319Y-66230286D01*
X168615273Y-66252494D01*
X168591530Y-66273156D01*
X168590582Y-66273970D01*
X168565197Y-66296018D01*
X168536300Y-66321506D01*
X168507527Y-66347209D01*
X168483496Y-66368999D01*
X168459597Y-66390710D01*
X168433435Y-66414176D01*
X168408101Y-66436642D01*
X168386684Y-66455351D01*
X168385784Y-66456127D01*
X168361722Y-66477387D01*
X168332088Y-66504391D01*
X168298159Y-66535913D01*
X168261213Y-66570728D01*
X168222525Y-66607609D01*
X168183373Y-66645330D01*
X168145033Y-66682666D01*
X168108782Y-66718391D01*
X168075896Y-66751279D01*
X168047653Y-66780103D01*
X168038938Y-66789176D01*
X167892209Y-66949982D01*
X167752727Y-67117307D01*
X167620400Y-67291263D01*
X167558888Y-67377885D01*
X167532639Y-67416091D01*
X167506295Y-67455284D01*
X167479257Y-67496410D01*
X167450930Y-67540412D01*
X167420716Y-67588236D01*
X167388018Y-67640825D01*
X167352239Y-67699125D01*
X167312783Y-67764080D01*
X167271690Y-67832242D01*
X167246601Y-67873969D01*
X167222883Y-67913391D01*
X167201043Y-67949667D01*
X167181585Y-67981959D01*
X167165018Y-68009427D01*
X167151845Y-68031232D01*
X167142575Y-68046533D01*
X167137713Y-68054492D01*
X167137269Y-68055199D01*
X167134640Y-68060711D01*
X167134680Y-68066886D01*
X167138109Y-68075623D01*
X167145648Y-68088826D01*
X167156615Y-68106207D01*
X167173722Y-68134729D01*
X167192042Y-68168442D01*
X167210459Y-68204991D01*
X167227856Y-68242023D01*
X167243117Y-68277185D01*
X167255125Y-68308125D01*
X167261172Y-68326606D01*
X167278090Y-68399956D01*
X167286164Y-68473365D01*
X167286189Y-68540647D01*
X167284740Y-68565904D01*
X167282712Y-68588689D01*
X167279748Y-68611103D01*
X167275493Y-68635244D01*
X167269593Y-68663215D01*
X167261691Y-68697116D01*
X167255183Y-68723855D01*
X167251346Y-68735656D01*
X167244294Y-68754041D01*
X167234991Y-68776763D01*
X167224404Y-68801576D01*
X167213495Y-68826231D01*
X167203230Y-68848482D01*
X167194574Y-68866081D01*
X167192269Y-68870422D01*
X167186739Y-68879419D01*
X167176734Y-68894626D01*
X167163436Y-68914284D01*
X167148030Y-68936637D01*
X167138973Y-68949603D01*
X167111497Y-68986215D01*
X167079949Y-69023972D01*
X167045708Y-69061528D01*
X167010150Y-69097537D01*
X166974653Y-69130654D01*
X166940594Y-69159531D01*
X166909351Y-69182824D01*
X166885002Y-69197782D01*
X166868415Y-69207849D01*
X166849952Y-69220857D01*
X166840110Y-69228619D01*
X166823216Y-69241587D01*
X166805406Y-69253438D01*
X166789125Y-69262710D01*
X166776822Y-69267945D01*
X166773126Y-69268595D01*
X166766859Y-69270927D01*
X166754476Y-69277153D01*
X166738224Y-69286116D01*
X166731224Y-69290161D01*
X166709825Y-69301749D01*
X166687118Y-69312562D01*
X166667528Y-69320513D01*
X166665060Y-69321354D01*
X166644893Y-69328683D01*
X166624641Y-69337152D01*
X166614064Y-69342199D01*
X166599803Y-69348449D01*
X166579406Y-69355969D01*
X166556197Y-69363574D01*
X166543535Y-69367335D01*
X166487274Y-69383013D01*
X166438164Y-69395756D01*
X166394130Y-69405850D01*
X166353099Y-69413584D01*
X166312997Y-69419243D01*
X166271750Y-69423116D01*
X166227283Y-69425490D01*
X166177524Y-69426651D01*
X166120398Y-69426887D01*
X166113606Y-69426868D01*
X166072588Y-69426687D01*
X166039690Y-69426359D01*
X166013263Y-69425771D01*
X165991655Y-69424813D01*
X165973215Y-69423372D01*
X165956294Y-69421337D01*
X165939241Y-69418595D01*
X165920406Y-69415035D01*
X165910855Y-69413126D01*
X165853817Y-69400690D01*
X165799675Y-69387093D01*
X165751335Y-69373082D01*
X165735915Y-69368081D01*
X165714871Y-69360388D01*
X165689794Y-69350251D01*
X165663071Y-69338741D01*
X165637087Y-69326929D01*
X165614230Y-69315885D01*
X165596885Y-69306681D01*
X165590852Y-69302987D01*
X165573388Y-69292088D01*
X165554471Y-69281382D01*
X165550238Y-69279171D01*
X165534941Y-69270124D01*
X165514169Y-69256107D01*
X165489818Y-69238571D01*
X165463780Y-69218962D01*
X165437950Y-69198730D01*
X165414223Y-69179321D01*
X165394491Y-69162186D01*
X165383215Y-69151455D01*
X165335587Y-69097046D01*
X165292215Y-69035748D01*
X165254629Y-68970053D01*
X165224357Y-68902454D01*
X165215414Y-68877750D01*
X165197709Y-68811651D01*
X165187143Y-68740167D01*
X165183808Y-68668636D01*
X165208193Y-68668636D01*
X165213446Y-68744102D01*
X165227088Y-68818996D01*
X165248753Y-68891530D01*
X165278072Y-68959911D01*
X165292191Y-68986280D01*
X165306971Y-69010075D01*
X165325883Y-69037364D01*
X165347326Y-69066113D01*
X165369694Y-69094291D01*
X165391385Y-69119865D01*
X165410794Y-69140801D01*
X165423586Y-69152832D01*
X165442388Y-69168249D01*
X165464608Y-69185664D01*
X165488432Y-69203741D01*
X165512046Y-69221147D01*
X165533636Y-69236546D01*
X165551388Y-69248602D01*
X165563490Y-69255980D01*
X165564180Y-69256339D01*
X165577749Y-69263670D01*
X165595159Y-69273635D01*
X165607951Y-69281248D01*
X165634797Y-69295871D01*
X165668436Y-69311618D01*
X165706153Y-69327368D01*
X165745231Y-69342000D01*
X165782954Y-69354393D01*
X165790839Y-69356718D01*
X165819511Y-69364476D01*
X165851013Y-69372160D01*
X165883581Y-69379427D01*
X165915450Y-69385932D01*
X165944856Y-69391333D01*
X165970036Y-69395286D01*
X165989223Y-69397448D01*
X166000389Y-69397516D01*
X166016762Y-69397416D01*
X166030551Y-69400004D01*
X166041769Y-69401792D01*
X166061101Y-69402901D01*
X166086917Y-69403372D01*
X166117588Y-69403245D01*
X166151482Y-69402561D01*
X166186970Y-69401359D01*
X166222421Y-69399680D01*
X166256205Y-69397564D01*
X166286693Y-69395051D01*
X166303748Y-69393251D01*
X166346863Y-69387304D01*
X166390305Y-69379726D01*
X166431439Y-69371061D01*
X166467627Y-69361858D01*
X166491925Y-69354235D01*
X166509154Y-69348760D01*
X166530235Y-69342907D01*
X166543652Y-69339585D01*
X166563845Y-69333552D01*
X166587225Y-69324603D01*
X166607476Y-69315286D01*
X166624503Y-69306990D01*
X166638744Y-69300852D01*
X166647527Y-69298007D01*
X166648318Y-69297932D01*
X166656705Y-69295616D01*
X166671830Y-69289296D01*
X166691979Y-69279868D01*
X166715435Y-69268226D01*
X166740482Y-69255267D01*
X166765406Y-69241886D01*
X166788491Y-69228979D01*
X166808022Y-69217440D01*
X166822282Y-69208167D01*
X166826752Y-69204782D01*
X166843286Y-69192095D01*
X166860411Y-69180543D01*
X166870569Y-69174675D01*
X166893122Y-69160876D01*
X166920906Y-69139984D01*
X166953164Y-69112633D01*
X166989138Y-69079452D01*
X167015482Y-69053739D01*
X167046688Y-69020759D01*
X167077892Y-68984340D01*
X167107777Y-68946273D01*
X167135030Y-68908350D01*
X167158335Y-68872363D01*
X167176378Y-68840104D01*
X167183546Y-68824688D01*
X167193074Y-68802771D01*
X167203250Y-68780426D01*
X167212007Y-68762180D01*
X167212680Y-68760843D01*
X167221010Y-68741285D01*
X167228672Y-68718112D01*
X167232636Y-68702486D01*
X167237406Y-68680925D01*
X167243408Y-68655418D01*
X167249349Y-68631459D01*
X167249393Y-68631287D01*
X167254086Y-68609749D01*
X167257254Y-68586554D01*
X167259150Y-68559080D01*
X167260029Y-68524707D01*
X167260065Y-68521362D01*
X167258710Y-68464445D01*
X167253077Y-68411805D01*
X167242590Y-68361020D01*
X167226672Y-68309667D01*
X167204745Y-68255326D01*
X167188230Y-68219795D01*
X167141187Y-68133745D01*
X167085908Y-68052519D01*
X167022984Y-67976751D01*
X166953007Y-67907074D01*
X166876567Y-67844120D01*
X166794256Y-67788522D01*
X166774891Y-67777036D01*
X166689623Y-67732666D01*
X166602534Y-67697328D01*
X166512834Y-67670818D01*
X166419729Y-67652928D01*
X166322430Y-67643451D01*
X166255952Y-67641705D01*
X166197458Y-67642982D01*
X166141406Y-67646674D01*
X166089783Y-67652575D01*
X166044577Y-67660476D01*
X166020780Y-67666250D01*
X165999067Y-67671926D01*
X165976816Y-67677219D01*
X165961184Y-67680519D01*
X165931875Y-67687954D01*
X165896448Y-67699980D01*
X165856876Y-67715713D01*
X165815134Y-67734267D01*
X165773195Y-67754759D01*
X165733032Y-67776302D01*
X165696621Y-67798013D01*
X165691005Y-67801619D01*
X165608772Y-67860598D01*
X165533197Y-67926206D01*
X165464728Y-67997931D01*
X165403816Y-68075258D01*
X165350910Y-68157674D01*
X165309603Y-68237743D01*
X165272260Y-68328664D01*
X165243512Y-68420598D01*
X165222788Y-68515623D01*
X165211699Y-68594388D01*
X165208193Y-68668636D01*
X165183808Y-68668636D01*
X165183614Y-68664472D01*
X165187022Y-68585744D01*
X165197266Y-68505159D01*
X165214244Y-68423892D01*
X165237856Y-68343120D01*
X165268000Y-68264018D01*
X165268229Y-68263483D01*
X165277769Y-68240935D01*
X165285583Y-68221839D01*
X165291011Y-68207858D01*
X165293395Y-68200651D01*
X165293411Y-68200051D01*
X165288336Y-68201405D01*
X165277627Y-68208091D01*
X165262865Y-68218851D01*
X165245630Y-68232427D01*
X165227501Y-68247560D01*
X165210059Y-68262990D01*
X165194883Y-68277461D01*
X165190230Y-68282244D01*
X165145115Y-68336306D01*
X165106886Y-68396134D01*
X165075288Y-68462254D01*
X165050064Y-68535190D01*
X165033296Y-68603663D01*
X165028469Y-68628303D01*
X165025152Y-68648772D01*
X165023148Y-68667831D01*
X165022258Y-68688239D01*
X165022283Y-68712756D01*
X165023024Y-68744140D01*
X165023074Y-68745840D01*
X165024266Y-68778920D01*
X165025889Y-68805072D01*
X165028299Y-68827140D01*
X165031855Y-68847967D01*
X165036915Y-68870398D01*
X165040557Y-68884787D01*
X165052797Y-68927191D01*
X165066652Y-68964578D01*
X165083430Y-68999547D01*
X165104437Y-69034694D01*
X165130983Y-69072617D01*
X165143490Y-69089204D01*
X165153648Y-69106389D01*
X165160684Y-69128446D01*
X165163508Y-69142945D01*
X165170130Y-69175519D01*
X165179910Y-69214048D01*
X165191983Y-69255580D01*
X165205483Y-69297167D01*
X165219543Y-69335858D01*
X165221904Y-69341878D01*
X165264689Y-69437866D01*
X165314305Y-69527207D01*
X165371252Y-69610691D01*
X165436026Y-69689111D01*
X165448720Y-69702927D01*
X165475679Y-69734479D01*
X165493928Y-69762109D01*
X165503601Y-69786047D01*
X165505354Y-69799669D01*
X165500971Y-69807655D01*
X165487796Y-69811593D01*
X165465791Y-69811490D01*
X165438638Y-69807983D01*
X165410236Y-69804583D01*
X165372227Y-69802240D01*
X165324716Y-69800961D01*
X165288387Y-69800701D01*
X165181344Y-69800621D01*
X165160030Y-69821539D01*
X165147413Y-69833139D01*
X165139013Y-69838394D01*
X165132724Y-69838412D01*
X165130277Y-69837168D01*
X165122469Y-69828831D01*
X165121621Y-69817145D01*
X165127873Y-69800952D01*
X165136346Y-69786628D01*
X165145271Y-69771907D01*
X165151503Y-69759902D01*
X165153594Y-69753705D01*
X165151511Y-69738344D01*
X165145561Y-69715396D01*
X165136194Y-69686042D01*
X165123860Y-69651462D01*
X165109009Y-69612834D01*
X165092092Y-69571340D01*
X165073557Y-69528157D01*
X165053855Y-69484468D01*
X165038451Y-69451803D01*
X165030122Y-69433540D01*
X165023426Y-69417113D01*
X165019679Y-69405770D01*
X165019492Y-69404920D01*
X165015913Y-69395791D01*
X165007760Y-69379776D01*
X164995803Y-69358171D01*
X164980811Y-69332271D01*
X164963553Y-69303372D01*
X164944798Y-69272771D01*
X164925316Y-69241761D01*
X164905874Y-69211640D01*
X164895070Y-69195311D01*
X164873013Y-69163066D01*
X164848182Y-69128022D01*
X164821945Y-69092013D01*
X164795672Y-69056869D01*
X164770732Y-69024424D01*
X164748495Y-68996509D01*
X164730774Y-68975461D01*
X164715788Y-68957618D01*
X164696434Y-68933344D01*
X164673916Y-68904232D01*
X164649439Y-68871878D01*
X164624208Y-68837875D01*
X164599426Y-68803819D01*
X164576300Y-68771302D01*
X164573555Y-68767381D01*
X164545649Y-68729387D01*
X164516301Y-68693612D01*
X164483574Y-68657880D01*
X164445528Y-68620016D01*
X164424979Y-68600604D01*
X164398567Y-68576405D01*
X164372018Y-68552821D01*
X164346398Y-68530728D01*
X164322770Y-68510999D01*
X164302197Y-68494507D01*
X164285744Y-68482128D01*
X164274474Y-68474735D01*
X164269695Y-68473044D01*
X164262764Y-68478417D01*
X164251223Y-68490641D01*
X164235986Y-68508507D01*
X164217965Y-68530808D01*
X164198074Y-68556333D01*
X164177225Y-68583874D01*
X164156331Y-68612221D01*
X164136306Y-68640166D01*
X164118063Y-68666500D01*
X164102514Y-68690014D01*
X164090572Y-68709498D01*
X164088871Y-68712494D01*
X164073370Y-68740217D01*
X164162854Y-68803982D01*
X164206254Y-68835388D01*
X164242015Y-68862405D01*
X164270867Y-68885688D01*
X164293540Y-68905894D01*
X164310763Y-68923679D01*
X164323265Y-68939699D01*
X164331776Y-68954611D01*
X164332795Y-68956888D01*
X164337739Y-68968998D01*
X164340666Y-68979197D01*
X164341763Y-68990153D01*
X164341215Y-69004536D01*
X164339211Y-69025016D01*
X164338203Y-69034088D01*
X164335772Y-69059699D01*
X164335108Y-69081495D01*
X164336679Y-69101403D01*
X164340949Y-69121350D01*
X164348385Y-69143265D01*
X164359452Y-69169074D01*
X164374617Y-69200704D01*
X164382106Y-69215761D01*
X164430892Y-69307575D01*
X164486623Y-69402309D01*
X164547910Y-69497780D01*
X164613364Y-69591807D01*
X164667137Y-69663671D01*
X164693509Y-69696774D01*
X164722985Y-69732063D01*
X164754172Y-69767998D01*
X164785674Y-69803040D01*
X164816096Y-69835652D01*
X164844043Y-69864292D01*
X164868120Y-69887424D01*
X164877712Y-69895964D01*
X164911592Y-69930262D01*
X164942641Y-69971895D01*
X164966662Y-70013642D01*
X164977329Y-70033661D01*
X164988804Y-70053348D01*
X164998612Y-70068462D01*
X164998663Y-70068532D01*
X165013105Y-70084356D01*
X165035022Y-70102720D01*
X165062791Y-70122595D01*
X165094793Y-70142950D01*
X165129406Y-70162754D01*
X165165009Y-70180975D01*
X165199983Y-70196584D01*
X165200007Y-70196594D01*
X165220879Y-70205478D01*
X165234201Y-70212247D01*
X165241650Y-70218006D01*
X165244902Y-70223860D01*
X165245411Y-70226535D01*
X165244453Y-70234771D01*
X165238470Y-70243387D01*
X165225931Y-70254387D01*
X165221654Y-70257699D01*
X165157942Y-70311642D01*
X165098032Y-70372970D01*
X165044017Y-70439450D01*
X165022053Y-70470658D01*
X165000969Y-70503953D01*
X164979516Y-70541110D01*
X164959051Y-70579530D01*
X164940929Y-70616613D01*
X164926504Y-70649761D01*
X164920893Y-70664642D01*
X164915327Y-70678687D01*
X164910396Y-70688003D01*
X164907975Y-70690291D01*
X164901549Y-70688237D01*
X164890029Y-70683071D01*
X164884798Y-70680474D01*
X164864490Y-70672123D01*
X164837041Y-70664301D01*
X164801584Y-70656799D01*
X164757254Y-70649406D01*
X164755422Y-70649131D01*
X164612163Y-70632052D01*
X164469673Y-70623811D01*
X164328854Y-70624413D01*
X164190607Y-70633860D01*
X164090986Y-70646472D01*
X164029995Y-70655534D01*
X163977142Y-70662871D01*
X163930977Y-70668655D01*
X163890054Y-70673057D01*
X163852924Y-70676249D01*
X163824723Y-70678061D01*
X163763313Y-70684386D01*
X163696435Y-70696730D01*
X163625908Y-70714599D01*
X163553550Y-70737502D01*
X163481179Y-70764947D01*
X163443091Y-70781322D01*
X163427271Y-70789110D01*
X163417957Y-70796304D01*
X163412436Y-70805538D01*
X163409620Y-70813792D01*
X163404373Y-70846712D01*
X163378105Y-70846712D01*
X163377933Y-70836111D01*
X163377568Y-70821426D01*
X163377210Y-70813333D01*
X163377070Y-70812431D01*
X163369948Y-70814689D01*
X163357984Y-70820277D01*
X163344655Y-70827405D01*
X163333441Y-70834282D01*
X163330557Y-70836379D01*
X163318149Y-70852023D01*
X163310864Y-70874394D01*
X163309101Y-70901665D01*
X163285024Y-70901665D01*
X163285023Y-70901612D01*
X163284751Y-70883152D01*
X163284160Y-70869138D01*
X163283362Y-70861848D01*
X163283066Y-70861307D01*
X163277418Y-70863854D01*
X163265155Y-70870913D01*
X163247773Y-70881545D01*
X163226766Y-70894814D01*
X163203632Y-70909781D01*
X163179865Y-70925508D01*
X163168687Y-70933040D01*
X163146648Y-70947803D01*
X163130608Y-70957829D01*
X163118586Y-70964021D01*
X163108601Y-70967282D01*
X163098672Y-70968512D01*
X163090518Y-70968648D01*
X163070479Y-70967546D01*
X163050231Y-70964915D01*
X163043720Y-70963618D01*
X163019988Y-70962076D01*
X162990731Y-70966599D01*
X162957785Y-70976831D01*
X162941771Y-70983412D01*
X162923047Y-70992979D01*
X162899785Y-71006748D01*
X162874384Y-71023096D01*
X162849247Y-71040399D01*
X162826773Y-71057034D01*
X162809363Y-71071377D01*
X162803658Y-71076818D01*
X162785679Y-71097607D01*
X162766528Y-71123507D01*
X162747969Y-71151761D01*
X162731767Y-71179614D01*
X162719687Y-71204310D01*
X162716100Y-71213559D01*
X162705516Y-71254158D01*
X162701878Y-71293042D01*
X162677758Y-71293042D01*
X162678235Y-71265450D01*
X162684218Y-71227762D01*
X162696139Y-71191024D01*
X162714652Y-71153452D01*
X162740411Y-71113263D01*
X162755977Y-71091941D01*
X162790424Y-71053533D01*
X162834140Y-71017173D01*
X162886790Y-70983121D01*
X162916588Y-70966926D01*
X162953464Y-70950079D01*
X162986290Y-70939972D01*
X163017518Y-70936053D01*
X163047407Y-70937493D01*
X163072211Y-70939946D01*
X163091453Y-70939861D01*
X163108056Y-70936455D01*
X163124943Y-70928942D01*
X163145040Y-70916540D01*
X163157688Y-70907926D01*
X163181991Y-70891698D01*
X163210340Y-70873648D01*
X163238204Y-70856632D01*
X163250671Y-70849329D01*
X163271441Y-70837379D01*
X163290185Y-70826571D01*
X163304628Y-70818218D01*
X163311740Y-70814077D01*
X163335187Y-70801409D01*
X163365842Y-70786503D01*
X163401651Y-70770234D01*
X163440560Y-70753482D01*
X163480516Y-70737123D01*
X163519465Y-70722033D01*
X163555354Y-70709090D01*
X163565789Y-70705568D01*
X163612053Y-70690744D01*
X163652024Y-70679194D01*
X163688397Y-70670354D01*
X163723866Y-70663660D01*
X163761125Y-70658550D01*
X163802868Y-70654460D01*
X163814952Y-70653481D01*
X163848049Y-70650831D01*
X163876640Y-70648355D01*
X163902664Y-70645818D01*
X163928063Y-70642987D01*
X163954776Y-70639626D01*
X163984746Y-70635501D01*
X164019911Y-70630378D01*
X164062213Y-70624021D01*
X164076329Y-70621877D01*
X164183285Y-70608782D01*
X164296673Y-70600933D01*
X164414616Y-70598431D01*
X164484273Y-70599469D01*
X164548741Y-70602114D01*
X164612521Y-70606333D01*
X164674017Y-70611942D01*
X164731630Y-70618761D01*
X164783762Y-70626607D01*
X164828814Y-70635300D01*
X164854409Y-70641551D01*
X164872009Y-70646208D01*
X164885888Y-70649633D01*
X164893400Y-70651177D01*
X164893815Y-70651207D01*
X164897545Y-70647039D01*
X164903328Y-70636185D01*
X164909033Y-70623115D01*
X164931818Y-70572622D01*
X164960408Y-70519134D01*
X164992960Y-70465734D01*
X165027629Y-70415510D01*
X165051312Y-70384944D01*
X165067712Y-70366002D01*
X165088495Y-70343652D01*
X165111775Y-70319763D01*
X165135664Y-70296207D01*
X165158275Y-70274853D01*
X165177721Y-70257572D01*
X165189015Y-70248469D01*
X165202152Y-70237322D01*
X165207032Y-70229837D01*
X165203470Y-70226368D01*
X165200690Y-70226164D01*
X165192553Y-70223804D01*
X165177755Y-70217333D01*
X165158016Y-70207663D01*
X165135056Y-70195705D01*
X165110596Y-70182371D01*
X165086356Y-70168571D01*
X165064056Y-70155219D01*
X165050201Y-70146416D01*
X165013473Y-70119559D01*
X164984675Y-70091947D01*
X164962033Y-70061674D01*
X164948629Y-70037329D01*
X164928966Y-70001597D01*
X164905789Y-69967228D01*
X164881097Y-69936924D01*
X164857014Y-69913488D01*
X164838663Y-69896991D01*
X164815562Y-69874191D01*
X164788976Y-69846487D01*
X164760167Y-69815276D01*
X164730402Y-69781957D01*
X164700943Y-69747929D01*
X164673056Y-69714588D01*
X164648004Y-69683333D01*
X164642740Y-69676539D01*
X164568747Y-69575928D01*
X164498483Y-69471630D01*
X164433511Y-69366095D01*
X164375392Y-69261772D01*
X164362458Y-69236839D01*
X164342703Y-69196955D01*
X164327812Y-69163512D01*
X164317372Y-69134729D01*
X164310972Y-69108824D01*
X164308197Y-69084015D01*
X164308635Y-69058520D01*
X164311873Y-69030558D01*
X164313000Y-69023409D01*
X164315442Y-69000596D01*
X164313742Y-68981796D01*
X164306939Y-68964680D01*
X164294072Y-68946915D01*
X164274182Y-68926170D01*
X164272104Y-68924163D01*
X164257285Y-68910946D01*
X164236229Y-68893585D01*
X164210736Y-68873491D01*
X164182607Y-68852075D01*
X164153641Y-68830750D01*
X164145443Y-68824856D01*
X164119440Y-68806135D01*
X164096326Y-68789233D01*
X164077220Y-68774989D01*
X164063239Y-68764243D01*
X164055502Y-68757833D01*
X164054314Y-68756458D01*
X164050522Y-68751969D01*
X164041389Y-68745621D01*
X164040878Y-68745319D01*
X164031192Y-68738537D01*
X164015750Y-68726427D01*
X163996020Y-68710245D01*
X163973467Y-68691246D01*
X163949559Y-68670685D01*
X163933313Y-68656438D01*
X163981061Y-68656438D01*
X163984618Y-68662049D01*
X163994154Y-68672000D01*
X164007970Y-68684593D01*
X164016157Y-68691518D01*
X164051253Y-68720481D01*
X164076275Y-68680641D01*
X164091376Y-68657245D01*
X164108672Y-68631424D01*
X164124866Y-68608083D01*
X164127671Y-68604159D01*
X164149758Y-68574327D01*
X164174035Y-68542961D01*
X164198376Y-68512724D01*
X164220654Y-68486279D01*
X164232345Y-68473121D01*
X164242640Y-68460481D01*
X164247234Y-68451689D01*
X164246592Y-68448693D01*
X164240471Y-68444560D01*
X164228477Y-68436371D01*
X164212782Y-68425612D01*
X164205998Y-68420951D01*
X164170468Y-68396523D01*
X164146423Y-68423394D01*
X164128663Y-68444087D01*
X164108867Y-68468577D01*
X164087903Y-68495639D01*
X164066641Y-68524050D01*
X164045949Y-68552586D01*
X164026694Y-68580023D01*
X164009746Y-68605138D01*
X163995973Y-68626705D01*
X163986244Y-68643501D01*
X163981426Y-68654303D01*
X163981061Y-68656438D01*
X163933313Y-68656438D01*
X163925762Y-68649816D01*
X163903543Y-68629894D01*
X163884368Y-68612174D01*
X163876748Y-68604888D01*
X163833396Y-68561717D01*
X163794465Y-68520721D01*
X163760655Y-68482712D01*
X163732669Y-68448500D01*
X163711207Y-68418895D01*
X163700390Y-68401251D01*
X163688042Y-68380371D01*
X163675024Y-68360787D01*
X163663355Y-68345445D01*
X163658503Y-68340134D01*
X163652679Y-68335278D01*
X163644242Y-68329786D01*
X163632515Y-68323367D01*
X163616824Y-68315732D01*
X163596494Y-68306590D01*
X163570850Y-68295652D01*
X163539216Y-68282628D01*
X163500918Y-68267227D01*
X163455281Y-68249159D01*
X163401629Y-68228135D01*
X163360596Y-68212146D01*
X163319844Y-68193558D01*
X163284732Y-68172019D01*
X163255998Y-68148306D01*
X163234378Y-68123197D01*
X163220612Y-68097469D01*
X163217322Y-68081224D01*
X163244248Y-68081224D01*
X163250507Y-68100630D01*
X163262800Y-68117281D01*
X163282344Y-68135442D01*
X163307065Y-68153702D01*
X163334887Y-68170650D01*
X163363737Y-68184878D01*
X163387466Y-68193761D01*
X163404838Y-68199679D01*
X163428198Y-68208403D01*
X163456089Y-68219320D01*
X163487058Y-68231814D01*
X163519647Y-68245268D01*
X163552404Y-68259069D01*
X163583871Y-68272600D01*
X163612593Y-68285247D01*
X163637116Y-68296393D01*
X163655984Y-68305423D01*
X163667742Y-68311723D01*
X163669972Y-68313218D01*
X163684144Y-68327487D01*
X163700937Y-68350544D01*
X163720536Y-68382643D01*
X163720920Y-68383313D01*
X163730722Y-68400101D01*
X163739896Y-68414761D01*
X163749465Y-68428514D01*
X163760455Y-68442583D01*
X163773888Y-68458191D01*
X163790790Y-68476560D01*
X163812183Y-68498912D01*
X163839093Y-68526471D01*
X163850915Y-68538499D01*
X163876335Y-68564151D01*
X163899685Y-68587363D01*
X163920056Y-68607259D01*
X163936537Y-68622963D01*
X163948217Y-68633596D01*
X163954188Y-68638282D01*
X163954628Y-68638428D01*
X163960267Y-68634392D01*
X163965885Y-68625334D01*
X163974525Y-68609368D01*
X163988390Y-68587358D01*
X164006430Y-68560751D01*
X164027592Y-68530993D01*
X164050828Y-68499530D01*
X164075087Y-68467808D01*
X164099319Y-68437274D01*
X164122472Y-68409375D01*
X164124213Y-68407338D01*
X164135484Y-68393764D01*
X164143436Y-68383364D01*
X164146646Y-68378018D01*
X164146586Y-68377715D01*
X164133405Y-68368884D01*
X164113424Y-68356476D01*
X164088447Y-68341547D01*
X164060276Y-68325151D01*
X164030715Y-68308344D01*
X164001568Y-68292181D01*
X163985895Y-68283695D01*
X163960365Y-68269772D01*
X163937189Y-68256677D01*
X163918034Y-68245389D01*
X163904568Y-68236885D01*
X163899081Y-68232809D01*
X163892316Y-68224224D01*
X163882782Y-68209180D01*
X163871913Y-68190039D01*
X163864128Y-68175172D01*
X163847552Y-68146002D01*
X163828284Y-68119669D01*
X163805139Y-68095127D01*
X163776929Y-68071326D01*
X163742468Y-68047219D01*
X163700570Y-68021757D01*
X163672951Y-68006261D01*
X163629531Y-67986135D01*
X163580839Y-67969825D01*
X163529960Y-67958044D01*
X163479982Y-67951503D01*
X163433992Y-67950915D01*
X163433182Y-67950966D01*
X163393184Y-67956137D01*
X163356150Y-67965890D01*
X163322937Y-67979520D01*
X163294405Y-67996325D01*
X163271411Y-68015602D01*
X163254815Y-68036646D01*
X163245474Y-68058754D01*
X163244248Y-68081224D01*
X163217322Y-68081224D01*
X163215434Y-68071902D01*
X163216226Y-68059858D01*
X163225725Y-68030264D01*
X163243667Y-68003505D01*
X163269029Y-67979992D01*
X163300789Y-67960135D01*
X163337923Y-67944345D01*
X163379409Y-67933032D01*
X163424224Y-67926607D01*
X163471345Y-67925481D01*
X163519750Y-67930063D01*
X163533572Y-67932460D01*
X163573434Y-67940887D01*
X163608388Y-67950329D01*
X163640673Y-67961739D01*
X163672526Y-67976073D01*
X163706184Y-67994288D01*
X163743885Y-68017340D01*
X163766330Y-68031884D01*
X163799813Y-68055050D01*
X163826238Y-68076429D01*
X163847529Y-68098089D01*
X163865608Y-68122098D01*
X163882397Y-68150523D01*
X163889659Y-68164541D01*
X163915106Y-68215175D01*
X163999898Y-68260900D01*
X164030201Y-68277566D01*
X164061316Y-68295244D01*
X164090756Y-68312484D01*
X164116038Y-68327835D01*
X164131808Y-68337918D01*
X164158607Y-68355873D01*
X164185834Y-68374390D01*
X164212072Y-68392480D01*
X164235909Y-68409154D01*
X164255931Y-68423421D01*
X164270723Y-68434293D01*
X164278873Y-68440781D01*
X164279080Y-68440972D01*
X164285404Y-68446407D01*
X164297763Y-68456648D01*
X164314567Y-68470391D01*
X164334226Y-68486331D01*
X164341577Y-68492260D01*
X164417677Y-68556745D01*
X164484534Y-68620226D01*
X164542568Y-68683140D01*
X164592199Y-68745921D01*
X164607582Y-68767825D01*
X164632056Y-68803093D01*
X164657862Y-68838977D01*
X164683633Y-68873661D01*
X164707999Y-68905330D01*
X164729592Y-68932167D01*
X164744826Y-68949917D01*
X164769494Y-68978767D01*
X164797874Y-69014363D01*
X164828743Y-69055018D01*
X164860877Y-69099044D01*
X164893052Y-69144755D01*
X164924046Y-69190462D01*
X164952634Y-69234480D01*
X164962041Y-69249489D01*
X164990439Y-69295894D01*
X165013476Y-69334847D01*
X165031091Y-69366236D01*
X165043221Y-69389949D01*
X165049807Y-69405875D01*
X165051086Y-69412092D01*
X165053450Y-69421763D01*
X165059492Y-69436282D01*
X165066202Y-69449360D01*
X165075525Y-69466928D01*
X165083761Y-69483968D01*
X165087754Y-69493330D01*
X165092402Y-69504790D01*
X165099917Y-69522534D01*
X165109173Y-69543929D01*
X165116997Y-69561728D01*
X165125649Y-69582257D01*
X165135951Y-69608255D01*
X165147163Y-69637682D01*
X165158544Y-69668500D01*
X165169354Y-69698671D01*
X165178854Y-69726155D01*
X165186301Y-69748914D01*
X165190958Y-69764909D01*
X165191325Y-69766410D01*
X165192813Y-69771481D01*
X165195588Y-69774726D01*
X165201426Y-69776422D01*
X165212103Y-69776846D01*
X165229395Y-69776276D01*
X165248346Y-69775335D01*
X165272880Y-69774648D01*
X165302533Y-69774699D01*
X165335086Y-69775391D01*
X165368320Y-69776630D01*
X165400015Y-69778322D01*
X165427952Y-69780370D01*
X165449913Y-69782680D01*
X165460655Y-69784426D01*
X165477025Y-69787882D01*
X165468543Y-69771295D01*
X165461517Y-69760615D01*
X165449552Y-69745443D01*
X165434617Y-69728199D01*
X165425240Y-69718066D01*
X165364179Y-69647095D01*
X165308445Y-69568610D01*
X165258519Y-69483581D01*
X165214879Y-69392979D01*
X165178007Y-69297774D01*
X165148382Y-69198936D01*
X165131469Y-69124334D01*
X165127616Y-69115760D01*
X165119271Y-69102379D01*
X165108154Y-69086927D01*
X165106860Y-69085250D01*
X165074430Y-69038878D01*
X165049162Y-68991675D01*
X165029462Y-68941263D01*
X165016931Y-68900209D01*
X165007876Y-68861566D01*
X165001868Y-68822430D01*
X164998477Y-68779899D01*
X164997275Y-68731069D01*
X164997257Y-68723293D01*
X165000206Y-68650366D01*
X165009420Y-68582987D01*
X165025447Y-68518778D01*
X165048838Y-68455360D01*
X165069341Y-68411254D01*
X165104783Y-68348574D01*
X165144582Y-68292991D01*
X165188190Y-68245098D01*
X165235056Y-68205490D01*
X165284634Y-68174760D01*
X165290857Y-68171639D01*
X165308465Y-68161674D01*
X165321076Y-68150276D01*
X165332552Y-68133820D01*
X165334330Y-68130834D01*
X165373583Y-68070429D01*
X165420244Y-68009385D01*
X165472361Y-67949873D01*
X165527983Y-67894062D01*
X165585159Y-67844122D01*
X165608675Y-67825788D01*
X165680792Y-67776343D01*
X165758358Y-67731805D01*
X165838191Y-67693909D01*
X165883985Y-67675763D01*
X165903270Y-67668528D01*
X165918954Y-67662325D01*
X165928852Y-67658033D01*
X165931060Y-67656788D01*
X165931846Y-67651451D01*
X165932831Y-67637361D01*
X165933971Y-67615533D01*
X165935224Y-67586983D01*
X165936546Y-67552726D01*
X165937896Y-67513777D01*
X165939230Y-67471151D01*
X165940016Y-67443840D01*
X165942574Y-67307844D01*
X165942333Y-67179852D01*
X165939158Y-67058466D01*
X165932913Y-66942287D01*
X165923465Y-66829920D01*
X165910677Y-66719965D01*
X165894416Y-66611026D01*
X165874546Y-66501705D01*
X165850933Y-66390604D01*
X165829724Y-66301391D01*
X165820767Y-66265472D01*
X165812468Y-66232722D01*
X165804452Y-66201789D01*
X165796341Y-66171318D01*
X165787759Y-66139956D01*
X165778331Y-66106347D01*
X165767678Y-66069139D01*
X165755426Y-66026977D01*
X165741197Y-65978508D01*
X165724614Y-65922377D01*
X165720055Y-65906982D01*
X165706855Y-65862223D01*
X165696247Y-65825666D01*
X165687957Y-65796173D01*
X165681708Y-65772605D01*
X165677227Y-65753824D01*
X165674238Y-65738691D01*
X165672465Y-65726068D01*
X165671635Y-65714816D01*
X165671463Y-65705880D01*
X165671471Y-65705580D01*
X165696544Y-65705580D01*
X165698464Y-65723127D01*
X165702662Y-65744844D01*
X165709291Y-65771881D01*
X165718505Y-65805388D01*
X165730455Y-65846513D01*
X165737103Y-65868945D01*
X165767379Y-65971635D01*
X165794608Y-66066149D01*
X165819000Y-66153522D01*
X165840759Y-66234792D01*
X165860092Y-66310997D01*
X165877207Y-66383173D01*
X165892308Y-66452357D01*
X165905604Y-66519587D01*
X165917300Y-66585899D01*
X165927603Y-66652330D01*
X165936720Y-66719918D01*
X165944856Y-66789700D01*
X165952219Y-66862712D01*
X165959015Y-66939992D01*
X165964625Y-67011468D01*
X165966056Y-67037004D01*
X165967219Y-67070728D01*
X165968115Y-67111064D01*
X165968747Y-67156432D01*
X165969116Y-67205256D01*
X165969224Y-67255956D01*
X165969073Y-67306954D01*
X165968665Y-67356673D01*
X165968001Y-67403534D01*
X165967084Y-67445959D01*
X165965916Y-67482371D01*
X165964497Y-67511189D01*
X165964030Y-67518035D01*
X165962284Y-67547502D01*
X165961413Y-67575851D01*
X165961380Y-67601476D01*
X165962149Y-67622769D01*
X165963681Y-67638125D01*
X165965942Y-67645935D01*
X165966958Y-67646591D01*
X165972092Y-67645536D01*
X165984715Y-67642682D01*
X166002809Y-67638488D01*
X166020099Y-67634426D01*
X166048284Y-67628422D01*
X166079664Y-67622758D01*
X166109020Y-67618346D01*
X166119465Y-67617088D01*
X166145379Y-67614275D01*
X166163207Y-67611782D01*
X166174550Y-67608646D01*
X166181009Y-67603903D01*
X166184183Y-67596589D01*
X166185674Y-67585742D01*
X166186461Y-67576758D01*
X166188273Y-67551870D01*
X166189971Y-67519338D01*
X166191527Y-67480757D01*
X166192911Y-67437724D01*
X166194095Y-67391835D01*
X166195051Y-67344684D01*
X166195750Y-67297870D01*
X166196163Y-67252987D01*
X166196263Y-67211631D01*
X166196021Y-67175399D01*
X166195407Y-67145886D01*
X166194507Y-67126279D01*
X166192718Y-67099498D01*
X166190489Y-67065551D01*
X166187990Y-67027025D01*
X166185387Y-66986508D01*
X166182847Y-66946585D01*
X166181855Y-66930857D01*
X166178597Y-66880201D01*
X166175650Y-66837408D01*
X166172830Y-66800583D01*
X166169956Y-66767832D01*
X166166845Y-66737258D01*
X166163314Y-66706966D01*
X166159182Y-66675062D01*
X166154266Y-66639650D01*
X166152946Y-66630395D01*
X166148415Y-66600082D01*
X166142972Y-66565792D01*
X166136897Y-66529097D01*
X166130471Y-66491574D01*
X166123976Y-66454796D01*
X166117692Y-66420338D01*
X166111900Y-66389774D01*
X166106881Y-66364679D01*
X166102916Y-66346627D01*
X166101019Y-66339358D01*
X166098109Y-66324604D01*
X166096553Y-66306844D01*
X166096474Y-66302716D01*
X166095108Y-66289831D01*
X166091269Y-66269004D01*
X166085306Y-66241646D01*
X166077571Y-66209170D01*
X166068413Y-66172987D01*
X166058183Y-66134510D01*
X166047229Y-66095150D01*
X166035903Y-66056320D01*
X166032967Y-66046571D01*
X166026631Y-66025477D01*
X166018117Y-65996821D01*
X166007961Y-65962426D01*
X165996701Y-65924118D01*
X165984873Y-65883719D01*
X165973014Y-65843055D01*
X165969839Y-65832138D01*
X165958573Y-65793989D01*
X165947510Y-65757670D01*
X165937098Y-65724569D01*
X165927786Y-65696076D01*
X165920025Y-65673582D01*
X165914262Y-65658475D01*
X165912435Y-65654449D01*
X165893364Y-65626358D01*
X165869110Y-65605957D01*
X165840900Y-65593750D01*
X165809959Y-65590244D01*
X165777511Y-65595945D01*
X165773788Y-65597196D01*
X165744697Y-65611485D01*
X165722590Y-65631896D01*
X165708610Y-65654107D01*
X165702937Y-65666467D01*
X165698934Y-65678399D01*
X165696752Y-65691054D01*
X165696544Y-65705580D01*
X165671471Y-65705580D01*
X165672064Y-65684559D01*
X165674576Y-65668444D01*
X165680062Y-65653006D01*
X165687445Y-65637833D01*
X165707596Y-65608741D01*
X165733622Y-65586469D01*
X165763972Y-65571488D01*
X165797092Y-65564271D01*
X165831429Y-65565288D01*
X165865432Y-65575013D01*
X165876595Y-65580362D01*
X165891010Y-65588618D01*
X165903442Y-65597439D01*
X165914383Y-65607807D01*
X165924322Y-65620702D01*
X165933753Y-65637102D01*
X165943165Y-65657990D01*
X165953050Y-65684344D01*
X165963899Y-65717145D01*
X165976204Y-65757374D01*
X165990456Y-65806009D01*
X165991502Y-65809622D01*
X166002902Y-65848924D01*
X166014878Y-65889981D01*
X166026729Y-65930409D01*
X166037757Y-65967827D01*
X166047260Y-65999850D01*
X166052474Y-66017258D01*
X166063806Y-66055659D01*
X166075016Y-66095068D01*
X166085794Y-66134267D01*
X166095832Y-66172035D01*
X166104821Y-66207153D01*
X166112453Y-66238401D01*
X166118417Y-66264559D01*
X166122407Y-66284407D01*
X166124111Y-66296727D01*
X166123998Y-66299730D01*
X166123457Y-66310710D01*
X166125337Y-66325641D01*
X166126183Y-66329541D01*
X166131078Y-66351674D01*
X166137086Y-66381459D01*
X166143849Y-66416892D01*
X166151006Y-66455967D01*
X166158198Y-66496676D01*
X166165064Y-66537015D01*
X166171245Y-66574977D01*
X166176382Y-66608556D01*
X166177069Y-66613296D01*
X166194845Y-66756909D01*
X166208013Y-66907848D01*
X166216519Y-67064792D01*
X166220305Y-67226419D01*
X166219318Y-67391411D01*
X166215231Y-67520791D01*
X166211317Y-67612399D01*
X166243585Y-67612396D01*
X166285542Y-67613597D01*
X166333315Y-67616975D01*
X166384037Y-67622177D01*
X166434844Y-67628849D01*
X166482871Y-67636638D01*
X166525253Y-67645192D01*
X166541332Y-67649096D01*
X166621812Y-67674450D01*
X166702584Y-67708522D01*
X166782242Y-67750405D01*
X166859375Y-67799195D01*
X166932576Y-67853986D01*
X167000436Y-67913873D01*
X167061548Y-67977952D01*
X167071840Y-67990002D01*
X167086827Y-68007445D01*
X167099776Y-68021736D01*
X167109311Y-68031408D01*
X167114052Y-68034992D01*
X167114064Y-68034992D01*
X167117358Y-68030926D01*
X167125187Y-68019238D01*
X167137072Y-68000696D01*
X167152538Y-67976068D01*
X167171107Y-67946119D01*
X167192303Y-67911617D01*
X167215648Y-67873330D01*
X167240665Y-67832024D01*
X167253786Y-67810257D01*
X167309766Y-67717749D01*
X167361773Y-67632972D01*
X167410435Y-67555037D01*
X167456378Y-67483056D01*
X167500231Y-67416138D01*
X167542620Y-67353396D01*
X167584174Y-67293939D01*
X167625519Y-67236879D01*
X167667282Y-67181326D01*
X167710092Y-67126392D01*
X167754576Y-67071187D01*
X167801360Y-67014823D01*
X167851073Y-66956409D01*
X167879507Y-66923528D01*
X167926143Y-66871152D01*
X167978816Y-66814252D01*
X168035938Y-66754417D01*
X168095921Y-66693234D01*
X168157178Y-66632292D01*
X168218122Y-66573178D01*
X168277165Y-66517482D01*
X168332720Y-66466790D01*
X168360961Y-66441839D01*
X168382369Y-66423004D01*
X168407715Y-66400440D01*
X168433757Y-66377045D01*
X168456229Y-66356653D01*
X168479829Y-66335301D01*
X168507610Y-66310481D01*
X168536329Y-66285076D01*
X168562741Y-66261967D01*
X168566154Y-66259006D01*
X168590283Y-66237928D01*
X168615570Y-66215543D01*
X168639387Y-66194197D01*
X168659106Y-66176233D01*
X168663333Y-66172317D01*
X168690587Y-66148236D01*
X168713908Y-66130977D01*
X168735257Y-66119566D01*
X168756593Y-66113030D01*
X168779877Y-66110398D01*
X168788447Y-66110219D01*
X168811055Y-66110946D01*
X168828088Y-66113827D01*
X168843646Y-66119674D01*
X168848561Y-66122087D01*
X168871843Y-66137548D01*
X168895011Y-66159030D01*
X168914868Y-66183281D01*
X168924846Y-66199689D01*
X168930720Y-66214307D01*
X168935665Y-66232122D01*
X168939238Y-66250475D01*
X168940994Y-66266707D01*
X168940491Y-66278159D01*
X168938564Y-66281903D01*
X168933254Y-66288425D01*
X168927136Y-66300201D01*
X168921616Y-66313779D01*
X168918102Y-66325701D01*
X168917970Y-66332466D01*
X168918699Y-66335891D01*
X168917036Y-66340819D01*
X168912466Y-66347756D01*
X168904479Y-66357206D01*
X168892563Y-66369671D01*
X168876205Y-66385657D01*
X168854892Y-66405667D01*
X168828114Y-66430206D01*
X168795358Y-66459777D01*
X168756111Y-66494884D01*
X168723075Y-66524293D01*
X168662875Y-66577892D01*
X168609228Y-66625866D01*
X168561301Y-66668992D01*
X168518262Y-66708043D01*
X168479280Y-66743796D01*
X168443523Y-66777026D01*
X168410160Y-66808507D01*
X168378357Y-66839016D01*
X168347285Y-66869327D01*
X168316111Y-66900215D01*
X168284002Y-66932456D01*
X168270387Y-66946234D01*
X168193595Y-67025529D01*
X168121043Y-67103551D01*
X168051977Y-67181301D01*
X167985644Y-67259779D01*
X167921290Y-67339983D01*
X167858161Y-67422914D01*
X167795504Y-67509572D01*
X167732565Y-67600955D01*
X167668591Y-67698064D01*
X167602827Y-67801898D01*
X167534521Y-67913456D01*
X167508493Y-67956823D01*
X167484874Y-67996367D01*
X167459761Y-68038405D01*
X167434400Y-68080853D01*
X167410039Y-68121624D01*
X167387922Y-68158632D01*
X167369298Y-68189790D01*
X167365834Y-68195584D01*
X167307792Y-68292663D01*
X167341843Y-68354364D01*
X167364452Y-68396291D01*
X167382514Y-68432376D01*
X167396898Y-68464910D01*
X167408474Y-68496183D01*
X167418109Y-68528486D01*
X167426674Y-68564111D01*
X167432957Y-68594594D01*
X167436607Y-68612440D01*
X167440237Y-68625698D01*
X167445175Y-68636754D01*
X167452747Y-68647994D01*
X167464281Y-68661804D01*
X167480269Y-68679645D01*
X167514460Y-68719991D01*
X167542751Y-68759439D01*
X167566650Y-68800607D01*
X167587661Y-68846109D01*
X167607290Y-68898565D01*
X167608773Y-68902922D01*
X167614353Y-68919739D01*
X167618463Y-68933693D01*
X167621339Y-68946777D01*
X167623218Y-68960985D01*
X167624338Y-68978313D01*
X167624935Y-69000753D01*
X167625248Y-69030301D01*
X167625330Y-69042160D01*
X167625788Y-69074228D01*
X167626660Y-69100739D01*
X167627882Y-69120574D01*
X167629390Y-69132615D01*
X167630700Y-69135871D01*
X167634234Y-69141970D01*
X167635520Y-69156035D01*
X167634773Y-69176579D01*
X167632209Y-69202112D01*
X167628043Y-69231146D01*
X167622491Y-69262192D01*
X167615769Y-69293761D01*
X167608092Y-69324365D01*
X167599675Y-69352515D01*
X167599071Y-69354335D01*
X167571757Y-69423822D01*
X167538409Y-69487648D01*
X167499578Y-69545043D01*
X167455818Y-69595240D01*
X167407680Y-69637466D01*
X167384038Y-69654120D01*
X167342215Y-69677658D01*
X167297829Y-69695893D01*
X167253483Y-69707962D01*
X167211778Y-69713001D01*
X167206460Y-69713095D01*
X167194336Y-69713988D01*
X167188141Y-69716145D01*
X167187986Y-69717351D01*
X167186040Y-69722090D01*
X167178228Y-69727143D01*
X167169806Y-69733516D01*
X167170515Y-69739343D01*
X167179814Y-69742682D01*
X167182609Y-69742879D01*
X167188683Y-69744000D01*
X167187481Y-69745638D01*
X167183894Y-69751414D01*
X167184558Y-69755591D01*
X167185428Y-69760485D01*
X167180681Y-69759446D01*
X167176716Y-69757419D01*
X167165496Y-69754884D01*
X167152122Y-69756245D01*
X167140106Y-69760539D01*
X167132956Y-69766808D01*
X167132244Y-69769590D01*
X167128882Y-69774164D01*
X167125004Y-69773607D01*
X167117799Y-69775600D01*
X167104886Y-69784352D01*
X167087040Y-69799308D01*
X167079812Y-69805870D01*
X167046325Y-69834698D01*
X167006270Y-69865701D01*
X166962029Y-69897126D01*
X166915981Y-69927219D01*
X166910354Y-69930715D01*
X166891613Y-69943125D01*
X166872338Y-69957299D01*
X166853968Y-69971987D01*
X166837943Y-69985940D01*
X166825704Y-69997909D01*
X166818690Y-70006645D01*
X166818084Y-70010748D01*
X166820914Y-70016524D01*
X166823374Y-70029936D01*
X166825610Y-70051883D01*
X166826420Y-70062497D01*
X166828080Y-70073958D01*
X166831486Y-70090420D01*
X166836030Y-70109579D01*
X166841107Y-70129129D01*
X166846109Y-70146767D01*
X166850432Y-70160186D01*
X166853467Y-70167083D01*
X166854056Y-70167537D01*
X166858614Y-70163963D01*
X166867699Y-70154336D01*
X166879815Y-70140298D01*
X166888537Y-70129674D01*
X166909695Y-70104779D01*
X166936629Y-70075184D01*
X166967689Y-70042547D01*
X167001230Y-70008523D01*
X167035603Y-69974769D01*
X167069163Y-69942941D01*
X167100262Y-69914696D01*
X167115145Y-69901778D01*
X167144946Y-69876696D01*
X167172740Y-69853981D01*
X167199774Y-69832749D01*
X167227294Y-69812115D01*
X167256546Y-69791196D01*
X167288777Y-69769107D01*
X167325233Y-69744963D01*
X167367161Y-69717880D01*
X167415806Y-69686973D01*
X167434161Y-69675396D01*
X167456565Y-69660642D01*
X167483434Y-69641961D01*
X167511642Y-69621575D01*
X167538062Y-69601711D01*
X167542173Y-69598528D01*
X167565836Y-69580583D01*
X167589741Y-69563259D01*
X167611529Y-69548214D01*
X167628841Y-69537108D01*
X167633118Y-69534617D01*
X167654936Y-69523346D01*
X167682227Y-69510682D01*
X167713425Y-69497215D01*
X167746966Y-69483534D01*
X167781287Y-69470226D01*
X167814822Y-69457880D01*
X167846006Y-69447085D01*
X167873276Y-69438429D01*
X167895067Y-69432502D01*
X167909814Y-69429891D01*
X167911700Y-69429818D01*
X167923507Y-69427942D01*
X167937921Y-69423362D01*
X167939430Y-69422749D01*
X167962128Y-69415085D01*
X167993075Y-69407337D01*
X168030754Y-69399722D01*
X168073649Y-69392458D01*
X168120241Y-69385764D01*
X168169014Y-69379856D01*
X168218451Y-69374952D01*
X168267034Y-69371271D01*
X168313247Y-69369029D01*
X168313870Y-69369009D01*
X168326134Y-69368357D01*
X168335327Y-69366423D01*
X168343677Y-69361841D01*
X168353414Y-69353246D01*
X168366767Y-69339272D01*
X168372497Y-69333084D01*
X168393708Y-69311788D01*
X168412973Y-69296512D01*
X168433349Y-69284883D01*
X168436476Y-69283406D01*
X168460538Y-69273115D01*
X168483896Y-69265205D01*
X168508360Y-69259394D01*
X168535739Y-69255400D01*
X168567845Y-69252943D01*
X168606486Y-69251742D01*
X168641881Y-69251495D01*
X168675629Y-69251530D01*
X168701492Y-69251769D01*
X168721353Y-69252415D01*
X168737099Y-69253673D01*
X168750614Y-69255745D01*
X168763783Y-69258835D01*
X168778492Y-69263146D01*
X168793333Y-69267833D01*
X168855247Y-69290867D01*
X168908577Y-69317936D01*
X168953789Y-69349392D01*
X168991351Y-69385593D01*
X169021730Y-69426892D01*
X169035493Y-69451803D01*
X169046685Y-69479353D01*
X169053986Y-69507851D01*
X169056993Y-69534651D01*
X169055301Y-69557105D01*
X169052817Y-69565285D01*
X169041945Y-69580017D01*
X169021821Y-69594714D01*
X168992960Y-69609124D01*
X168955880Y-69622994D01*
X168911097Y-69636070D01*
X168905837Y-69637420D01*
X168856921Y-69649819D01*
X168777493Y-69637871D01*
X168748653Y-69633739D01*
X168716094Y-69629419D01*
X168681587Y-69625110D01*
X168646901Y-69621011D01*
X168613806Y-69617323D01*
X168584071Y-69614245D01*
X168559467Y-69611978D01*
X168541763Y-69610721D01*
X168535426Y-69610533D01*
X168525684Y-69614194D01*
X168510814Y-69624593D01*
X168491926Y-69640943D01*
X168490108Y-69642641D01*
X168477979Y-69653725D01*
X168466510Y-69663228D01*
X168454353Y-69671899D01*
X168440158Y-69680488D01*
X168422577Y-69689742D01*
X168400261Y-69700410D01*
X168371861Y-69713242D01*
X168336028Y-69728986D01*
X168329205Y-69731960D01*
X168232888Y-69769944D01*
X168130718Y-69802812D01*
X168025638Y-69829707D01*
X167931032Y-69848093D01*
X167903258Y-69852898D01*
X167876961Y-69857892D01*
X167854572Y-69862580D01*
X167838523Y-69866471D01*
X167834723Y-69867596D01*
X167822048Y-69872070D01*
X167814644Y-69876942D01*
X167810347Y-69885001D01*
X167806990Y-69899035D01*
X167805855Y-69904762D01*
X167801122Y-69922633D01*
X167795181Y-69936563D01*
X167791018Y-69942156D01*
X167783027Y-69951745D01*
X167784395Y-69958635D01*
X167795039Y-69962635D01*
X167800344Y-69963270D01*
X167818665Y-69964786D01*
X167797901Y-69976678D01*
X167785768Y-69985129D01*
X167778290Y-69993231D01*
X167777137Y-69996486D01*
X167773511Y-70008874D01*
X167762559Y-70026626D01*
X167744172Y-70049882D01*
X167718238Y-70078780D01*
X167684647Y-70113460D01*
X167683542Y-70114568D01*
X167590265Y-70202841D01*
X167493906Y-70283807D01*
X167395155Y-70356998D01*
X167294698Y-70421944D01*
X167193224Y-70478175D01*
X167091419Y-70525221D01*
X167068936Y-70534336D01*
X167049379Y-70542604D01*
X167033417Y-70551044D01*
X167018358Y-70561478D01*
X167001511Y-70575729D01*
X166984524Y-70591494D01*
X166958968Y-70614229D01*
X166935616Y-70632131D01*
X166916277Y-70643825D01*
X166914705Y-70644567D01*
X166903797Y-70649586D01*
X166895929Y-70654130D01*
X166890304Y-70659866D01*
X166886126Y-70668459D01*
X166882601Y-70681577D01*
X166878932Y-70700884D01*
X166874323Y-70728046D01*
X166874043Y-70729706D01*
X166870151Y-70754400D01*
X166868241Y-70771992D01*
X166868222Y-70784930D01*
X166870003Y-70795661D01*
X166871407Y-70800546D01*
X166876237Y-70817374D01*
X166882535Y-70841635D01*
X166889805Y-70871188D01*
X166897552Y-70903895D01*
X166905283Y-70937615D01*
X166912501Y-70970209D01*
X166918714Y-70999538D01*
X166923425Y-71023461D01*
X166924988Y-71032280D01*
X166927527Y-71051705D01*
X166930042Y-71078624D01*
X166932371Y-71110759D01*
X166934352Y-71145834D01*
X166935823Y-71181572D01*
X166936012Y-71187579D01*
X166937149Y-71224479D01*
X166938297Y-71252761D01*
X166939788Y-71273573D01*
X166941954Y-71288062D01*
X166945127Y-71297376D01*
X166949638Y-71302662D01*
X166955821Y-71305069D01*
X166964006Y-71305744D01*
X166970207Y-71305796D01*
X166986746Y-71308429D01*
X167010382Y-71315845D01*
X167040021Y-71327500D01*
X167074572Y-71342848D01*
X167112940Y-71361342D01*
X167154035Y-71382437D01*
X167196761Y-71405586D01*
X167240029Y-71430245D01*
X167282743Y-71455867D01*
X167323812Y-71481905D01*
X167327324Y-71484207D01*
X167362718Y-71508276D01*
X167403276Y-71537204D01*
X167446856Y-71569358D01*
X167491314Y-71603109D01*
X167534508Y-71636827D01*
X167574295Y-71668881D01*
X167608534Y-71697642D01*
X167613471Y-71701931D01*
X167636130Y-71722128D01*
X167663656Y-71747291D01*
X167693988Y-71775501D01*
X167725066Y-71804834D01*
X167754827Y-71833368D01*
X167764923Y-71843173D01*
X167793300Y-71870514D01*
X167823394Y-71898942D01*
X167853242Y-71926641D01*
X167880884Y-71951797D01*
X167904355Y-71972597D01*
X167912161Y-71979310D01*
X167940293Y-72004851D01*
X167972605Y-72036955D01*
X168007774Y-72074113D01*
X168044474Y-72114816D01*
X168081383Y-72157555D01*
X168117175Y-72200818D01*
X168150527Y-72243098D01*
X168180115Y-72282885D01*
X168187110Y-72292753D01*
X168203438Y-72316222D01*
X168219865Y-72340125D01*
X168235450Y-72363061D01*
X168249254Y-72383630D01*
X168260336Y-72400429D01*
X168267756Y-72412059D01*
X168270575Y-72417118D01*
X168270578Y-72417161D01*
X168273176Y-72422238D01*
X168279900Y-72432704D01*
X168286969Y-72442973D01*
X168301718Y-72465577D01*
X168319484Y-72495646D01*
X168339440Y-72531664D01*
X168360757Y-72572112D01*
X168382610Y-72615473D01*
X168395706Y-72642408D01*
X168410615Y-72672912D01*
X168422948Y-72696081D01*
X168434041Y-72713531D01*
X168445229Y-72726880D01*
X168457851Y-72737747D01*
X168473241Y-72747749D01*
X168490727Y-72757434D01*
X168518509Y-72776004D01*
X168546784Y-72802541D01*
X168576066Y-72837593D01*
X168604390Y-72877907D01*
X168631916Y-72921157D01*
X168654086Y-72959471D01*
X168671975Y-72995267D01*
X168686662Y-73030964D01*
X168699223Y-73068979D01*
X168710735Y-73111732D01*
X168713397Y-73122698D01*
X168719146Y-73148300D01*
X168722518Y-73168724D01*
X168723870Y-73188052D01*
X168723559Y-73210366D01*
X168722639Y-73228337D01*
X168716014Y-73281863D01*
X168702855Y-73328425D01*
X168683225Y-73367885D01*
X168657184Y-73400103D01*
X168641077Y-73413988D01*
X168613211Y-73434438D01*
X168591108Y-73448753D01*
X168573361Y-73457436D01*
X168558562Y-73460992D01*
X168545304Y-73459922D01*
X168532181Y-73454731D01*
X168530171Y-73453648D01*
X168515036Y-73442711D01*
X168496909Y-73425788D01*
X168477931Y-73405204D01*
X168460244Y-73383287D01*
X168445988Y-73362364D01*
X168445604Y-73361724D01*
X168436864Y-73345549D01*
X168425312Y-73321948D01*
X168411680Y-73292601D01*
X168396698Y-73259187D01*
X168381098Y-73223386D01*
X168365610Y-73186878D01*
X168350965Y-73151344D01*
X168337894Y-73118462D01*
X168327127Y-73089915D01*
X168325951Y-73086656D01*
X168312338Y-73050172D01*
X168299900Y-73021250D01*
X168287258Y-72998021D01*
X168273032Y-72978615D01*
X168255845Y-72961163D01*
X168234318Y-72943796D01*
X168207072Y-72924643D01*
X168205878Y-72923836D01*
X168188662Y-72911142D01*
X168167044Y-72893602D01*
X168143500Y-72873308D01*
X168120507Y-72852350D01*
X168115053Y-72847172D01*
X168094224Y-72826555D01*
X168070051Y-72801558D01*
X168044003Y-72773805D01*
X168017551Y-72744920D01*
X167992163Y-72716526D01*
X167969311Y-72690246D01*
X167950463Y-72667704D01*
X167937461Y-72651031D01*
X167930686Y-72641911D01*
X167928227Y-72638633D01*
X167965846Y-72638633D01*
X167968063Y-72643607D01*
X167976090Y-72654546D01*
X167988962Y-72670372D01*
X168005715Y-72690006D01*
X168025385Y-72712372D01*
X168047008Y-72736392D01*
X168069619Y-72760988D01*
X168092254Y-72785082D01*
X168113949Y-72807598D01*
X168133740Y-72827457D01*
X168141850Y-72835319D01*
X168163641Y-72855315D01*
X168186931Y-72875300D01*
X168208939Y-72892962D01*
X168226884Y-72905990D01*
X168226962Y-72906042D01*
X168254760Y-72925487D01*
X168277169Y-72944043D01*
X168295512Y-72963521D01*
X168311109Y-72985735D01*
X168325285Y-73012496D01*
X168339360Y-73045617D01*
X168350540Y-73075429D01*
X168359593Y-73099513D01*
X168371042Y-73128564D01*
X168384181Y-73160920D01*
X168398302Y-73194921D01*
X168412699Y-73228904D01*
X168426665Y-73261210D01*
X168439493Y-73290176D01*
X168450475Y-73314141D01*
X168458906Y-73331444D01*
X168461739Y-73336722D01*
X168476466Y-73359863D01*
X168493584Y-73382347D01*
X168511641Y-73402679D01*
X168529181Y-73419366D01*
X168544751Y-73430913D01*
X168556897Y-73435827D01*
X168558277Y-73435900D01*
X168565265Y-73433061D01*
X168577954Y-73425447D01*
X168594355Y-73414316D01*
X168607682Y-73404581D01*
X168631039Y-73386152D01*
X168648015Y-73370018D01*
X168660616Y-73353470D01*
X168670855Y-73333797D01*
X168680738Y-73308292D01*
X168682221Y-73304063D01*
X168693037Y-73266107D01*
X168698087Y-73229346D01*
X168697433Y-73191109D01*
X168691139Y-73148728D01*
X168686369Y-73127117D01*
X168675120Y-73083365D01*
X168663662Y-73046524D01*
X168650906Y-73013774D01*
X168635766Y-72982295D01*
X168618957Y-72952303D01*
X168590965Y-72906573D01*
X168565592Y-72868878D01*
X168541913Y-72838149D01*
X168518998Y-72813318D01*
X168495920Y-72793314D01*
X168471750Y-72777071D01*
X168462141Y-72771691D01*
X168433259Y-72753213D01*
X168411555Y-72731466D01*
X168394560Y-72703742D01*
X168389000Y-72691497D01*
X168379294Y-72669972D01*
X168365909Y-72642236D01*
X168350020Y-72610557D01*
X168332801Y-72577204D01*
X168315428Y-72544446D01*
X168299076Y-72514550D01*
X168284920Y-72489787D01*
X168281866Y-72484670D01*
X168257626Y-72444524D01*
X168238453Y-72454780D01*
X168222291Y-72463995D01*
X168200936Y-72477014D01*
X168175592Y-72493025D01*
X168147459Y-72511218D01*
X168117741Y-72530782D01*
X168087639Y-72550907D01*
X168058356Y-72570781D01*
X168031094Y-72589594D01*
X168007055Y-72606535D01*
X167987442Y-72620793D01*
X167973456Y-72631557D01*
X167966300Y-72638016D01*
X167965846Y-72638633D01*
X167928227Y-72638633D01*
X167919287Y-72626718D01*
X167904550Y-72607161D01*
G37*
G36*
X166100451Y-71230145D02*
G01*
X166117960Y-71137320D01*
X166124712Y-71100313D01*
X166132140Y-71057587D01*
X166139577Y-71013101D01*
X166146357Y-70970814D01*
X166150179Y-70945833D01*
X166155373Y-70911611D01*
X166159845Y-70884667D01*
X166164217Y-70862598D01*
X166169112Y-70843003D01*
X166175153Y-70823481D01*
X166182963Y-70801630D01*
X166193164Y-70775049D01*
X166197069Y-70765067D01*
X166208221Y-70736565D01*
X166218851Y-70709309D01*
X166228149Y-70685383D01*
X166235303Y-70666872D01*
X166238825Y-70657661D01*
X166244160Y-70645759D01*
X166251494Y-70634352D01*
X166262253Y-70621761D01*
X166277861Y-70606308D01*
X166298257Y-70587647D01*
X166318265Y-70570208D01*
X166337399Y-70554431D01*
X166353670Y-70541898D01*
X166365089Y-70534189D01*
X166366319Y-70533517D01*
X166384526Y-70524100D01*
X166381666Y-70540019D01*
X166379520Y-70550426D01*
X166375580Y-70568146D01*
X166370343Y-70590991D01*
X166364305Y-70616776D01*
X166362021Y-70626400D01*
X166344608Y-70703597D01*
X166328473Y-70783170D01*
X166314043Y-70862669D01*
X166301743Y-70939641D01*
X166292001Y-71011636D01*
X166286796Y-71059151D01*
X166283030Y-71091051D01*
X166277859Y-71118301D01*
X166270417Y-71142290D01*
X166259836Y-71164404D01*
X166245251Y-71186030D01*
X166225797Y-71208555D01*
X166200607Y-71233366D01*
X166168814Y-71261850D01*
X166150248Y-71277839D01*
X166111371Y-71310504D01*
X166078298Y-71337037D01*
X166049915Y-71358203D01*
X166025105Y-71374767D01*
X166002752Y-71387494D01*
X165981741Y-71397150D01*
X165969858Y-71401602D01*
X165949886Y-71407599D01*
X165928885Y-71412429D01*
X165908960Y-71415802D01*
X165892212Y-71417430D01*
X165880745Y-71417022D01*
X165876656Y-71414419D01*
X165881089Y-71406306D01*
X165893741Y-71395534D01*
X165913644Y-71382767D01*
X165939831Y-71368672D01*
X165951174Y-71363132D01*
X165990604Y-71342178D01*
X166022914Y-71319705D01*
X166050735Y-71293621D01*
X166054608Y-71288937D01*
X166094022Y-71288937D01*
X166098131Y-71286561D01*
X166101826Y-71283495D01*
X166109933Y-71276525D01*
X166123642Y-71264767D01*
X166141129Y-71249782D01*
X166160570Y-71233134D01*
X166163271Y-71230822D01*
X166194550Y-71202526D01*
X166218304Y-71176990D01*
X166235616Y-71152349D01*
X166247566Y-71126733D01*
X166255234Y-71098276D01*
X166259702Y-71065109D01*
X166259797Y-71064036D01*
X166263544Y-71028315D01*
X166269073Y-70985456D01*
X166276058Y-70937345D01*
X166284172Y-70885864D01*
X166293090Y-70832898D01*
X166302486Y-70780329D01*
X166312032Y-70730042D01*
X166321402Y-70683920D01*
X166330271Y-70643846D01*
X166337867Y-70613344D01*
X166341224Y-70599260D01*
X166342599Y-70589944D01*
X166342116Y-70587695D01*
X166337558Y-70590745D01*
X166327498Y-70598943D01*
X166313657Y-70610855D01*
X166304677Y-70618812D01*
X166286565Y-70635828D01*
X166274291Y-70649813D01*
X166265794Y-70663490D01*
X166259348Y-70678661D01*
X166253887Y-70693248D01*
X166245768Y-70714595D01*
X166235886Y-70740360D01*
X166225140Y-70768201D01*
X166219225Y-70783450D01*
X166208809Y-70810636D01*
X166200787Y-70832996D01*
X166194542Y-70852950D01*
X166189457Y-70872921D01*
X166184915Y-70895329D01*
X166180299Y-70922594D01*
X166175030Y-70956887D01*
X166169061Y-70995288D01*
X166162019Y-71038507D01*
X166154572Y-71082557D01*
X166147391Y-71123451D01*
X166143273Y-71145972D01*
X166136795Y-71179758D01*
X166131395Y-71205457D01*
X166126640Y-71224636D01*
X166122095Y-71238861D01*
X166117328Y-71249698D01*
X166112159Y-71258340D01*
X166100751Y-71275520D01*
X166094801Y-71285488D01*
X166094022Y-71288937D01*
X166054608Y-71288937D01*
X166073975Y-71265512D01*
X166100451Y-71230145D01*
G37*
G36*
X165173137Y-70998267D02*
G01*
X165173708Y-70989058D01*
X165175353Y-70971090D01*
X165177968Y-70945305D01*
X165181450Y-70912644D01*
X165185696Y-70874048D01*
X165190602Y-70830460D01*
X165196065Y-70782819D01*
X165201982Y-70732068D01*
X165207335Y-70686813D01*
X165213515Y-70634819D01*
X165219335Y-70585665D01*
X165224696Y-70540216D01*
X165229495Y-70499339D01*
X165233632Y-70463901D01*
X165237005Y-70434767D01*
X165239513Y-70412805D01*
X165241055Y-70398880D01*
X165241534Y-70393913D01*
X165243403Y-70390157D01*
X165249595Y-70384385D01*
X165260989Y-70375975D01*
X165278465Y-70364305D01*
X165302900Y-70348755D01*
X165324013Y-70335602D01*
X165356345Y-70315573D01*
X165390544Y-70324921D01*
X165415370Y-70331870D01*
X165446247Y-70340775D01*
X165482220Y-70351342D01*
X165522332Y-70363275D01*
X165565629Y-70376280D01*
X165611154Y-70390062D01*
X165657953Y-70404325D01*
X165705069Y-70418775D01*
X165751548Y-70433116D01*
X165796433Y-70447054D01*
X165838769Y-70460295D01*
X165877600Y-70472541D01*
X165911972Y-70483500D01*
X165940928Y-70492876D01*
X165963512Y-70500373D01*
X165978770Y-70505698D01*
X165985745Y-70508555D01*
X165985992Y-70508728D01*
X165993681Y-70517380D01*
X166004872Y-70532248D01*
X166018195Y-70551246D01*
X166032273Y-70572288D01*
X166045735Y-70593288D01*
X166057206Y-70612160D01*
X166065314Y-70626819D01*
X166068376Y-70633842D01*
X166069882Y-70644624D01*
X166069416Y-70661599D01*
X166066897Y-70685889D01*
X166062468Y-70717162D01*
X166058504Y-70743793D01*
X166053696Y-70777284D01*
X166048438Y-70814798D01*
X166043129Y-70853505D01*
X166038164Y-70890569D01*
X166037838Y-70893042D01*
X166032689Y-70931833D01*
X166026983Y-70974300D01*
X166021180Y-71017058D01*
X166015739Y-71056724D01*
X166011323Y-71088464D01*
X166004464Y-71136932D01*
X165998665Y-71176632D01*
X165993672Y-71208479D01*
X165989236Y-71233388D01*
X165985104Y-71252274D01*
X165981025Y-71266052D01*
X165976748Y-71275638D01*
X165972022Y-71281945D01*
X165966594Y-71285890D01*
X165960214Y-71288387D01*
X165956091Y-71289504D01*
X165944632Y-71294238D01*
X165929628Y-71302769D01*
X165920149Y-71309124D01*
X165903193Y-71319661D01*
X165888244Y-71324428D01*
X165876073Y-71325188D01*
X165866127Y-71323553D01*
X165847124Y-71318798D01*
X165819247Y-71310976D01*
X165782680Y-71300145D01*
X165737604Y-71286357D01*
X165684204Y-71269670D01*
X165622663Y-71250137D01*
X165567406Y-71232407D01*
X165516354Y-71215928D01*
X165467925Y-71200240D01*
X165422945Y-71185614D01*
X165382238Y-71172319D01*
X165346629Y-71160627D01*
X165316942Y-71150808D01*
X165294004Y-71143135D01*
X165278637Y-71137877D01*
X165271668Y-71135306D01*
X165271465Y-71135207D01*
X165265619Y-71129534D01*
X165255807Y-71117324D01*
X165243317Y-71100280D01*
X165229438Y-71080103D01*
X165227067Y-71076537D01*
X165209315Y-71050696D01*
X165195800Y-71033319D01*
X165186322Y-71024164D01*
X165182240Y-71022509D01*
X165176727Y-71020987D01*
X165173991Y-71014860D01*
X165173513Y-71007401D01*
X165217683Y-71007401D01*
X165220010Y-71014902D01*
X165225739Y-71025531D01*
X165235600Y-71040942D01*
X165249751Y-71061948D01*
X165285451Y-71114529D01*
X165320898Y-71125110D01*
X165332396Y-71128658D01*
X165352163Y-71134891D01*
X165379175Y-71143482D01*
X165412405Y-71154102D01*
X165450829Y-71166422D01*
X165493420Y-71180113D01*
X165539154Y-71194848D01*
X165587006Y-71210298D01*
X165603065Y-71215491D01*
X165650401Y-71230742D01*
X165695173Y-71245052D01*
X165736474Y-71258140D01*
X165773400Y-71269725D01*
X165805045Y-71279523D01*
X165830503Y-71287255D01*
X165848869Y-71292638D01*
X165859236Y-71295391D01*
X165861001Y-71295696D01*
X165872341Y-71292647D01*
X165883292Y-71285023D01*
X165885924Y-71281831D01*
X165888393Y-71277226D01*
X165890847Y-71270380D01*
X165893433Y-71260462D01*
X165896298Y-71246643D01*
X165899591Y-71228094D01*
X165903458Y-71203985D01*
X165908047Y-71173487D01*
X165913506Y-71135770D01*
X165919983Y-71090004D01*
X165927384Y-71037081D01*
X165934120Y-70989379D01*
X165940688Y-70944064D01*
X165946925Y-70902171D01*
X165952669Y-70864737D01*
X165957758Y-70832794D01*
X165962032Y-70807379D01*
X165965328Y-70789525D01*
X165967484Y-70780268D01*
X165967559Y-70780051D01*
X165978232Y-70758648D01*
X165991941Y-70746322D01*
X166001170Y-70743252D01*
X166005924Y-70743056D01*
X166009697Y-70744737D01*
X166012447Y-70749010D01*
X166014133Y-70756589D01*
X166014712Y-70768191D01*
X166014142Y-70784529D01*
X166012382Y-70806319D01*
X166009390Y-70834276D01*
X166005123Y-70869115D01*
X165999541Y-70911550D01*
X165992600Y-70962297D01*
X165985225Y-71015181D01*
X165978647Y-71062360D01*
X165972559Y-71106536D01*
X165967083Y-71146779D01*
X165962343Y-71182157D01*
X165958462Y-71211741D01*
X165955564Y-71234597D01*
X165953772Y-71249796D01*
X165953210Y-71256407D01*
X165953244Y-71256608D01*
X165956032Y-71257288D01*
X165958912Y-71251399D01*
X165962158Y-71237988D01*
X165966046Y-71216104D01*
X165967421Y-71207472D01*
X165972259Y-71175626D01*
X165978102Y-71135640D01*
X165984735Y-71089070D01*
X165991938Y-71037470D01*
X165999495Y-70982395D01*
X166007188Y-70925401D01*
X166013438Y-70878385D01*
X166018145Y-70843128D01*
X166022998Y-70807514D01*
X166027660Y-70773949D01*
X166031798Y-70744841D01*
X166035075Y-70722597D01*
X166035533Y-70719605D01*
X166039869Y-70690924D01*
X166042351Y-70669532D01*
X166042515Y-70653043D01*
X166039898Y-70639074D01*
X166034034Y-70625241D01*
X166024460Y-70609161D01*
X166010711Y-70588449D01*
X166009714Y-70586962D01*
X165996039Y-70566961D01*
X165983703Y-70549616D01*
X165974030Y-70536742D01*
X165968343Y-70530153D01*
X165968223Y-70530050D01*
X165962507Y-70527719D01*
X165948396Y-70522903D01*
X165926862Y-70515900D01*
X165898879Y-70507003D01*
X165865418Y-70496508D01*
X165827452Y-70484712D01*
X165785954Y-70471908D01*
X165741896Y-70458393D01*
X165696251Y-70444461D01*
X165649992Y-70430409D01*
X165604090Y-70416532D01*
X165559519Y-70403124D01*
X165517250Y-70390481D01*
X165478257Y-70378899D01*
X165443512Y-70368673D01*
X165413988Y-70360099D01*
X165390656Y-70353471D01*
X165374491Y-70349085D01*
X165366463Y-70347237D01*
X165366176Y-70347205D01*
X165355314Y-70349472D01*
X165340277Y-70356271D01*
X165324271Y-70365728D01*
X165310501Y-70375968D01*
X165302626Y-70384369D01*
X165300715Y-70388438D01*
X165298713Y-70395294D01*
X165296501Y-70405756D01*
X165293960Y-70420636D01*
X165290973Y-70440753D01*
X165287422Y-70466922D01*
X165283189Y-70499958D01*
X165278155Y-70540677D01*
X165272202Y-70589895D01*
X165268956Y-70617008D01*
X165266448Y-70639267D01*
X165264655Y-70657681D01*
X165263753Y-70670262D01*
X165263873Y-70674995D01*
X165268041Y-70672938D01*
X165277483Y-70665830D01*
X165290222Y-70655168D01*
X165291253Y-70654269D01*
X165313054Y-70636484D01*
X165331422Y-70625160D01*
X165349122Y-70619207D01*
X165368919Y-70617530D01*
X165382815Y-70618113D01*
X165407851Y-70621448D01*
X165428887Y-70628398D01*
X165448911Y-70640403D01*
X165470911Y-70658902D01*
X165474474Y-70662238D01*
X165488233Y-70674784D01*
X165497155Y-70681287D01*
X165503158Y-70682759D01*
X165508162Y-70680216D01*
X165508295Y-70680107D01*
X165514898Y-70676506D01*
X165520975Y-70679756D01*
X165525335Y-70684734D01*
X165536129Y-70704599D01*
X165542507Y-70730214D01*
X165544240Y-70758504D01*
X165541102Y-70786391D01*
X165534406Y-70807545D01*
X165528625Y-70817260D01*
X165519235Y-70829773D01*
X165507762Y-70843441D01*
X165495729Y-70856616D01*
X165484661Y-70867655D01*
X165476084Y-70874913D01*
X165471522Y-70876743D01*
X165471155Y-70875788D01*
X165467100Y-70871819D01*
X165461384Y-70869641D01*
X165453130Y-70863678D01*
X165452914Y-70852329D01*
X165459457Y-70837907D01*
X165462963Y-70831086D01*
X165461589Y-70831208D01*
X165460678Y-70832197D01*
X165450315Y-70841838D01*
X165438003Y-70850507D01*
X165427391Y-70855780D01*
X165424225Y-70856400D01*
X165418032Y-70852300D01*
X165415879Y-70841566D01*
X165417967Y-70826547D01*
X165419587Y-70821591D01*
X165467539Y-70821591D01*
X165471118Y-70819250D01*
X165471762Y-70818618D01*
X165475621Y-70812213D01*
X165475097Y-70809858D01*
X165471463Y-70811324D01*
X165469027Y-70815884D01*
X165467539Y-70821591D01*
X165419587Y-70821591D01*
X165420945Y-70817434D01*
X165424933Y-70805598D01*
X165426033Y-70795158D01*
X165424249Y-70782217D01*
X165420996Y-70768427D01*
X165419774Y-70763575D01*
X165447499Y-70763575D01*
X165448267Y-70770510D01*
X165449963Y-70769682D01*
X165450609Y-70759679D01*
X165449963Y-70757468D01*
X165448180Y-70756854D01*
X165447499Y-70763575D01*
X165419774Y-70763575D01*
X165413494Y-70738647D01*
X165432554Y-70726034D01*
X165443834Y-70717853D01*
X165450671Y-70711512D01*
X165451613Y-70709753D01*
X165447930Y-70703644D01*
X165438471Y-70694140D01*
X165425624Y-70683217D01*
X165411777Y-70672851D01*
X165399317Y-70665017D01*
X165395047Y-70662946D01*
X165377823Y-70657757D01*
X165359119Y-70656702D01*
X165336647Y-70659927D01*
X165308120Y-70667581D01*
X165304077Y-70668837D01*
X165285771Y-70674654D01*
X165271497Y-70679312D01*
X165263449Y-70682091D01*
X165262455Y-70682522D01*
X165261645Y-70687420D01*
X165259860Y-70700841D01*
X165257246Y-70721601D01*
X165253949Y-70748517D01*
X165250114Y-70780405D01*
X165245888Y-70816083D01*
X165243995Y-70832223D01*
X165239436Y-70869952D01*
X165234909Y-70905095D01*
X165230607Y-70936321D01*
X165226723Y-70962302D01*
X165223451Y-70981710D01*
X165220983Y-70993215D01*
X165220326Y-70995174D01*
X165218031Y-71001376D01*
X165217683Y-71007401D01*
X165173513Y-71007401D01*
X165173154Y-71001791D01*
X165173137Y-70998267D01*
G37*
G36*
X165345944Y-68512034D02*
G01*
X165349382Y-68475019D01*
X165351340Y-68461772D01*
X165369036Y-68384095D01*
X165395406Y-68310916D01*
X165430471Y-68242192D01*
X165474254Y-68177878D01*
X165526777Y-68117932D01*
X165527319Y-68117382D01*
X165572692Y-68075241D01*
X165617617Y-68041553D01*
X165663681Y-68015211D01*
X165692429Y-68002511D01*
X165710513Y-67995610D01*
X165725333Y-67991035D01*
X165739852Y-67988302D01*
X165757033Y-67986926D01*
X165779840Y-67986422D01*
X165791159Y-67986356D01*
X165816744Y-67986430D01*
X165835173Y-67987147D01*
X165849063Y-67988914D01*
X165861026Y-67992137D01*
X165873677Y-67997222D01*
X165880244Y-68000205D01*
X165914018Y-68021124D01*
X165942839Y-68050184D01*
X165966359Y-68086907D01*
X165984227Y-68130814D01*
X165989594Y-68149803D01*
X165993831Y-68175325D01*
X165995925Y-68207854D01*
X165995937Y-68244880D01*
X165993925Y-68283891D01*
X165989947Y-68322373D01*
X165984794Y-68354184D01*
X165968676Y-68421451D01*
X165947309Y-68487328D01*
X165921279Y-68550980D01*
X165891173Y-68611572D01*
X165857579Y-68668269D01*
X165821083Y-68720236D01*
X165782272Y-68766638D01*
X165741734Y-68806640D01*
X165700056Y-68839407D01*
X165657825Y-68864104D01*
X165615627Y-68879896D01*
X165615076Y-68880041D01*
X165580098Y-68886006D01*
X165545053Y-68886358D01*
X165513803Y-68881085D01*
X165511479Y-68880387D01*
X165473848Y-68863565D01*
X165439988Y-68837956D01*
X165410177Y-68803897D01*
X165384695Y-68761729D01*
X165363820Y-68711790D01*
X165358202Y-68694366D01*
X165352077Y-68666850D01*
X165347713Y-68632283D01*
X165345186Y-68593241D01*
X165344800Y-68567518D01*
X165371393Y-68567518D01*
X165371600Y-68598136D01*
X165372246Y-68621365D01*
X165373598Y-68639583D01*
X165375919Y-68655170D01*
X165379477Y-68670506D01*
X165384536Y-68687970D01*
X165385012Y-68689525D01*
X165400357Y-68732759D01*
X165417627Y-68767846D01*
X165437699Y-68796352D01*
X165454426Y-68813726D01*
X165485807Y-68838314D01*
X165517020Y-68853830D01*
X165549659Y-68860630D01*
X165585318Y-68859070D01*
X165620894Y-68850937D01*
X165653910Y-68836982D01*
X165688827Y-68814632D01*
X165724754Y-68784857D01*
X165760797Y-68748624D01*
X165796065Y-68706902D01*
X165829663Y-68660659D01*
X165860701Y-68610864D01*
X165885913Y-68563390D01*
X165910931Y-68506952D01*
X165932149Y-68448566D01*
X165949191Y-68389903D01*
X165961680Y-68332634D01*
X165969237Y-68278429D01*
X165971487Y-68228960D01*
X165969265Y-68194348D01*
X165959583Y-68144595D01*
X165944020Y-68102417D01*
X165922677Y-68067926D01*
X165895654Y-68041232D01*
X165863051Y-68022448D01*
X165824968Y-68011686D01*
X165803373Y-68009316D01*
X165761301Y-68011514D01*
X165717446Y-68022401D01*
X165672740Y-68041278D01*
X165628116Y-68067449D01*
X165584507Y-68100216D01*
X165542844Y-68138880D01*
X165504059Y-68182745D01*
X165469086Y-68231113D01*
X165439848Y-68281356D01*
X165412628Y-68339781D01*
X165392837Y-68396241D01*
X165379824Y-68453465D01*
X165372934Y-68514185D01*
X165371393Y-68567518D01*
X165344800Y-68567518D01*
X165344571Y-68552300D01*
X165345944Y-68512034D01*
G37*
G36*
X166355441Y-68460653D02*
G01*
X166359510Y-68446493D01*
X166369802Y-68432073D01*
X166383442Y-68420697D01*
X166394151Y-68416148D01*
X166413595Y-68416408D01*
X166432057Y-68424305D01*
X166447110Y-68437907D01*
X166456323Y-68455286D01*
X166458038Y-68466891D01*
X166453838Y-68485569D01*
X166442881Y-68501788D01*
X166432901Y-68509257D01*
X166417204Y-68515090D01*
X166402067Y-68514575D01*
X166386292Y-68509069D01*
X166370859Y-68497598D01*
X166359777Y-68480317D01*
X166356324Y-68464921D01*
X166384754Y-68464921D01*
X166388695Y-68478330D01*
X166400030Y-68485675D01*
X166409987Y-68486906D01*
X166423411Y-68483037D01*
X166428900Y-68476807D01*
X166431592Y-68466721D01*
X166427188Y-68455865D01*
X166426516Y-68454822D01*
X166415921Y-68445289D01*
X166403663Y-68443074D01*
X166392638Y-68447475D01*
X166385746Y-68457793D01*
X166384754Y-68464921D01*
X166356324Y-68464921D01*
X166355442Y-68460988D01*
X166355441Y-68460653D01*
G37*
G36*
X165326263Y-70705502D02*
G01*
X165329368Y-70708373D01*
X165331062Y-70715401D01*
X165331770Y-70728420D01*
X165331917Y-70749267D01*
X165331917Y-70796590D01*
X165316108Y-70806953D01*
X165305354Y-70813604D01*
X165298456Y-70817140D01*
X165297715Y-70817316D01*
X165293766Y-70813566D01*
X165287221Y-70804272D01*
X165285451Y-70801438D01*
X165277168Y-70778886D01*
X165277281Y-70753841D01*
X165285296Y-70729784D01*
X165295204Y-70714494D01*
X165306660Y-70706884D01*
X165321324Y-70704951D01*
X165326263Y-70705502D01*
G37*
G36*
X165729478Y-70621890D02*
G01*
X165725183Y-70600419D01*
X165722850Y-70589903D01*
X165721556Y-70580318D01*
X165724533Y-70574079D01*
X165733784Y-70568227D01*
X165739392Y-70565475D01*
X165751326Y-70559140D01*
X165758460Y-70554164D01*
X165759347Y-70552843D01*
X165755698Y-70546908D01*
X165746219Y-70537635D01*
X165733306Y-70526957D01*
X165719355Y-70516805D01*
X165706765Y-70509114D01*
X165702731Y-70507194D01*
X165685260Y-70502684D01*
X165659863Y-70500108D01*
X165640332Y-70499571D01*
X165595737Y-70499388D01*
X165615279Y-70482461D01*
X165630774Y-70471298D01*
X165647433Y-70462576D01*
X165654016Y-70460236D01*
X165682638Y-70457148D01*
X165712990Y-70462347D01*
X165743036Y-70475107D01*
X165770737Y-70494699D01*
X165782389Y-70506085D01*
X165795114Y-70518659D01*
X165803459Y-70523731D01*
X165807824Y-70522663D01*
X165814376Y-70521453D01*
X165821839Y-70529137D01*
X165829661Y-70544950D01*
X165835067Y-70560489D01*
X165840787Y-70584371D01*
X165841762Y-70606122D01*
X165837870Y-70629630D01*
X165832231Y-70649063D01*
X165823762Y-70670280D01*
X165812797Y-70686184D01*
X165797143Y-70698985D01*
X165774609Y-70710893D01*
X165767968Y-70713848D01*
X165744776Y-70723928D01*
X165761861Y-70690914D01*
X165770039Y-70674500D01*
X165776025Y-70661316D01*
X165778703Y-70653847D01*
X165778750Y-70653332D01*
X165776696Y-70653948D01*
X165771885Y-70661325D01*
X165770739Y-70663421D01*
X165762693Y-70675907D01*
X165752385Y-70688581D01*
X165741883Y-70699292D01*
X165733253Y-70705893D01*
X165729056Y-70706752D01*
X165726133Y-70700062D01*
X165725367Y-70687157D01*
X165726722Y-70671344D01*
X165729556Y-70657952D01*
X165731440Y-70648372D01*
X165731460Y-70643878D01*
X165778945Y-70643878D01*
X165781388Y-70646321D01*
X165783831Y-70643878D01*
X165781388Y-70641436D01*
X165778945Y-70643878D01*
X165731460Y-70643878D01*
X165731489Y-70637112D01*
X165729478Y-70621890D01*
G37*
G36*
X165580126Y-70605651D02*
G01*
X165586009Y-70580660D01*
X165599594Y-70560071D01*
X165617672Y-70544946D01*
X165631573Y-70536449D01*
X165639048Y-70534656D01*
X165640864Y-70539654D01*
X165639132Y-70547389D01*
X165637175Y-70558644D01*
X165635697Y-70576228D01*
X165634970Y-70596701D01*
X165634938Y-70600682D01*
X165634649Y-70620682D01*
X165633483Y-70633446D01*
X165630777Y-70641509D01*
X165625869Y-70647402D01*
X165621837Y-70650759D01*
X165609405Y-70658967D01*
X165600535Y-70659367D01*
X165592316Y-70651471D01*
X165588065Y-70645100D01*
X165581299Y-70630170D01*
X165580298Y-70619451D01*
X165603065Y-70619451D01*
X165605508Y-70621893D01*
X165607951Y-70619451D01*
X165605508Y-70617008D01*
X165603065Y-70619451D01*
X165580298Y-70619451D01*
X165579685Y-70612883D01*
X165580126Y-70605651D01*
G37*
D11*
%TO.C,J19*%
X163207000Y-57665000D02*
X163207000Y-62745000D01*
X163207000Y-57665000D02*
X112407000Y-57665000D01*
X114947000Y-60205000D02*
X114947000Y-62745000D01*
X112127000Y-63025000D02*
X113677000Y-63025000D01*
X112407000Y-57665000D02*
X112407000Y-60205000D01*
X114947000Y-62745000D02*
X163207000Y-62745000D01*
X112127000Y-61475000D02*
X112127000Y-63025000D01*
X112407000Y-60205000D02*
X114947000Y-60205000D01*
D17*
%TO.C,J12*%
X167675000Y-97837000D02*
X165015000Y-97837000D01*
X167675000Y-100437000D02*
X167675000Y-97837000D01*
X166345000Y-103037000D02*
X165015000Y-103037000D01*
X167675000Y-100437000D02*
X165015000Y-100437000D01*
X165015000Y-100437000D02*
X165015000Y-97837000D01*
X165015000Y-103037000D02*
X165015000Y-101707000D01*
%TD*%
D18*
%TO.C,J19*%
X161937000Y-58935000D03*
X161937000Y-61475000D03*
X159397000Y-58935000D03*
X159397000Y-61475000D03*
X156857000Y-58935000D03*
X156857000Y-61475000D03*
X154317000Y-58935000D03*
X154317000Y-61475000D03*
X151777000Y-58935000D03*
X151777000Y-61475000D03*
X149237000Y-58935000D03*
X149237000Y-61475000D03*
X146697000Y-58935000D03*
X146697000Y-61475000D03*
X144157000Y-58935000D03*
X144157000Y-61475000D03*
X141617000Y-58935000D03*
X141617000Y-61475000D03*
X139077000Y-58935000D03*
X139077000Y-61475000D03*
X136537000Y-58935000D03*
X136537000Y-61475000D03*
X133997000Y-58935000D03*
X133997000Y-61475000D03*
X131457000Y-58935000D03*
X131457000Y-61475000D03*
X128917000Y-58935000D03*
X128917000Y-61475000D03*
X126377000Y-58935000D03*
X126377000Y-61475000D03*
X123837000Y-58935000D03*
X123837000Y-61475000D03*
X121297000Y-58935000D03*
X121297000Y-61475000D03*
X118757000Y-58935000D03*
X118757000Y-61475000D03*
X116217000Y-58935000D03*
X116217000Y-61475000D03*
X113677000Y-58935000D03*
D19*
X113677000Y-61475000D03*
%TD*%
M02*
