%TF.GenerationSoftware,KiCad,Pcbnew,(6.0.7)*%
%TF.CreationDate,2022-10-26T04:57:18-04:00*%
%TF.ProjectId,RPi_Hat,5250695f-4861-4742-9e6b-696361645f70,rev?*%
%TF.SameCoordinates,Original*%
%TF.FileFunction,Drillmap*%
%TF.FilePolarity,Positive*%
%FSLAX45Y45*%
G04 Gerber Fmt 4.5, Leading zero omitted, Abs format (unit mm)*
G04 Created by KiCad (PCBNEW (6.0.7)) date 2022-10-26 04:57:18*
%MOMM*%
%LPD*%
G01*
G04 APERTURE LIST*
%ADD10C,0.200000*%
%ADD11C,0.040000*%
%ADD12C,0.100000*%
%ADD13C,0.101600*%
G04 APERTURE END LIST*
D10*
X10530700Y-10970500D02*
G75*
G03*
X10830700Y-11270500I300000J0D01*
G01*
X16730700Y-11270500D02*
G75*
G03*
X17030700Y-10970500I0J300000D01*
G01*
X10530700Y-7520500D02*
G75*
G03*
X10630700Y-7620500I100000J0D01*
G01*
X11030700Y-7720500D02*
G75*
G03*
X10930700Y-7620500I-100000J0D01*
G01*
X10930700Y-9320500D02*
G75*
G03*
X11030700Y-9220500I0J100000D01*
G01*
X10630700Y-9320500D02*
G75*
G03*
X10530700Y-9420500I0J-100000D01*
G01*
X10830700Y-5670500D02*
G75*
G03*
X10530700Y-5970500I0J-300000D01*
G01*
X10830700Y-5670500D02*
X16730700Y-5670500D01*
X17030700Y-5970500D02*
G75*
G03*
X16730700Y-5670500I-300000J0D01*
G01*
X10530700Y-5970500D02*
X10530700Y-7520500D01*
X10530700Y-9420500D02*
X10530700Y-10970500D01*
X17030700Y-5970500D02*
X17030700Y-10970500D01*
X10630700Y-9320500D02*
X10930700Y-9320500D01*
X11030700Y-7720500D02*
X11030700Y-9220500D01*
X10630700Y-7620500D02*
X10930700Y-7620500D01*
X10830700Y-11270500D02*
X16730700Y-11270500D01*
D11*
X15537500Y-7854000D02*
X15577500Y-7894000D01*
X15577500Y-7854000D02*
X15537500Y-7894000D01*
X15588300Y-10533700D02*
X15628300Y-10573700D01*
X15628300Y-10533700D02*
X15588300Y-10573700D01*
X15804200Y-10470200D02*
X15844200Y-10510200D01*
X15844200Y-10470200D02*
X15804200Y-10510200D01*
X15867700Y-6444300D02*
X15907700Y-6484300D01*
X15907700Y-6444300D02*
X15867700Y-6484300D01*
D12*
X16684500Y-9916700D02*
G75*
G03*
X16684500Y-9916700I-50000J0D01*
G01*
X16684500Y-10170700D02*
G75*
G03*
X16684500Y-10170700I-50000J0D01*
G01*
D13*
X11367700Y-5842700D02*
X11367700Y-5944300D01*
X11316900Y-5893500D02*
X11418500Y-5893500D01*
X11367700Y-6096700D02*
X11367700Y-6198300D01*
X11316900Y-6147500D02*
X11418500Y-6147500D01*
X11621700Y-5842700D02*
X11621700Y-5944300D01*
X11570900Y-5893500D02*
X11672500Y-5893500D01*
X11621700Y-6096700D02*
X11621700Y-6198300D01*
X11570900Y-6147500D02*
X11672500Y-6147500D01*
X11875700Y-5842700D02*
X11875700Y-5944300D01*
X11824900Y-5893500D02*
X11926500Y-5893500D01*
X11875700Y-6096700D02*
X11875700Y-6198300D01*
X11824900Y-6147500D02*
X11926500Y-6147500D01*
X12129700Y-5842700D02*
X12129700Y-5944300D01*
X12078900Y-5893500D02*
X12180500Y-5893500D01*
X12129700Y-6096700D02*
X12129700Y-6198300D01*
X12078900Y-6147500D02*
X12180500Y-6147500D01*
X12141200Y-8394700D02*
X12141200Y-8496300D01*
X12090400Y-8445500D02*
X12192000Y-8445500D01*
X12141200Y-10693400D02*
X12141200Y-10795000D01*
X12090400Y-10744200D02*
X12192000Y-10744200D01*
X12383700Y-5842700D02*
X12383700Y-5944300D01*
X12332900Y-5893500D02*
X12434500Y-5893500D01*
X12383700Y-6096700D02*
X12383700Y-6198300D01*
X12332900Y-6147500D02*
X12434500Y-6147500D01*
X12395200Y-8394700D02*
X12395200Y-8496300D01*
X12344400Y-8445500D02*
X12446000Y-8445500D01*
X12395200Y-10693400D02*
X12395200Y-10795000D01*
X12344400Y-10744200D02*
X12446000Y-10744200D01*
X12637700Y-5842700D02*
X12637700Y-5944300D01*
X12586900Y-5893500D02*
X12688500Y-5893500D01*
X12637700Y-6096700D02*
X12637700Y-6198300D01*
X12586900Y-6147500D02*
X12688500Y-6147500D01*
X12891700Y-5842700D02*
X12891700Y-5944300D01*
X12840900Y-5893500D02*
X12942500Y-5893500D01*
X12891700Y-6096700D02*
X12891700Y-6198300D01*
X12840900Y-6147500D02*
X12942500Y-6147500D01*
X13145700Y-5842700D02*
X13145700Y-5944300D01*
X13094900Y-5893500D02*
X13196500Y-5893500D01*
X13145700Y-6096700D02*
X13145700Y-6198300D01*
X13094900Y-6147500D02*
X13196500Y-6147500D01*
X13399700Y-5842700D02*
X13399700Y-5944300D01*
X13348900Y-5893500D02*
X13450500Y-5893500D01*
X13399700Y-6096700D02*
X13399700Y-6198300D01*
X13348900Y-6147500D02*
X13450500Y-6147500D01*
X13411200Y-6870700D02*
X13411200Y-6972300D01*
X13360400Y-6921500D02*
X13462000Y-6921500D01*
X13411200Y-8394700D02*
X13411200Y-8496300D01*
X13360400Y-8445500D02*
X13462000Y-8445500D01*
X13411200Y-9169400D02*
X13411200Y-9271000D01*
X13360400Y-9220200D02*
X13462000Y-9220200D01*
X13411200Y-10693400D02*
X13411200Y-10795000D01*
X13360400Y-10744200D02*
X13462000Y-10744200D01*
X13653700Y-5842700D02*
X13653700Y-5944300D01*
X13602900Y-5893500D02*
X13704500Y-5893500D01*
X13653700Y-6096700D02*
X13653700Y-6198300D01*
X13602900Y-6147500D02*
X13704500Y-6147500D01*
X13665200Y-6870700D02*
X13665200Y-6972300D01*
X13614400Y-6921500D02*
X13716000Y-6921500D01*
X13665200Y-8394700D02*
X13665200Y-8496300D01*
X13614400Y-8445500D02*
X13716000Y-8445500D01*
X13665200Y-9169400D02*
X13665200Y-9271000D01*
X13614400Y-9220200D02*
X13716000Y-9220200D01*
X13665200Y-10693400D02*
X13665200Y-10795000D01*
X13614400Y-10744200D02*
X13716000Y-10744200D01*
X13907700Y-5842700D02*
X13907700Y-5944300D01*
X13856900Y-5893500D02*
X13958500Y-5893500D01*
X13907700Y-6096700D02*
X13907700Y-6198300D01*
X13856900Y-6147500D02*
X13958500Y-6147500D01*
X14161700Y-5842700D02*
X14161700Y-5944300D01*
X14110900Y-5893500D02*
X14212500Y-5893500D01*
X14161700Y-6096700D02*
X14161700Y-6198300D01*
X14110900Y-6147500D02*
X14212500Y-6147500D01*
X14415700Y-5842700D02*
X14415700Y-5944300D01*
X14364900Y-5893500D02*
X14466500Y-5893500D01*
X14415700Y-6096700D02*
X14415700Y-6198300D01*
X14364900Y-6147500D02*
X14466500Y-6147500D01*
X14669700Y-5842700D02*
X14669700Y-5944300D01*
X14618900Y-5893500D02*
X14720500Y-5893500D01*
X14669700Y-6096700D02*
X14669700Y-6198300D01*
X14618900Y-6147500D02*
X14720500Y-6147500D01*
X14681200Y-6870700D02*
X14681200Y-6972300D01*
X14630400Y-6921500D02*
X14732000Y-6921500D01*
X14681200Y-9169400D02*
X14681200Y-9271000D01*
X14630400Y-9220200D02*
X14732000Y-9220200D01*
X14923700Y-5842700D02*
X14923700Y-5944300D01*
X14872900Y-5893500D02*
X14974500Y-5893500D01*
X14923700Y-6096700D02*
X14923700Y-6198300D01*
X14872900Y-6147500D02*
X14974500Y-6147500D01*
X14935200Y-6870700D02*
X14935200Y-6972300D01*
X14884400Y-6921500D02*
X14986000Y-6921500D01*
X14935200Y-9169400D02*
X14935200Y-9271000D01*
X14884400Y-9220200D02*
X14986000Y-9220200D01*
X15177700Y-5842700D02*
X15177700Y-5944300D01*
X15126900Y-5893500D02*
X15228500Y-5893500D01*
X15177700Y-6096700D02*
X15177700Y-6198300D01*
X15126900Y-6147500D02*
X15228500Y-6147500D01*
X15431700Y-5842700D02*
X15431700Y-5944300D01*
X15380900Y-5893500D02*
X15482500Y-5893500D01*
X15431700Y-6096700D02*
X15431700Y-6198300D01*
X15380900Y-6147500D02*
X15482500Y-6147500D01*
X15443200Y-8394700D02*
X15443200Y-8496300D01*
X15392400Y-8445500D02*
X15494000Y-8445500D01*
X15443200Y-10693400D02*
X15443200Y-10795000D01*
X15392400Y-10744200D02*
X15494000Y-10744200D01*
X15685700Y-5842700D02*
X15685700Y-5944300D01*
X15634900Y-5893500D02*
X15736500Y-5893500D01*
X15685700Y-6096700D02*
X15685700Y-6198300D01*
X15634900Y-6147500D02*
X15736500Y-6147500D01*
X15697200Y-6870700D02*
X15697200Y-6972300D01*
X15646400Y-6921500D02*
X15748000Y-6921500D01*
X15697200Y-8394700D02*
X15697200Y-8496300D01*
X15646400Y-8445500D02*
X15748000Y-8445500D01*
X15697200Y-9169400D02*
X15697200Y-9271000D01*
X15646400Y-9220200D02*
X15748000Y-9220200D01*
X15697200Y-10693400D02*
X15697200Y-10795000D01*
X15646400Y-10744200D02*
X15748000Y-10744200D01*
X15939700Y-5842700D02*
X15939700Y-5944300D01*
X15888900Y-5893500D02*
X15990500Y-5893500D01*
X15939700Y-6096700D02*
X15939700Y-6198300D01*
X15888900Y-6147500D02*
X15990500Y-6147500D01*
X15951200Y-6870700D02*
X15951200Y-6972300D01*
X15900400Y-6921500D02*
X16002000Y-6921500D01*
X15951200Y-8394700D02*
X15951200Y-8496300D01*
X15900400Y-8445500D02*
X16002000Y-8445500D01*
X15951200Y-9169400D02*
X15951200Y-9271000D01*
X15900400Y-9220200D02*
X16002000Y-9220200D01*
X15951200Y-10693400D02*
X15951200Y-10795000D01*
X15900400Y-10744200D02*
X16002000Y-10744200D01*
X16193700Y-5842700D02*
X16193700Y-5944300D01*
X16142900Y-5893500D02*
X16244500Y-5893500D01*
X16193700Y-6096700D02*
X16193700Y-6198300D01*
X16142900Y-6147500D02*
X16244500Y-6147500D01*
D10*
X10778319Y-11590976D02*
X10778319Y-11390976D01*
X10825938Y-11390976D01*
X10854510Y-11400500D01*
X10873557Y-11419548D01*
X10883081Y-11438595D01*
X10892605Y-11476690D01*
X10892605Y-11505262D01*
X10883081Y-11543357D01*
X10873557Y-11562405D01*
X10854510Y-11581452D01*
X10825938Y-11590976D01*
X10778319Y-11590976D01*
X10978319Y-11590976D02*
X10978319Y-11457643D01*
X10978319Y-11495738D02*
X10987843Y-11476690D01*
X10997367Y-11467167D01*
X11016414Y-11457643D01*
X11035462Y-11457643D01*
X11102129Y-11590976D02*
X11102129Y-11457643D01*
X11102129Y-11390976D02*
X11092605Y-11400500D01*
X11102129Y-11410024D01*
X11111652Y-11400500D01*
X11102129Y-11390976D01*
X11102129Y-11410024D01*
X11225938Y-11590976D02*
X11206890Y-11581452D01*
X11197367Y-11562405D01*
X11197367Y-11390976D01*
X11330700Y-11590976D02*
X11311652Y-11581452D01*
X11302128Y-11562405D01*
X11302128Y-11390976D01*
X11559271Y-11590976D02*
X11559271Y-11390976D01*
X11625938Y-11533833D01*
X11692605Y-11390976D01*
X11692605Y-11590976D01*
X11873557Y-11590976D02*
X11873557Y-11486214D01*
X11864033Y-11467167D01*
X11844986Y-11457643D01*
X11806890Y-11457643D01*
X11787843Y-11467167D01*
X11873557Y-11581452D02*
X11854509Y-11590976D01*
X11806890Y-11590976D01*
X11787843Y-11581452D01*
X11778319Y-11562405D01*
X11778319Y-11543357D01*
X11787843Y-11524309D01*
X11806890Y-11514786D01*
X11854509Y-11514786D01*
X11873557Y-11505262D01*
X11968795Y-11457643D02*
X11968795Y-11657643D01*
X11968795Y-11467167D02*
X11987843Y-11457643D01*
X12025938Y-11457643D01*
X12044986Y-11467167D01*
X12054509Y-11476690D01*
X12064033Y-11495738D01*
X12064033Y-11552881D01*
X12054509Y-11571928D01*
X12044986Y-11581452D01*
X12025938Y-11590976D01*
X11987843Y-11590976D01*
X11968795Y-11581452D01*
X12149748Y-11571928D02*
X12159271Y-11581452D01*
X12149748Y-11590976D01*
X12140224Y-11581452D01*
X12149748Y-11571928D01*
X12149748Y-11590976D01*
X12149748Y-11467167D02*
X12159271Y-11476690D01*
X12149748Y-11486214D01*
X12140224Y-11476690D01*
X12149748Y-11467167D01*
X12149748Y-11486214D01*
D11*
X10480700Y-11900500D02*
X10520700Y-11940500D01*
X10520700Y-11900500D02*
X10480700Y-11940500D01*
D10*
X10816414Y-11810976D02*
X10835462Y-11810976D01*
X10854510Y-11820500D01*
X10864033Y-11830024D01*
X10873557Y-11849071D01*
X10883081Y-11887167D01*
X10883081Y-11934786D01*
X10873557Y-11972881D01*
X10864033Y-11991928D01*
X10854510Y-12001452D01*
X10835462Y-12010976D01*
X10816414Y-12010976D01*
X10797367Y-12001452D01*
X10787843Y-11991928D01*
X10778319Y-11972881D01*
X10768795Y-11934786D01*
X10768795Y-11887167D01*
X10778319Y-11849071D01*
X10787843Y-11830024D01*
X10797367Y-11820500D01*
X10816414Y-11810976D01*
X10968795Y-11991928D02*
X10978319Y-12001452D01*
X10968795Y-12010976D01*
X10959271Y-12001452D01*
X10968795Y-11991928D01*
X10968795Y-12010976D01*
X11149748Y-11877643D02*
X11149748Y-12010976D01*
X11102129Y-11801452D02*
X11054510Y-11944309D01*
X11178319Y-11944309D01*
X11292605Y-11810976D02*
X11311652Y-11810976D01*
X11330700Y-11820500D01*
X11340224Y-11830024D01*
X11349748Y-11849071D01*
X11359271Y-11887167D01*
X11359271Y-11934786D01*
X11349748Y-11972881D01*
X11340224Y-11991928D01*
X11330700Y-12001452D01*
X11311652Y-12010976D01*
X11292605Y-12010976D01*
X11273557Y-12001452D01*
X11264033Y-11991928D01*
X11254509Y-11972881D01*
X11244986Y-11934786D01*
X11244986Y-11887167D01*
X11254509Y-11849071D01*
X11264033Y-11830024D01*
X11273557Y-11820500D01*
X11292605Y-11810976D01*
X11483081Y-11810976D02*
X11502128Y-11810976D01*
X11521176Y-11820500D01*
X11530700Y-11830024D01*
X11540224Y-11849071D01*
X11549748Y-11887167D01*
X11549748Y-11934786D01*
X11540224Y-11972881D01*
X11530700Y-11991928D01*
X11521176Y-12001452D01*
X11502128Y-12010976D01*
X11483081Y-12010976D01*
X11464033Y-12001452D01*
X11454509Y-11991928D01*
X11444986Y-11972881D01*
X11435462Y-11934786D01*
X11435462Y-11887167D01*
X11444986Y-11849071D01*
X11454509Y-11830024D01*
X11464033Y-11820500D01*
X11483081Y-11810976D01*
X11635462Y-12010976D02*
X11635462Y-11877643D01*
X11635462Y-11896690D02*
X11644986Y-11887167D01*
X11664033Y-11877643D01*
X11692605Y-11877643D01*
X11711652Y-11887167D01*
X11721176Y-11906214D01*
X11721176Y-12010976D01*
X11721176Y-11906214D02*
X11730700Y-11887167D01*
X11749748Y-11877643D01*
X11778319Y-11877643D01*
X11797367Y-11887167D01*
X11806890Y-11906214D01*
X11806890Y-12010976D01*
X11902128Y-12010976D02*
X11902128Y-11877643D01*
X11902128Y-11896690D02*
X11911652Y-11887167D01*
X11930700Y-11877643D01*
X11959271Y-11877643D01*
X11978319Y-11887167D01*
X11987843Y-11906214D01*
X11987843Y-12010976D01*
X11987843Y-11906214D02*
X11997367Y-11887167D01*
X12016414Y-11877643D01*
X12044986Y-11877643D01*
X12064033Y-11887167D01*
X12073557Y-11906214D01*
X12073557Y-12010976D01*
X12464033Y-11801452D02*
X12292605Y-12058595D01*
X12721176Y-11810976D02*
X12740224Y-11810976D01*
X12759271Y-11820500D01*
X12768795Y-11830024D01*
X12778319Y-11849071D01*
X12787843Y-11887167D01*
X12787843Y-11934786D01*
X12778319Y-11972881D01*
X12768795Y-11991928D01*
X12759271Y-12001452D01*
X12740224Y-12010976D01*
X12721176Y-12010976D01*
X12702128Y-12001452D01*
X12692605Y-11991928D01*
X12683081Y-11972881D01*
X12673557Y-11934786D01*
X12673557Y-11887167D01*
X12683081Y-11849071D01*
X12692605Y-11830024D01*
X12702128Y-11820500D01*
X12721176Y-11810976D01*
X12873557Y-11991928D02*
X12883081Y-12001452D01*
X12873557Y-12010976D01*
X12864033Y-12001452D01*
X12873557Y-11991928D01*
X12873557Y-12010976D01*
X13006890Y-11810976D02*
X13025938Y-11810976D01*
X13044986Y-11820500D01*
X13054509Y-11830024D01*
X13064033Y-11849071D01*
X13073557Y-11887167D01*
X13073557Y-11934786D01*
X13064033Y-11972881D01*
X13054509Y-11991928D01*
X13044986Y-12001452D01*
X13025938Y-12010976D01*
X13006890Y-12010976D01*
X12987843Y-12001452D01*
X12978319Y-11991928D01*
X12968795Y-11972881D01*
X12959271Y-11934786D01*
X12959271Y-11887167D01*
X12968795Y-11849071D01*
X12978319Y-11830024D01*
X12987843Y-11820500D01*
X13006890Y-11810976D01*
X13264033Y-12010976D02*
X13149748Y-12010976D01*
X13206890Y-12010976D02*
X13206890Y-11810976D01*
X13187843Y-11839548D01*
X13168795Y-11858595D01*
X13149748Y-11868119D01*
X13444986Y-11810976D02*
X13349748Y-11810976D01*
X13340224Y-11906214D01*
X13349748Y-11896690D01*
X13368795Y-11887167D01*
X13416414Y-11887167D01*
X13435462Y-11896690D01*
X13444986Y-11906214D01*
X13454509Y-11925262D01*
X13454509Y-11972881D01*
X13444986Y-11991928D01*
X13435462Y-12001452D01*
X13416414Y-12010976D01*
X13368795Y-12010976D01*
X13349748Y-12001452D01*
X13340224Y-11991928D01*
X13521176Y-11810976D02*
X13654509Y-11810976D01*
X13568795Y-12010976D01*
X13721176Y-11810976D02*
X13721176Y-11849071D01*
X13797367Y-11810976D02*
X13797367Y-11849071D01*
X14092605Y-12087167D02*
X14083081Y-12077643D01*
X14064033Y-12049071D01*
X14054509Y-12030024D01*
X14044986Y-12001452D01*
X14035462Y-11953833D01*
X14035462Y-11915738D01*
X14044986Y-11868119D01*
X14054509Y-11839548D01*
X14064033Y-11820500D01*
X14083081Y-11791928D01*
X14092605Y-11782405D01*
X14254509Y-11877643D02*
X14254509Y-12010976D01*
X14206890Y-11801452D02*
X14159271Y-11944309D01*
X14283081Y-11944309D01*
X14511652Y-12010976D02*
X14511652Y-11810976D01*
X14597367Y-12010976D02*
X14597367Y-11906214D01*
X14587843Y-11887167D01*
X14568795Y-11877643D01*
X14540224Y-11877643D01*
X14521176Y-11887167D01*
X14511652Y-11896690D01*
X14721176Y-12010976D02*
X14702128Y-12001452D01*
X14692605Y-11991928D01*
X14683081Y-11972881D01*
X14683081Y-11915738D01*
X14692605Y-11896690D01*
X14702128Y-11887167D01*
X14721176Y-11877643D01*
X14749748Y-11877643D01*
X14768795Y-11887167D01*
X14778319Y-11896690D01*
X14787843Y-11915738D01*
X14787843Y-11972881D01*
X14778319Y-11991928D01*
X14768795Y-12001452D01*
X14749748Y-12010976D01*
X14721176Y-12010976D01*
X14902128Y-12010976D02*
X14883081Y-12001452D01*
X14873557Y-11982405D01*
X14873557Y-11810976D01*
X15054509Y-12001452D02*
X15035462Y-12010976D01*
X14997367Y-12010976D01*
X14978319Y-12001452D01*
X14968795Y-11982405D01*
X14968795Y-11906214D01*
X14978319Y-11887167D01*
X14997367Y-11877643D01*
X15035462Y-11877643D01*
X15054509Y-11887167D01*
X15064033Y-11906214D01*
X15064033Y-11925262D01*
X14968795Y-11944309D01*
X15140224Y-12001452D02*
X15159271Y-12010976D01*
X15197367Y-12010976D01*
X15216414Y-12001452D01*
X15225938Y-11982405D01*
X15225938Y-11972881D01*
X15216414Y-11953833D01*
X15197367Y-11944309D01*
X15168795Y-11944309D01*
X15149748Y-11934786D01*
X15140224Y-11915738D01*
X15140224Y-11906214D01*
X15149748Y-11887167D01*
X15168795Y-11877643D01*
X15197367Y-11877643D01*
X15216414Y-11887167D01*
X15292605Y-12087167D02*
X15302128Y-12077643D01*
X15321176Y-12049071D01*
X15330700Y-12030024D01*
X15340224Y-12001452D01*
X15349748Y-11953833D01*
X15349748Y-11915738D01*
X15340224Y-11868119D01*
X15330700Y-11839548D01*
X15321176Y-11820500D01*
X15302128Y-11791928D01*
X15292605Y-11782405D01*
D12*
X10520700Y-12184500D02*
G75*
G03*
X10520700Y-12184500I-50000J0D01*
G01*
D10*
X10883081Y-12274976D02*
X10768795Y-12274976D01*
X10825938Y-12274976D02*
X10825938Y-12074976D01*
X10806890Y-12103548D01*
X10787843Y-12122595D01*
X10768795Y-12132119D01*
X10968795Y-12255928D02*
X10978319Y-12265452D01*
X10968795Y-12274976D01*
X10959271Y-12265452D01*
X10968795Y-12255928D01*
X10968795Y-12274976D01*
X11102129Y-12074976D02*
X11121176Y-12074976D01*
X11140224Y-12084500D01*
X11149748Y-12094024D01*
X11159271Y-12113071D01*
X11168795Y-12151167D01*
X11168795Y-12198786D01*
X11159271Y-12236881D01*
X11149748Y-12255928D01*
X11140224Y-12265452D01*
X11121176Y-12274976D01*
X11102129Y-12274976D01*
X11083081Y-12265452D01*
X11073557Y-12255928D01*
X11064033Y-12236881D01*
X11054510Y-12198786D01*
X11054510Y-12151167D01*
X11064033Y-12113071D01*
X11073557Y-12094024D01*
X11083081Y-12084500D01*
X11102129Y-12074976D01*
X11292605Y-12074976D02*
X11311652Y-12074976D01*
X11330700Y-12084500D01*
X11340224Y-12094024D01*
X11349748Y-12113071D01*
X11359271Y-12151167D01*
X11359271Y-12198786D01*
X11349748Y-12236881D01*
X11340224Y-12255928D01*
X11330700Y-12265452D01*
X11311652Y-12274976D01*
X11292605Y-12274976D01*
X11273557Y-12265452D01*
X11264033Y-12255928D01*
X11254509Y-12236881D01*
X11244986Y-12198786D01*
X11244986Y-12151167D01*
X11254509Y-12113071D01*
X11264033Y-12094024D01*
X11273557Y-12084500D01*
X11292605Y-12074976D01*
X11483081Y-12074976D02*
X11502128Y-12074976D01*
X11521176Y-12084500D01*
X11530700Y-12094024D01*
X11540224Y-12113071D01*
X11549748Y-12151167D01*
X11549748Y-12198786D01*
X11540224Y-12236881D01*
X11530700Y-12255928D01*
X11521176Y-12265452D01*
X11502128Y-12274976D01*
X11483081Y-12274976D01*
X11464033Y-12265452D01*
X11454509Y-12255928D01*
X11444986Y-12236881D01*
X11435462Y-12198786D01*
X11435462Y-12151167D01*
X11444986Y-12113071D01*
X11454509Y-12094024D01*
X11464033Y-12084500D01*
X11483081Y-12074976D01*
X11635462Y-12274976D02*
X11635462Y-12141643D01*
X11635462Y-12160690D02*
X11644986Y-12151167D01*
X11664033Y-12141643D01*
X11692605Y-12141643D01*
X11711652Y-12151167D01*
X11721176Y-12170214D01*
X11721176Y-12274976D01*
X11721176Y-12170214D02*
X11730700Y-12151167D01*
X11749748Y-12141643D01*
X11778319Y-12141643D01*
X11797367Y-12151167D01*
X11806890Y-12170214D01*
X11806890Y-12274976D01*
X11902128Y-12274976D02*
X11902128Y-12141643D01*
X11902128Y-12160690D02*
X11911652Y-12151167D01*
X11930700Y-12141643D01*
X11959271Y-12141643D01*
X11978319Y-12151167D01*
X11987843Y-12170214D01*
X11987843Y-12274976D01*
X11987843Y-12170214D02*
X11997367Y-12151167D01*
X12016414Y-12141643D01*
X12044986Y-12141643D01*
X12064033Y-12151167D01*
X12073557Y-12170214D01*
X12073557Y-12274976D01*
X12464033Y-12065452D02*
X12292605Y-12322595D01*
X12721176Y-12074976D02*
X12740224Y-12074976D01*
X12759271Y-12084500D01*
X12768795Y-12094024D01*
X12778319Y-12113071D01*
X12787843Y-12151167D01*
X12787843Y-12198786D01*
X12778319Y-12236881D01*
X12768795Y-12255928D01*
X12759271Y-12265452D01*
X12740224Y-12274976D01*
X12721176Y-12274976D01*
X12702128Y-12265452D01*
X12692605Y-12255928D01*
X12683081Y-12236881D01*
X12673557Y-12198786D01*
X12673557Y-12151167D01*
X12683081Y-12113071D01*
X12692605Y-12094024D01*
X12702128Y-12084500D01*
X12721176Y-12074976D01*
X12873557Y-12255928D02*
X12883081Y-12265452D01*
X12873557Y-12274976D01*
X12864033Y-12265452D01*
X12873557Y-12255928D01*
X12873557Y-12274976D01*
X13006890Y-12074976D02*
X13025938Y-12074976D01*
X13044986Y-12084500D01*
X13054509Y-12094024D01*
X13064033Y-12113071D01*
X13073557Y-12151167D01*
X13073557Y-12198786D01*
X13064033Y-12236881D01*
X13054509Y-12255928D01*
X13044986Y-12265452D01*
X13025938Y-12274976D01*
X13006890Y-12274976D01*
X12987843Y-12265452D01*
X12978319Y-12255928D01*
X12968795Y-12236881D01*
X12959271Y-12198786D01*
X12959271Y-12151167D01*
X12968795Y-12113071D01*
X12978319Y-12094024D01*
X12987843Y-12084500D01*
X13006890Y-12074976D01*
X13140224Y-12074976D02*
X13264033Y-12074976D01*
X13197367Y-12151167D01*
X13225938Y-12151167D01*
X13244986Y-12160690D01*
X13254509Y-12170214D01*
X13264033Y-12189262D01*
X13264033Y-12236881D01*
X13254509Y-12255928D01*
X13244986Y-12265452D01*
X13225938Y-12274976D01*
X13168795Y-12274976D01*
X13149748Y-12265452D01*
X13140224Y-12255928D01*
X13359271Y-12274976D02*
X13397367Y-12274976D01*
X13416414Y-12265452D01*
X13425938Y-12255928D01*
X13444986Y-12227357D01*
X13454509Y-12189262D01*
X13454509Y-12113071D01*
X13444986Y-12094024D01*
X13435462Y-12084500D01*
X13416414Y-12074976D01*
X13378319Y-12074976D01*
X13359271Y-12084500D01*
X13349748Y-12094024D01*
X13340224Y-12113071D01*
X13340224Y-12160690D01*
X13349748Y-12179738D01*
X13359271Y-12189262D01*
X13378319Y-12198786D01*
X13416414Y-12198786D01*
X13435462Y-12189262D01*
X13444986Y-12179738D01*
X13454509Y-12160690D01*
X13625938Y-12141643D02*
X13625938Y-12274976D01*
X13578319Y-12065452D02*
X13530700Y-12208309D01*
X13654509Y-12208309D01*
X13721176Y-12074976D02*
X13721176Y-12113071D01*
X13797367Y-12074976D02*
X13797367Y-12113071D01*
X14092605Y-12351167D02*
X14083081Y-12341643D01*
X14064033Y-12313071D01*
X14054509Y-12294024D01*
X14044986Y-12265452D01*
X14035462Y-12217833D01*
X14035462Y-12179738D01*
X14044986Y-12132119D01*
X14054509Y-12103548D01*
X14064033Y-12084500D01*
X14083081Y-12055928D01*
X14092605Y-12046405D01*
X14159271Y-12094024D02*
X14168795Y-12084500D01*
X14187843Y-12074976D01*
X14235462Y-12074976D01*
X14254509Y-12084500D01*
X14264033Y-12094024D01*
X14273557Y-12113071D01*
X14273557Y-12132119D01*
X14264033Y-12160690D01*
X14149748Y-12274976D01*
X14273557Y-12274976D01*
X14511652Y-12274976D02*
X14511652Y-12074976D01*
X14597367Y-12274976D02*
X14597367Y-12170214D01*
X14587843Y-12151167D01*
X14568795Y-12141643D01*
X14540224Y-12141643D01*
X14521176Y-12151167D01*
X14511652Y-12160690D01*
X14721176Y-12274976D02*
X14702128Y-12265452D01*
X14692605Y-12255928D01*
X14683081Y-12236881D01*
X14683081Y-12179738D01*
X14692605Y-12160690D01*
X14702128Y-12151167D01*
X14721176Y-12141643D01*
X14749748Y-12141643D01*
X14768795Y-12151167D01*
X14778319Y-12160690D01*
X14787843Y-12179738D01*
X14787843Y-12236881D01*
X14778319Y-12255928D01*
X14768795Y-12265452D01*
X14749748Y-12274976D01*
X14721176Y-12274976D01*
X14902128Y-12274976D02*
X14883081Y-12265452D01*
X14873557Y-12246405D01*
X14873557Y-12074976D01*
X15054509Y-12265452D02*
X15035462Y-12274976D01*
X14997367Y-12274976D01*
X14978319Y-12265452D01*
X14968795Y-12246405D01*
X14968795Y-12170214D01*
X14978319Y-12151167D01*
X14997367Y-12141643D01*
X15035462Y-12141643D01*
X15054509Y-12151167D01*
X15064033Y-12170214D01*
X15064033Y-12189262D01*
X14968795Y-12208309D01*
X15140224Y-12265452D02*
X15159271Y-12274976D01*
X15197367Y-12274976D01*
X15216414Y-12265452D01*
X15225938Y-12246405D01*
X15225938Y-12236881D01*
X15216414Y-12217833D01*
X15197367Y-12208309D01*
X15168795Y-12208309D01*
X15149748Y-12198786D01*
X15140224Y-12179738D01*
X15140224Y-12170214D01*
X15149748Y-12151167D01*
X15168795Y-12141643D01*
X15197367Y-12141643D01*
X15216414Y-12151167D01*
X15292605Y-12351167D02*
X15302128Y-12341643D01*
X15321176Y-12313071D01*
X15330700Y-12294024D01*
X15340224Y-12265452D01*
X15349748Y-12217833D01*
X15349748Y-12179738D01*
X15340224Y-12132119D01*
X15330700Y-12103548D01*
X15321176Y-12084500D01*
X15302128Y-12055928D01*
X15292605Y-12046405D01*
D13*
X10469900Y-12397700D02*
X10469900Y-12499300D01*
X10419100Y-12448500D02*
X10520700Y-12448500D01*
D10*
X10883081Y-12538976D02*
X10768795Y-12538976D01*
X10825938Y-12538976D02*
X10825938Y-12338976D01*
X10806890Y-12367548D01*
X10787843Y-12386595D01*
X10768795Y-12396119D01*
X10968795Y-12519928D02*
X10978319Y-12529452D01*
X10968795Y-12538976D01*
X10959271Y-12529452D01*
X10968795Y-12519928D01*
X10968795Y-12538976D01*
X11102129Y-12338976D02*
X11121176Y-12338976D01*
X11140224Y-12348500D01*
X11149748Y-12358024D01*
X11159271Y-12377071D01*
X11168795Y-12415167D01*
X11168795Y-12462786D01*
X11159271Y-12500881D01*
X11149748Y-12519928D01*
X11140224Y-12529452D01*
X11121176Y-12538976D01*
X11102129Y-12538976D01*
X11083081Y-12529452D01*
X11073557Y-12519928D01*
X11064033Y-12500881D01*
X11054510Y-12462786D01*
X11054510Y-12415167D01*
X11064033Y-12377071D01*
X11073557Y-12358024D01*
X11083081Y-12348500D01*
X11102129Y-12338976D01*
X11359271Y-12538976D02*
X11244986Y-12538976D01*
X11302128Y-12538976D02*
X11302128Y-12338976D01*
X11283081Y-12367548D01*
X11264033Y-12386595D01*
X11244986Y-12396119D01*
X11530700Y-12338976D02*
X11492605Y-12338976D01*
X11473557Y-12348500D01*
X11464033Y-12358024D01*
X11444986Y-12386595D01*
X11435462Y-12424690D01*
X11435462Y-12500881D01*
X11444986Y-12519928D01*
X11454509Y-12529452D01*
X11473557Y-12538976D01*
X11511652Y-12538976D01*
X11530700Y-12529452D01*
X11540224Y-12519928D01*
X11549748Y-12500881D01*
X11549748Y-12453262D01*
X11540224Y-12434214D01*
X11530700Y-12424690D01*
X11511652Y-12415167D01*
X11473557Y-12415167D01*
X11454509Y-12424690D01*
X11444986Y-12434214D01*
X11435462Y-12453262D01*
X11635462Y-12538976D02*
X11635462Y-12405643D01*
X11635462Y-12424690D02*
X11644986Y-12415167D01*
X11664033Y-12405643D01*
X11692605Y-12405643D01*
X11711652Y-12415167D01*
X11721176Y-12434214D01*
X11721176Y-12538976D01*
X11721176Y-12434214D02*
X11730700Y-12415167D01*
X11749748Y-12405643D01*
X11778319Y-12405643D01*
X11797367Y-12415167D01*
X11806890Y-12434214D01*
X11806890Y-12538976D01*
X11902128Y-12538976D02*
X11902128Y-12405643D01*
X11902128Y-12424690D02*
X11911652Y-12415167D01*
X11930700Y-12405643D01*
X11959271Y-12405643D01*
X11978319Y-12415167D01*
X11987843Y-12434214D01*
X11987843Y-12538976D01*
X11987843Y-12434214D02*
X11997367Y-12415167D01*
X12016414Y-12405643D01*
X12044986Y-12405643D01*
X12064033Y-12415167D01*
X12073557Y-12434214D01*
X12073557Y-12538976D01*
X12464033Y-12329452D02*
X12292605Y-12586595D01*
X12721176Y-12338976D02*
X12740224Y-12338976D01*
X12759271Y-12348500D01*
X12768795Y-12358024D01*
X12778319Y-12377071D01*
X12787843Y-12415167D01*
X12787843Y-12462786D01*
X12778319Y-12500881D01*
X12768795Y-12519928D01*
X12759271Y-12529452D01*
X12740224Y-12538976D01*
X12721176Y-12538976D01*
X12702128Y-12529452D01*
X12692605Y-12519928D01*
X12683081Y-12500881D01*
X12673557Y-12462786D01*
X12673557Y-12415167D01*
X12683081Y-12377071D01*
X12692605Y-12358024D01*
X12702128Y-12348500D01*
X12721176Y-12338976D01*
X12873557Y-12519928D02*
X12883081Y-12529452D01*
X12873557Y-12538976D01*
X12864033Y-12529452D01*
X12873557Y-12519928D01*
X12873557Y-12538976D01*
X13006890Y-12338976D02*
X13025938Y-12338976D01*
X13044986Y-12348500D01*
X13054509Y-12358024D01*
X13064033Y-12377071D01*
X13073557Y-12415167D01*
X13073557Y-12462786D01*
X13064033Y-12500881D01*
X13054509Y-12519928D01*
X13044986Y-12529452D01*
X13025938Y-12538976D01*
X13006890Y-12538976D01*
X12987843Y-12529452D01*
X12978319Y-12519928D01*
X12968795Y-12500881D01*
X12959271Y-12462786D01*
X12959271Y-12415167D01*
X12968795Y-12377071D01*
X12978319Y-12358024D01*
X12987843Y-12348500D01*
X13006890Y-12338976D01*
X13244986Y-12405643D02*
X13244986Y-12538976D01*
X13197367Y-12329452D02*
X13149748Y-12472309D01*
X13273557Y-12472309D01*
X13387843Y-12338976D02*
X13406890Y-12338976D01*
X13425938Y-12348500D01*
X13435462Y-12358024D01*
X13444986Y-12377071D01*
X13454509Y-12415167D01*
X13454509Y-12462786D01*
X13444986Y-12500881D01*
X13435462Y-12519928D01*
X13425938Y-12529452D01*
X13406890Y-12538976D01*
X13387843Y-12538976D01*
X13368795Y-12529452D01*
X13359271Y-12519928D01*
X13349748Y-12500881D01*
X13340224Y-12462786D01*
X13340224Y-12415167D01*
X13349748Y-12377071D01*
X13359271Y-12358024D01*
X13368795Y-12348500D01*
X13387843Y-12338976D01*
X13578319Y-12338976D02*
X13597367Y-12338976D01*
X13616414Y-12348500D01*
X13625938Y-12358024D01*
X13635462Y-12377071D01*
X13644986Y-12415167D01*
X13644986Y-12462786D01*
X13635462Y-12500881D01*
X13625938Y-12519928D01*
X13616414Y-12529452D01*
X13597367Y-12538976D01*
X13578319Y-12538976D01*
X13559271Y-12529452D01*
X13549748Y-12519928D01*
X13540224Y-12500881D01*
X13530700Y-12462786D01*
X13530700Y-12415167D01*
X13540224Y-12377071D01*
X13549748Y-12358024D01*
X13559271Y-12348500D01*
X13578319Y-12338976D01*
X13721176Y-12338976D02*
X13721176Y-12377071D01*
X13797367Y-12338976D02*
X13797367Y-12377071D01*
X14092605Y-12615167D02*
X14083081Y-12605643D01*
X14064033Y-12577071D01*
X14054509Y-12558024D01*
X14044986Y-12529452D01*
X14035462Y-12481833D01*
X14035462Y-12443738D01*
X14044986Y-12396119D01*
X14054509Y-12367548D01*
X14064033Y-12348500D01*
X14083081Y-12319928D01*
X14092605Y-12310405D01*
X14254509Y-12338976D02*
X14216414Y-12338976D01*
X14197367Y-12348500D01*
X14187843Y-12358024D01*
X14168795Y-12386595D01*
X14159271Y-12424690D01*
X14159271Y-12500881D01*
X14168795Y-12519928D01*
X14178319Y-12529452D01*
X14197367Y-12538976D01*
X14235462Y-12538976D01*
X14254509Y-12529452D01*
X14264033Y-12519928D01*
X14273557Y-12500881D01*
X14273557Y-12453262D01*
X14264033Y-12434214D01*
X14254509Y-12424690D01*
X14235462Y-12415167D01*
X14197367Y-12415167D01*
X14178319Y-12424690D01*
X14168795Y-12434214D01*
X14159271Y-12453262D01*
X14444986Y-12338976D02*
X14406890Y-12338976D01*
X14387843Y-12348500D01*
X14378319Y-12358024D01*
X14359271Y-12386595D01*
X14349748Y-12424690D01*
X14349748Y-12500881D01*
X14359271Y-12519928D01*
X14368795Y-12529452D01*
X14387843Y-12538976D01*
X14425938Y-12538976D01*
X14444986Y-12529452D01*
X14454509Y-12519928D01*
X14464033Y-12500881D01*
X14464033Y-12453262D01*
X14454509Y-12434214D01*
X14444986Y-12424690D01*
X14425938Y-12415167D01*
X14387843Y-12415167D01*
X14368795Y-12424690D01*
X14359271Y-12434214D01*
X14349748Y-12453262D01*
X14702128Y-12538976D02*
X14702128Y-12338976D01*
X14787843Y-12538976D02*
X14787843Y-12434214D01*
X14778319Y-12415167D01*
X14759271Y-12405643D01*
X14730700Y-12405643D01*
X14711652Y-12415167D01*
X14702128Y-12424690D01*
X14911652Y-12538976D02*
X14892605Y-12529452D01*
X14883081Y-12519928D01*
X14873557Y-12500881D01*
X14873557Y-12443738D01*
X14883081Y-12424690D01*
X14892605Y-12415167D01*
X14911652Y-12405643D01*
X14940224Y-12405643D01*
X14959271Y-12415167D01*
X14968795Y-12424690D01*
X14978319Y-12443738D01*
X14978319Y-12500881D01*
X14968795Y-12519928D01*
X14959271Y-12529452D01*
X14940224Y-12538976D01*
X14911652Y-12538976D01*
X15092605Y-12538976D02*
X15073557Y-12529452D01*
X15064033Y-12510405D01*
X15064033Y-12338976D01*
X15244986Y-12529452D02*
X15225938Y-12538976D01*
X15187843Y-12538976D01*
X15168795Y-12529452D01*
X15159271Y-12510405D01*
X15159271Y-12434214D01*
X15168795Y-12415167D01*
X15187843Y-12405643D01*
X15225938Y-12405643D01*
X15244986Y-12415167D01*
X15254509Y-12434214D01*
X15254509Y-12453262D01*
X15159271Y-12472309D01*
X15330700Y-12529452D02*
X15349748Y-12538976D01*
X15387843Y-12538976D01*
X15406890Y-12529452D01*
X15416414Y-12510405D01*
X15416414Y-12500881D01*
X15406890Y-12481833D01*
X15387843Y-12472309D01*
X15359271Y-12472309D01*
X15340224Y-12462786D01*
X15330700Y-12443738D01*
X15330700Y-12434214D01*
X15340224Y-12415167D01*
X15359271Y-12405643D01*
X15387843Y-12405643D01*
X15406890Y-12415167D01*
X15483081Y-12615167D02*
X15492605Y-12605643D01*
X15511652Y-12577071D01*
X15521176Y-12558024D01*
X15530700Y-12529452D01*
X15540224Y-12481833D01*
X15540224Y-12443738D01*
X15530700Y-12396119D01*
X15521176Y-12367548D01*
X15511652Y-12348500D01*
X15492605Y-12319928D01*
X15483081Y-12310405D01*
M02*
